<svg width="72" height="53" viewBox="0 0 72 53" fill="none" xmlns="http://www.w3.org/2000/svg">
<path d="M0 0H46.2192C59.964 0 71.1064 11.1424 71.1064 24.8872V52.1447H27.85C12.4688 52.1447 0 39.6758 0 24.2947V0Z" fill="#6DF843"/>
<path d="M37.3069 39.6137C44.1038 39.6137 49.6137 34.1038 49.6137 27.3069C49.6137 20.51 44.1038 15 37.3069 15C30.51 15 25 20.51 25 27.3069C25 34.1038 30.51 39.6137 37.3069 39.6137Z" stroke="#287112" stroke-width="2.46137" stroke-linecap="round" stroke-linejoin="round"/>
<path d="M37.3068 34.6911C41.3849 34.6911 44.6909 31.3851 44.6909 27.307C44.6909 23.2288 41.3849 19.9229 37.3068 19.9229C33.2287 19.9229 29.9227 23.2288 29.9227 27.307C29.9227 31.3851 33.2287 34.6911 37.3068 34.6911Z" stroke="#287112" stroke-width="2.46137" stroke-linecap="round" stroke-linejoin="round"/>
<path d="M37.3069 29.768C38.6663 29.768 39.7683 28.666 39.7683 27.3066C39.7683 25.9472 38.6663 24.8452 37.3069 24.8452C35.9476 24.8452 34.8456 25.9472 34.8456 27.3066C34.8456 28.666 35.9476 29.768 37.3069 29.768Z" stroke="#287112" stroke-width="2.46137" stroke-linecap="round" stroke-linejoin="round"/>
</svg>
