<svg width="17" height="21" viewBox="0 0 17 21" fill="none" xmlns="http://www.w3.org/2000/svg">
<path d="M9.94268 0.598068H2.46695C1.97128 0.598068 1.49591 0.80483 1.14542 1.17287C0.794927 1.54091 0.598022 2.04008 0.598022 2.56056V18.2605C0.598022 18.781 0.794927 19.2802 1.14542 19.6482C1.49591 20.0162 1.97128 20.223 2.46695 20.223H13.6805C14.1762 20.223 14.6516 20.0162 15.0021 19.6482C15.3526 19.2802 15.5495 18.781 15.5495 18.2605V6.48555L9.94268 0.598068Z" stroke="#287112" stroke-width="1.19612" stroke-linecap="round" stroke-linejoin="round"/>
<path d="M9.94263 0.598053V6.48451H15.5494" stroke="#287112" stroke-width="1.19612" stroke-linecap="round" stroke-linejoin="round"/>
<path d="M11.8116 11.3918H4.33588" stroke="#287112" stroke-width="1.19612" stroke-linecap="round" stroke-linejoin="round"/>
<path d="M11.8116 15.3168H4.33588" stroke="#287112" stroke-width="1.19612" stroke-linecap="round" stroke-linejoin="round"/>
<path d="M6.20481 7.46678H5.27034H4.33588" stroke="#287112" stroke-width="1.19612" stroke-linecap="round" stroke-linejoin="round"/>
</svg>
