<svg width="72" height="53" viewBox="0 0 72 53" fill="none" xmlns="http://www.w3.org/2000/svg">
<path d="M0 0H46.2192C59.964 0 71.1064 11.1424 71.1064 24.8872V52.1447H27.85C12.4688 52.1447 0 39.6758 0 24.2947V0Z" fill="#6DF843"/>
<path d="M37.6743 32.8897C41.107 32.8897 43.8899 30.1069 43.8899 26.6741C43.8899 23.2413 41.107 20.4585 37.6743 20.4585C34.2415 20.4585 31.4587 23.2413 31.4587 26.6741C31.4587 30.1069 34.2415 32.8897 37.6743 32.8897Z" stroke="#287112" stroke-width="2.48624" stroke-linecap="round" stroke-linejoin="round"/>
<path d="M37.6742 13V15.4862" stroke="#287112" stroke-width="2.48624" stroke-linecap="round" stroke-linejoin="round"/>
<path d="M37.6742 37.8628V40.349" stroke="#287112" stroke-width="2.48624" stroke-linecap="round" stroke-linejoin="round"/>
<path d="M28.0027 17.0029L29.7679 18.7682" stroke="#287112" stroke-width="2.48624" stroke-linecap="round" stroke-linejoin="round"/>
<path d="M45.5803 34.5801L47.3456 36.3453" stroke="#287112" stroke-width="2.48624" stroke-linecap="round" stroke-linejoin="round"/>
<path d="M23.9999 26.6743H26.4861" stroke="#287112" stroke-width="2.48624" stroke-linecap="round" stroke-linejoin="round"/>
<path d="M48.8623 26.6743H51.3485" stroke="#287112" stroke-width="2.48624" stroke-linecap="round" stroke-linejoin="round"/>
<path d="M28.0027 36.3453L29.7679 34.5801" stroke="#287112" stroke-width="2.48624" stroke-linecap="round" stroke-linejoin="round"/>
<path d="M45.5803 18.7682L47.3456 17.0029" stroke="#287112" stroke-width="2.48624" stroke-linecap="round" stroke-linejoin="round"/>
</svg>
