<svg width="70" height="80" viewBox="0 0 77 124" fill="none" xmlns="http://www.w3.org/2000/svg">
<g opacity="0.5">
<circle cx="5" cy="5" r="5" fill="#6DF843"/>
<circle cx="5" cy="24" r="5" fill="#6DF843"/>
<circle cx="5" cy="43" r="5" fill="#6DF843"/>
<circle cx="5" cy="62" r="5" fill="#6DF843"/>
<circle cx="5" cy="81" r="5" fill="#6DF843"/>
<circle cx="5" cy="100" r="5" fill="#6DF843"/>
<circle cx="5" cy="119" r="5" fill="#6DF843"/>
<circle cx="29" cy="5" r="5" fill="#6DF843"/>
<circle cx="29" cy="24" r="5" fill="#6DF843"/>
<circle cx="29" cy="43" r="5" fill="#6DF843"/>
<circle cx="29" cy="62" r="5" fill="#6DF843"/>
<circle cx="29" cy="81" r="5" fill="#6DF843"/>
<circle cx="29" cy="100" r="5" fill="#6DF843"/>
<circle cx="29" cy="119" r="5" fill="#6DF843"/>
</g>
<g opacity="0.5">
<circle cx="48" cy="5" r="5" fill="#6DF843"/>
<circle cx="48" cy="24" r="5" fill="#6DF843"/>
<circle cx="48" cy="43" r="5" fill="#6DF843"/>
<circle cx="48" cy="62" r="5" fill="#6DF843"/>
<circle cx="48" cy="81" r="5" fill="#6DF843"/>
<circle cx="48" cy="100" r="5" fill="#6DF843"/>
<circle cx="48" cy="119" r="5" fill="#6DF843"/>
<circle cx="72" cy="5" r="5" fill="#6DF843"/>
<circle cx="72" cy="24" r="5" fill="#6DF843"/>
<circle cx="72" cy="43" r="5" fill="#6DF843"/>
<circle cx="72" cy="62" r="5" fill="#6DF843"/>
<circle cx="72" cy="81" r="5" fill="#6DF843"/>
<circle cx="72" cy="100" r="5" fill="#6DF843"/>
<circle cx="72" cy="119" r="5" fill="#6DF843"/>
</g>
</svg>
