<svg width="72" height="53" viewBox="0 0 72 53" fill="none" xmlns="http://www.w3.org/2000/svg">
<path d="M0 0H46.2192C59.964 0 71.1064 11.1424 71.1064 24.8872V52.1447H27.85C12.4688 52.1447 0 39.6758 0 24.2947V0Z" fill="#6DF843"/>
<path d="M42.4286 15.605H28.0085C26.6811 15.605 25.6051 16.681 25.6051 18.0083V32.4285C25.6051 33.7559 26.6811 34.8319 28.0085 34.8319H42.4286C43.756 34.8319 44.832 33.7559 44.832 32.4285V18.0083C44.832 16.681 43.756 15.605 42.4286 15.605Z" stroke="#287112" stroke-width="2.40336" stroke-linecap="round" stroke-linejoin="round"/>
<path d="M38.8235 21.6133H31.6134V28.8234H38.8235V21.6133Z" stroke="#287112" stroke-width="2.40336" stroke-linecap="round" stroke-linejoin="round"/>
<path d="M31.6134 12V15.605" stroke="#287112" stroke-width="2.40336" stroke-linecap="round" stroke-linejoin="round"/>
<path d="M38.8236 12V15.605" stroke="#287112" stroke-width="2.40336" stroke-linecap="round" stroke-linejoin="round"/>
<path d="M31.6134 34.832V38.4371" stroke="#287112" stroke-width="2.40336" stroke-linecap="round" stroke-linejoin="round"/>
<path d="M38.8236 34.832V38.4371" stroke="#287112" stroke-width="2.40336" stroke-linecap="round" stroke-linejoin="round"/>
<path d="M44.8319 21.6133H48.437" stroke="#287112" stroke-width="2.40336" stroke-linecap="round" stroke-linejoin="round"/>
<path d="M44.8319 27.6221H48.437" stroke="#287112" stroke-width="2.40336" stroke-linecap="round" stroke-linejoin="round"/>
<path d="M22 21.6133H25.6051" stroke="#287112" stroke-width="2.40336" stroke-linecap="round" stroke-linejoin="round"/>
<path d="M22 27.6221H25.6051" stroke="#287112" stroke-width="2.40336" stroke-linecap="round" stroke-linejoin="round"/>
</svg>
