<svg width="74" height="55" viewBox="0 0 74 55" fill="none" xmlns="http://www.w3.org/2000/svg">
<path d="M0 0H48.1C62.4042 0 74 11.5958 74 25.9V54.2667H28.9833C12.9763 54.2667 0 41.2904 0 25.2833V0Z" fill="#6DF843"/>
<path d="M32.7806 34.2586L37.221 38.6138L41.6614 34.2586" stroke="#287112" stroke-width="1.43689" stroke-linecap="round" stroke-linejoin="round"/>
<path d="M37.221 28.8136V38.6146" stroke="#287112" stroke-width="1.43689" stroke-linecap="round" stroke-linejoin="round"/>
<path d="M47.0787 35.4456C48.0438 34.7798 48.7675 33.8297 49.1449 32.7331C49.5222 31.6364 49.5336 30.4504 49.1772 29.347C48.8209 28.2436 48.1154 27.2804 47.1631 26.597C46.2109 25.9136 45.0615 25.5457 43.8816 25.5466H42.4829C42.149 24.2701 41.5243 23.0846 40.6558 22.0793C39.7873 21.074 38.6976 20.275 37.4688 19.7426C36.24 19.2102 34.9041 18.9581 33.5616 19.0055C32.2192 19.0529 30.9051 19.3984 29.7185 20.016C28.5318 20.6336 27.5035 21.5073 26.7108 22.5712C25.9182 23.6352 25.3819 24.8617 25.1423 26.1583C24.9028 27.455 24.9662 28.7881 25.3279 30.0573C25.6895 31.3264 26.3399 32.4985 27.2301 33.4854" stroke="#287112" stroke-width="1.43689" stroke-linecap="round" stroke-linejoin="round"/>
</svg>
