<svg width="76" height="57" viewBox="0 0 70 52" fill="none" xmlns="http://www.w3.org/2000/svg">
<path d="M0 0H45.5C59.031 0 70 10.969 70 24.5V51.3333H27.4167C12.2749 51.3333 0 39.0585 0 23.9167V0Z" fill="#6DF843"/>
<path d="M37.3447 16.9999H29.8689C29.3733 16.9999 28.8979 17.2067 28.5474 17.5747C28.1969 17.9428 28 18.4419 28 18.9624V34.6624C28 35.1829 28.1969 35.682 28.5474 36.0501C28.8979 36.4181 29.3733 36.6249 29.8689 36.6249H41.0825C41.5782 36.6249 42.0536 36.4181 42.4041 36.0501C42.7546 35.682 42.9515 35.1829 42.9515 34.6624V22.8874L37.3447 16.9999Z" stroke="#287112" stroke-width="1.19612" stroke-linecap="round" stroke-linejoin="round"/>
<path d="M37.3446 16.9999V22.8864H42.9514" stroke="#287112" stroke-width="1.19612" stroke-linecap="round" stroke-linejoin="round"/>
<path d="M39.2136 27.7936H31.7378" stroke="#287112" stroke-width="1.19612" stroke-linecap="round" stroke-linejoin="round"/>
<path d="M39.2136 31.7186H31.7378" stroke="#287112" stroke-width="1.19612" stroke-linecap="round" stroke-linejoin="round"/>
<path d="M33.6068 23.8687H32.6723H31.7378" stroke="#287112" stroke-width="1.19612" stroke-linecap="round" stroke-linejoin="round"/>
</svg>
