<svg width="78" height="58" viewBox="0 0 78 58" fill="none" xmlns="http://www.w3.org/2000/svg">
<path d="M0 0H50.7C65.7774 0 78 12.2226 78 27.3V57.2H30.55C13.6777 57.2 0 43.5223 0 26.65V0Z" fill="#6DF843"/>
<path d="M45.7255 42.1208V39.663C45.7255 38.3592 45.2323 37.1089 44.3544 36.187C43.4764 35.2651 42.2857 34.7472 41.0441 34.7472H31.6814C30.4398 34.7472 29.2491 35.2651 28.3711 36.187C27.4932 37.1089 27 38.3592 27 39.663V42.1208" stroke="#287112" stroke-width="1.51456" stroke-linecap="round" stroke-linejoin="round"/>
<path d="M36.3628 29.8315C38.9482 29.8315 41.0442 27.6307 41.0442 24.9158C41.0442 22.2009 38.9482 20.0001 36.3628 20.0001C33.7773 20.0001 31.6814 22.2009 31.6814 24.9158C31.6814 27.6307 33.7773 29.8315 36.3628 29.8315Z" stroke="#287112" stroke-width="1.51456" stroke-linecap="round" stroke-linejoin="round"/>
<path d="M52.7475 42.1209V39.663C52.7468 38.5738 52.4015 37.5158 51.7661 36.6549C51.1306 35.7941 50.2408 35.1793 49.2365 34.907" stroke="#287112" stroke-width="1.51456" stroke-linecap="round" stroke-linejoin="round"/>
<path d="M44.5552 20.1598C45.5622 20.4306 46.4547 21.0455 47.0921 21.9078C47.7294 22.77 48.0754 23.8305 48.0754 24.922C48.0754 26.0135 47.7294 27.0739 47.0921 27.9361C46.4547 28.7984 45.5622 29.4133 44.5552 29.6841" stroke="#287112" stroke-width="1.51456" stroke-linecap="round" stroke-linejoin="round"/>
</svg>
