<svg width="40" height="40" viewBox="0 0 53 53" fill="none" xmlns="http://www.w3.org/2000/svg">
<g filter="url(#filter0_d_47_35)">
<rect x="1.5433" width="49" height="49" rx="24.5" fill="none" shape-rendering="crispEdges"/>
<path d="M34.6312 14.9395C36.3834 14.9395 37.8128 16.3689 37.8128 18.1211V30.8467C37.8126 32.5987 36.3832 34.0273 34.6312 34.0273H17.6644C15.9124 34.0273 14.483 32.5987 14.4828 30.8467V18.1211C14.4828 16.3689 15.9122 14.9395 17.6644 14.9395H34.6312Z" stroke="#ffffff" stroke-width="2.1209" stroke-linecap="round" stroke-linejoin="round"/>
<mask id="path-3-outside-1_47_35" maskUnits="userSpaceOnUse" x="12.5433" y="15.1206" width="27" height="13" fill="black">
<rect fill="white" x="12.5433" y="15.1206" width="27" height="13"/>
<path d="M36.7523 18.1206L26.1478 25.5437L15.5433 18.1206"/>
</mask>
<path d="M37.9685 19.8581C38.9281 19.1864 39.1615 17.8639 38.4898 16.9044C37.8181 15.9448 36.4956 15.7114 35.536 16.3831L36.7523 18.1206L37.9685 19.8581ZM26.1478 25.5437L24.9315 27.2812C25.6618 27.7924 26.6338 27.7924 27.3641 27.2812L26.1478 25.5437ZM16.7596 16.3831C15.8 15.7114 14.4775 15.9448 13.8058 16.9044C13.1341 17.8639 13.3675 19.1864 14.3271 19.8581L15.5433 18.1206L16.7596 16.3831ZM36.7523 18.1206L35.536 16.3831L24.9315 23.8062L26.1478 25.5437L27.3641 27.2812L37.9685 19.8581L36.7523 18.1206ZM26.1478 25.5437L27.3641 23.8062L16.7596 16.3831L15.5433 18.1206L14.3271 19.8581L24.9315 27.2812L26.1478 25.5437Z" fill="#ffffff" mask="url(#path-3-outside-1_47_35)"/>
</g>
<defs>
<filter id="filter0_d_47_35" x="-2.6226e-06" y="0" width="52.0866" height="52.0866" filterUnits="userSpaceOnUse" color-interpolation-filters="sRGB">
<feFlood flood-opacity="0" result="BackgroundImageFix"/>
<feColorMatrix in="SourceAlpha" type="matrix" values="0 0 0 0 0 0 0 0 0 0 0 0 0 0 0 0 0 0 127 0" result="hardAlpha"/>
<feOffset dy="1.54331"/>
<feGaussianBlur stdDeviation="0.771654"/>
<feComposite in2="hardAlpha" operator="out"/>
<feColorMatrix type="matrix" values="0 0 0 0 0 0 0 0 0 0 0 0 0 0 0 0 0 0 0.25 0"/>
<feBlend mode="normal" in2="BackgroundImageFix" result="effect1_dropShadow_47_35"/>
<feBlend mode="normal" in="SourceGraphic" in2="effect1_dropShadow_47_35" result="shape"/>
</filter>
</defs>
</svg>
