<svg width="20" height="20" viewBox="0 0 143 124" fill="none" xmlns="http://www.w3.org/2000/svg">
<g clip-path="url(#clip0_55_41)">
<g filter="url(#filter0_d_55_41)">
<path d="M73.5867 24.1608H111.081" stroke="white" stroke-width="9.37358" stroke-linecap="round" stroke-linejoin="round"/>
<path d="M106.394 80.0287V94.0891C106.399 95.3943 106.132 96.6862 105.609 97.8823C105.086 99.0785 104.319 100.152 103.358 101.034C102.396 101.917 101.26 102.588 100.024 103.007C98.7869 103.425 97.4771 103.58 96.1771 103.463C81.755 101.896 67.9014 96.9674 55.73 89.0742C44.4058 81.8785 34.805 72.2777 27.6093 60.9535C19.6886 48.7266 14.7593 34.8058 13.2208 20.319C13.1037 19.023 13.2575 17.7168 13.6732 16.4835C14.0884 15.2501 14.7558 14.1171 15.6335 13.1558C16.5108 12.1945 17.5785 11.4268 18.7691 10.9011C19.9591 10.3753 21.2459 10.1033 22.5475 10.1018H36.6079C38.8825 10.0794 41.0874 10.8848 42.8118 12.3682C44.5367 13.8512 45.6631 15.9108 45.9815 18.1631C46.575 22.6629 47.6754 27.0807 49.2623 31.3329C49.8929 33.0105 50.029 34.8338 49.6555 36.5862C49.2816 38.3392 48.413 39.948 47.1532 41.2221L41.201 47.1743C47.8725 58.9081 57.5879 68.623 69.3217 75.2951L75.274 69.3428C76.5481 68.083 78.1568 67.2144 79.9098 66.8405C81.6623 66.4666 83.4855 66.6031 85.1631 67.2338C89.4153 68.8207 93.8331 69.921 98.333 70.5145C100.61 70.836 102.689 71.9827 104.175 73.7367C105.661 75.4912 106.451 77.7302 106.394 80.0287Z" stroke="white" stroke-width="9.37358" stroke-linecap="round" stroke-linejoin="round"/>
<path d="M111.606 5.41498L130.353 24.1622L111.606 42.9093" stroke="white" stroke-width="9.37358" stroke-linecap="round" stroke-linejoin="round"/>
</g>
</g>
<defs>
<filter id="filter0_d_55_41" x="0.633836" y="0.72821" width="142.268" height="123.184" filterUnits="userSpaceOnUse" color-interpolation-filters="sRGB">
<feFlood flood-opacity="0" result="BackgroundImageFix"/>
<feColorMatrix in="SourceAlpha" type="matrix" values="0 0 0 0 0 0 0 0 0 0 0 0 0 0 0 0 0 0 127 0" result="hardAlpha"/>
<feOffset dy="7.86215"/>
<feGaussianBlur stdDeviation="3.93107"/>
<feComposite in2="hardAlpha" operator="out"/>
<feColorMatrix type="matrix" values="0 0 0 0 0 0 0 0 0 0 0 0 0 0 0 0 0 0 0.25 0"/>
<feBlend mode="normal" in2="BackgroundImageFix" result="effect1_dropShadow_55_41"/>
<feBlend mode="normal" in="SourceGraphic" in2="effect1_dropShadow_55_41" result="shape"/>
</filter>
<clipPath id="clip0_55_41">
<rect width="143" height="124" fill="white"/>
</clipPath>
</defs>
</svg>
