<svg width="40" height="40" viewBox="0 0 57 57" fill="none" xmlns="http://www.w3.org/2000/svg">
<path d="M28.2373 18.8817C23.0632 18.8817 18.8898 23.0551 18.8898 28.2291C18.8898 33.4032 23.0632 37.5766 28.2373 37.5766C33.4113 37.5766 37.5847 33.4032 37.5847 28.2291C37.5847 23.0551 33.4113 18.8817 28.2373 18.8817ZM28.2373 34.3062C24.8937 34.3062 22.1602 31.5809 22.1602 28.2291C22.1602 24.8774 24.8855 22.1521 28.2373 22.1521C31.589 22.1521 34.3143 24.8774 34.3143 28.2291C34.3143 31.5809 31.5809 34.3062 28.2373 34.3062ZM40.1473 18.4993C40.1473 19.7115 39.1711 20.6796 37.9671 20.6796C36.7549 20.6796 35.7868 19.7034 35.7868 18.4993C35.7868 17.2953 36.7631 16.3191 37.9671 16.3191C39.1711 16.3191 40.1473 17.2953 40.1473 18.4993ZM46.3383 20.7121C46.2 17.7916 45.5329 15.2045 43.3933 13.0731C41.2619 10.9417 38.6749 10.2746 35.7543 10.1281C32.7442 9.95729 23.7222 9.95729 20.7121 10.1281C17.7997 10.2664 15.2127 10.9335 13.0731 13.065C10.9335 15.1964 10.2746 17.7834 10.1281 20.704C9.95729 23.7141 9.95729 32.7361 10.1281 35.7461C10.2664 38.6667 10.9335 41.2537 13.0731 43.3852C15.2127 45.5166 17.7916 46.1837 20.7121 46.3302C23.7222 46.501 32.7442 46.501 35.7543 46.3302C38.6749 46.1919 41.2619 45.5248 43.3933 43.3852C45.5248 41.2537 46.1919 38.6667 46.3383 35.7461C46.5091 32.7361 46.5091 23.7222 46.3383 20.7121ZM42.4496 38.9759C41.8151 40.5704 40.5866 41.7988 38.984 42.4415C36.5841 43.3933 30.8894 43.1737 28.2373 43.1737C25.5852 43.1737 19.8823 43.3852 17.4906 42.4415C15.896 41.8069 14.6676 40.5785 14.0249 38.9759C13.0731 36.5759 13.2928 30.8812 13.2928 28.2291C13.2928 25.577 13.0812 19.8742 14.0249 17.4824C14.6595 15.8879 15.8879 14.6595 17.4906 14.0168C19.8905 13.065 25.5852 13.2846 28.2373 13.2846C30.8894 13.2846 36.5922 13.0731 38.984 14.0168C40.5785 14.6513 41.8069 15.8798 42.4496 17.4824C43.4015 19.8823 43.1818 25.577 43.1818 28.2291C43.1818 30.8812 43.4015 36.5841 42.4496 38.9759Z" fill="#287112"/>
</svg>
