<svg width="40" height="40" viewBox="0 0 57 57" fill="none" xmlns="http://www.w3.org/2000/svg">
<path d="M43.8428 10H12.5952C11.1633 10 10 11.1796 10 12.6277V43.8184C10 45.2665 11.1633 46.4461 12.5952 46.4461H43.8428C45.2746 46.4461 46.4461 45.2665 46.4461 43.8184V12.6277C46.4461 11.1796 45.2746 10 43.8428 10ZM21.0152 41.2395H15.6133V23.8463H21.0233V41.2395H21.0152ZM18.3143 21.4708C16.5814 21.4708 15.1822 20.0633 15.1822 18.3387C15.1822 16.614 16.5814 15.2066 18.3143 15.2066C20.0389 15.2066 21.4463 16.614 21.4463 18.3387C21.4463 20.0715 20.0471 21.4708 18.3143 21.4708ZM41.2639 41.2395H35.8621V32.7788C35.8621 30.7613 35.8214 28.1661 33.0554 28.1661C30.2406 28.1661 29.8094 30.3626 29.8094 32.6324V41.2395H24.4076V23.8463H29.5898V26.2218H29.663C30.387 24.855 32.1524 23.4151 34.7801 23.4151C40.247 23.4151 41.2639 27.019 41.2639 31.7049V41.2395Z" fill="#287112"/>
</svg>
