<svg width="71" height="89" viewBox="0 0 71 89" fill="none" xmlns="http://www.w3.org/2000/svg">
<rect width="70.6122" height="88.1364" fill="white"/>
<path d="M13.9163 37.8832V79.1166C13.9163 79.1166 10.6743 81.0075 8.76209 82.4668C6.84991 83.9261 4.12334 86.5901 4.12334 86.5901L14.6894 81.436C14.6894 81.436 27.5887 75.6672 34.533 73.7047C41.4772 71.7422 50.2532 71.3853 50.2532 71.3853C50.2532 71.3853 53.7529 71.7056 55.6651 72.1585C57.5773 72.6113 60.0461 73.7047 60.0461 73.7047C60.0461 73.7047 61.3408 74.0569 61.5924 73.7047C61.844 73.3525 61.3347 72.4162 61.3347 72.4162C61.3347 72.4162 60.4746 70.7509 59.0153 70.0968C57.556 69.4426 54.1188 68.5505 54.1188 68.5505L53.8611 17.5242H50.2532V43.0374L45.6144 47.6761V24.9978H41.7488V52.8303L36.0792 59.7884V28.8634H31.6982V59.7884L27.3171 54.3765V33.2444H22.6784V47.6761L18.555 43.0374V37.8832H13.9163Z" fill="#6C920E" stroke="black" stroke-width="1.5"/>
<path d="M2.57506 60.8193L2.06167 63.3963C30.2108 45.0321 43.9987 32.8012 64.4393 6.95813L66.7496 8.50438L67.5197 1.54625L61.1022 3.86563L62.6424 5.41188C41.4099 31.0088 28.3102 43.2417 2.57506 60.8193Z" fill="black" stroke="black" stroke-width="2"/>
<path d="M18.2973 52.0572V76.7972C24.0501 74.0007 27.3244 72.7701 33.2444 71.1276L18.2973 52.0572Z" fill="white" stroke="black" stroke-width="1.5"/>
<path d="M49.7378 51.5418L35.0484 70.6122C35.0484 70.6122 40.4268 69.4685 43.2951 69.0659C46.1634 68.6634 49.7378 68.5505 49.7378 68.5505V51.5418Z" fill="white" stroke="black" stroke-width="1.5"/>
</svg>
