<svg width="672" height="672" viewBox="0 0 672 672" fill="none" xmlns="http://www.w3.org/2000/svg">
<rect width="672" height="672" fill="white"/>
<path d="M174.91 292.792V607.944C174.91 607.944 150.132 622.396 135.516 633.55C120.901 644.703 100.062 665.065 100.062 665.065L180.82 625.671C180.82 625.671 279.41 581.58 332.486 566.58C385.562 551.58 452.638 548.853 452.638 548.853C452.638 548.853 479.386 551.3 494.001 554.762C508.616 558.223 527.486 566.58 527.486 566.58C527.486 566.58 537.381 569.272 539.304 566.58C541.227 563.888 537.335 556.732 537.335 556.732C537.335 556.732 530.761 544.004 519.607 539.004C508.454 534.004 482.183 527.186 482.183 527.186L480.213 137.186H452.638V332.186L417.183 367.641V194.307H387.638V407.035L344.304 460.216V223.853H310.82V460.216L277.335 418.853V257.338H241.88V367.641L210.365 332.186V292.792H174.91Z" fill="#71980E" stroke="black" stroke-width="7.64311"/>
<path d="M88.2284 468.095L84.3045 487.792C299.451 347.432 404.834 253.95 561.064 56.4286L578.722 68.2468L584.607 15.0649L535.558 32.7922L547.33 44.6104C385.047 240.251 284.925 333.748 88.2284 468.095Z" fill="black" stroke="black" stroke-width="15.2862"/>
<path d="M208.395 401.125V590.216C252.364 568.843 277.39 559.437 322.638 546.883L208.395 401.125Z" fill="white" stroke="black" stroke-width="7.64311"/>
<path d="M448.698 397.186L336.426 542.944C336.426 542.944 377.533 534.202 399.456 531.126C421.378 528.049 448.698 527.186 448.698 527.186V397.186Z" fill="white" stroke="black" stroke-width="7.64311"/>
</svg>
