<svg width="567" height="197" viewBox="0 0 567 197" fill="none" xmlns="http://www.w3.org/2000/svg">
<path d="M38.1343 85.5966V177.73C38.1343 177.73 30.8903 181.955 26.6177 185.216C22.345 188.476 16.2527 194.429 16.2527 194.429L39.8618 182.912C39.8618 182.912 68.6845 170.022 84.201 165.637C99.7174 161.252 119.327 160.455 119.327 160.455C119.327 160.455 127.147 161.17 131.419 162.182C135.692 163.194 141.208 165.637 141.208 165.637C141.208 165.637 144.101 166.424 144.663 165.637C145.226 164.85 144.088 162.758 144.088 162.758C144.088 162.758 142.166 159.037 138.905 157.576C135.644 156.114 127.964 154.121 127.964 154.121L127.388 40.1058H119.327V97.1133L108.962 107.478V56.805H100.324V118.995L87.6559 134.542V65.4425H77.8668V134.542L68.0776 122.45V75.2316H57.7126V107.478L48.4993 97.1133V85.5966H38.1343Z" fill="#71980E" stroke="black" stroke-width="2.23443"/>
<path d="M12.7931 136.846L11.646 142.604C74.5432 101.57 105.351 74.2412 151.025 16.4966L156.187 19.9516L157.907 4.40411L143.568 9.58661L147.01 13.0416C99.5669 70.2362 70.2965 97.5698 12.7931 136.846Z" fill="black" stroke="black" stroke-width="4.46886"/>
<path d="M48.9234 117.267V172.547C61.7776 166.299 69.0938 163.549 82.3217 159.879L48.9234 117.267Z" fill="white" stroke="black" stroke-width="2.23443"/>
<path d="M119.175 116.116L86.3526 158.727C86.3526 158.727 98.3703 156.172 104.779 155.272C111.188 154.373 119.175 154.121 119.175 154.121V116.116Z" fill="white" stroke="black" stroke-width="2.23443"/>
<mask id="path-5-outside-1_50_2" maskUnits="userSpaceOnUse" x="146.33" y="79.427" width="413" height="47" fill="black">
<rect fill="white" x="146.33" y="79.427" width="413" height="47"/>
<path d="M148.017 82.0017H159.079L170.763 110.506H171.26L182.943 82.0017H194.005V124.427H185.305V96.8132H184.953L173.974 124.22H168.049L157.07 96.7097H156.718V124.427H148.017V82.0017ZM210.366 82.0017V124.427H201.396V82.0017H210.366ZM232.785 124.427H217.745V82.0017H232.909C237.177 82.0017 240.85 82.851 243.93 84.5497C247.01 86.2345 249.378 88.6582 251.035 91.8208C252.706 94.9834 253.542 98.7674 253.542 103.173C253.542 107.592 252.706 111.39 251.035 114.566C249.378 117.743 246.996 120.18 243.888 121.879C240.795 123.578 237.094 124.427 232.785 124.427ZM226.715 116.742H232.412C235.064 116.742 237.294 116.272 239.103 115.333C240.926 114.38 242.293 112.909 243.205 110.92C244.13 108.918 244.593 106.335 244.593 103.173C244.593 100.038 244.13 97.4761 243.205 95.4874C242.293 93.4988 240.933 92.0349 239.124 91.0958C237.315 90.1567 235.084 89.6871 232.433 89.6871H226.715V116.742ZM265.106 124.427H255.494L270.14 82.0017H281.699L296.325 124.427H286.713L276.085 91.6965H275.754L265.106 124.427ZM264.506 107.751H287.21V114.753H264.506V107.751ZM323.477 94.2031C323.312 92.532 322.6 91.2339 321.344 90.3086C320.087 89.3833 318.381 88.9206 316.227 88.9206C314.763 88.9206 313.527 89.1278 312.519 89.5421C311.511 89.9426 310.737 90.5019 310.199 91.2201C309.674 91.9382 309.412 92.753 309.412 93.6645C309.384 94.4241 309.543 95.0869 309.888 95.6532C310.247 96.2194 310.737 96.7097 311.359 97.124C311.98 97.5245 312.698 97.8766 313.513 98.1805C314.328 98.4705 315.198 98.7191 316.123 98.9262L319.935 99.8377C321.786 100.252 323.484 100.804 325.031 101.495C326.578 102.185 327.917 103.035 329.05 104.043C330.182 105.051 331.059 106.239 331.681 107.606C332.316 108.973 332.641 110.541 332.654 112.308C332.641 114.905 331.978 117.156 330.666 119.062C329.367 120.954 327.489 122.425 325.031 123.474C322.587 124.51 319.638 125.028 316.185 125.028C312.761 125.028 309.777 124.503 307.236 123.453C304.709 122.404 302.734 120.85 301.312 118.792C299.903 116.721 299.164 114.159 299.095 111.107H307.775C307.872 112.529 308.279 113.717 308.997 114.67C309.729 115.609 310.703 116.32 311.918 116.804C313.147 117.273 314.535 117.508 316.082 117.508C317.601 117.508 318.92 117.287 320.039 116.845C321.171 116.403 322.048 115.789 322.669 115.001C323.291 114.214 323.602 113.31 323.602 112.288C323.602 111.335 323.319 110.534 322.752 109.885C322.2 109.236 321.385 108.683 320.308 108.227C319.244 107.772 317.939 107.357 316.393 106.985L311.773 105.824C308.196 104.954 305.372 103.594 303.3 101.744C301.229 99.8929 300.2 97.4002 300.214 94.2652C300.2 91.6965 300.884 89.4523 302.265 87.5327C303.66 85.6131 305.572 84.1146 308.003 83.0374C310.433 81.9602 313.196 81.4216 316.289 81.4216C319.438 81.4216 322.186 81.9602 324.534 83.0374C326.895 84.1146 328.732 85.6131 330.044 87.5327C331.356 89.4523 332.033 91.6758 332.074 94.2031H323.477ZM350.573 89.3971V82.0017H385.417V89.3971H372.428V124.427H363.562V89.3971H350.573ZM428.205 103.214C428.205 107.841 427.328 111.777 425.574 115.022C423.834 118.268 421.458 120.747 418.448 122.459C415.451 124.158 412.081 125.007 408.338 125.007C404.568 125.007 401.185 124.151 398.188 122.438C395.191 120.726 392.822 118.247 391.082 115.001C389.342 111.756 388.472 107.827 388.472 103.214C388.472 98.5879 389.342 94.6519 391.082 91.4065C392.822 88.1611 395.191 85.689 398.188 83.9903C401.185 82.2779 404.568 81.4216 408.338 81.4216C412.081 81.4216 415.451 82.2779 418.448 83.9903C421.458 85.689 423.834 88.1611 425.574 91.4065C427.328 94.6519 428.205 98.5879 428.205 103.214ZM419.11 103.214C419.11 100.217 418.662 97.6902 417.764 95.6325C416.88 93.5747 415.63 92.0142 414.014 90.9508C412.399 89.8874 410.507 89.3557 408.338 89.3557C406.17 89.3557 404.278 89.8874 402.662 90.9508C401.047 92.0142 399.79 93.5747 398.892 95.6325C398.008 97.6902 397.566 100.217 397.566 103.214C397.566 106.211 398.008 108.738 398.892 110.796C399.79 112.854 401.047 114.415 402.662 115.478C404.278 116.541 406.17 117.073 408.338 117.073C410.507 117.073 412.399 116.541 414.014 115.478C415.63 114.415 416.88 112.854 417.764 110.796C418.662 108.738 419.11 106.211 419.11 103.214ZM461.054 82.0017H470.024V109.553C470.024 112.647 469.285 115.354 467.807 117.674C466.344 119.994 464.293 121.803 461.655 123.101C459.017 124.386 455.944 125.028 452.437 125.028C448.915 125.028 445.835 124.386 443.197 123.101C440.56 121.803 438.509 119.994 437.045 117.674C435.581 115.354 434.849 112.647 434.849 109.553V82.0017H443.819V108.787C443.819 110.403 444.171 111.839 444.875 113.096C445.593 114.352 446.602 115.34 447.9 116.058C449.198 116.776 450.71 117.135 452.437 117.135C454.177 117.135 455.689 116.776 456.973 116.058C458.271 115.34 459.273 114.352 459.977 113.096C460.695 111.839 461.054 110.403 461.054 108.787V82.0017ZM514.837 96.8547H505.763C505.598 95.6808 505.259 94.6381 504.748 93.7266C504.237 92.8013 503.581 92.0141 502.78 91.3651C501.979 90.716 501.054 90.2188 500.004 89.8735C498.969 89.5283 497.843 89.3557 496.628 89.3557C494.432 89.3557 492.519 89.9012 490.89 90.9922C489.26 92.0694 487.996 93.6438 487.099 95.7153C486.201 97.7731 485.752 100.273 485.752 103.214C485.752 106.239 486.201 108.78 487.099 110.838C488.01 112.895 489.281 114.449 490.91 115.499C492.54 116.548 494.425 117.073 496.566 117.073C497.767 117.073 498.879 116.914 499.901 116.597C500.937 116.279 501.855 115.816 502.656 115.209C503.457 114.587 504.12 113.834 504.645 112.951C505.183 112.067 505.556 111.059 505.763 109.926L514.837 109.968C514.602 111.915 514.015 113.793 513.076 115.602C512.151 117.398 510.901 119.006 509.326 120.429C507.766 121.838 505.902 122.956 503.733 123.785C501.579 124.6 499.141 125.007 496.421 125.007C492.637 125.007 489.253 124.151 486.27 122.438C483.301 120.726 480.953 118.247 479.227 115.001C477.514 111.756 476.658 107.827 476.658 103.214C476.658 98.5879 477.528 94.6519 479.268 91.4065C481.008 88.1611 483.37 85.689 486.353 83.9903C489.336 82.2779 492.692 81.4216 496.421 81.4216C498.879 81.4216 501.158 81.7669 503.257 82.4574C505.37 83.1479 507.241 84.1561 508.871 85.4819C510.5 86.7938 511.826 88.4027 512.848 90.3086C513.884 92.2144 514.547 94.3964 514.837 96.8547ZM521.269 124.427V82.0017H530.239V99.5063H548.448V82.0017H557.397V124.427H548.448V106.902H530.239V124.427H521.269Z"/>
</mask>
<path d="M148.017 82.0017H159.079L170.763 110.506H171.26L182.943 82.0017H194.005V124.427H185.305V96.8132H184.953L173.974 124.22H168.049L157.07 96.7097H156.718V124.427H148.017V82.0017ZM210.366 82.0017V124.427H201.396V82.0017H210.366ZM232.785 124.427H217.745V82.0017H232.909C237.177 82.0017 240.85 82.851 243.93 84.5497C247.01 86.2345 249.378 88.6582 251.035 91.8208C252.706 94.9834 253.542 98.7674 253.542 103.173C253.542 107.592 252.706 111.39 251.035 114.566C249.378 117.743 246.996 120.18 243.888 121.879C240.795 123.578 237.094 124.427 232.785 124.427ZM226.715 116.742H232.412C235.064 116.742 237.294 116.272 239.103 115.333C240.926 114.38 242.293 112.909 243.205 110.92C244.13 108.918 244.593 106.335 244.593 103.173C244.593 100.038 244.13 97.4761 243.205 95.4874C242.293 93.4988 240.933 92.0349 239.124 91.0958C237.315 90.1567 235.084 89.6871 232.433 89.6871H226.715V116.742ZM265.106 124.427H255.494L270.14 82.0017H281.699L296.325 124.427H286.713L276.085 91.6965H275.754L265.106 124.427ZM264.506 107.751H287.21V114.753H264.506V107.751ZM323.477 94.2031C323.312 92.532 322.6 91.2339 321.344 90.3086C320.087 89.3833 318.381 88.9206 316.227 88.9206C314.763 88.9206 313.527 89.1278 312.519 89.5421C311.511 89.9426 310.737 90.5019 310.199 91.2201C309.674 91.9382 309.412 92.753 309.412 93.6645C309.384 94.4241 309.543 95.0869 309.888 95.6532C310.247 96.2194 310.737 96.7097 311.359 97.124C311.98 97.5245 312.698 97.8766 313.513 98.1805C314.328 98.4705 315.198 98.7191 316.123 98.9262L319.935 99.8377C321.786 100.252 323.484 100.804 325.031 101.495C326.578 102.185 327.917 103.035 329.05 104.043C330.182 105.051 331.059 106.239 331.681 107.606C332.316 108.973 332.641 110.541 332.654 112.308C332.641 114.905 331.978 117.156 330.666 119.062C329.367 120.954 327.489 122.425 325.031 123.474C322.587 124.51 319.638 125.028 316.185 125.028C312.761 125.028 309.777 124.503 307.236 123.453C304.709 122.404 302.734 120.85 301.312 118.792C299.903 116.721 299.164 114.159 299.095 111.107H307.775C307.872 112.529 308.279 113.717 308.997 114.67C309.729 115.609 310.703 116.32 311.918 116.804C313.147 117.273 314.535 117.508 316.082 117.508C317.601 117.508 318.92 117.287 320.039 116.845C321.171 116.403 322.048 115.789 322.669 115.001C323.291 114.214 323.602 113.31 323.602 112.288C323.602 111.335 323.319 110.534 322.752 109.885C322.2 109.236 321.385 108.683 320.308 108.227C319.244 107.772 317.939 107.357 316.393 106.985L311.773 105.824C308.196 104.954 305.372 103.594 303.3 101.744C301.229 99.8929 300.2 97.4002 300.214 94.2652C300.2 91.6965 300.884 89.4523 302.265 87.5327C303.66 85.6131 305.572 84.1146 308.003 83.0374C310.433 81.9602 313.196 81.4216 316.289 81.4216C319.438 81.4216 322.186 81.9602 324.534 83.0374C326.895 84.1146 328.732 85.6131 330.044 87.5327C331.356 89.4523 332.033 91.6758 332.074 94.2031H323.477ZM350.573 89.3971V82.0017H385.417V89.3971H372.428V124.427H363.562V89.3971H350.573ZM428.205 103.214C428.205 107.841 427.328 111.777 425.574 115.022C423.834 118.268 421.458 120.747 418.448 122.459C415.451 124.158 412.081 125.007 408.338 125.007C404.568 125.007 401.185 124.151 398.188 122.438C395.191 120.726 392.822 118.247 391.082 115.001C389.342 111.756 388.472 107.827 388.472 103.214C388.472 98.5879 389.342 94.6519 391.082 91.4065C392.822 88.1611 395.191 85.689 398.188 83.9903C401.185 82.2779 404.568 81.4216 408.338 81.4216C412.081 81.4216 415.451 82.2779 418.448 83.9903C421.458 85.689 423.834 88.1611 425.574 91.4065C427.328 94.6519 428.205 98.5879 428.205 103.214ZM419.11 103.214C419.11 100.217 418.662 97.6902 417.764 95.6325C416.88 93.5747 415.63 92.0142 414.014 90.9508C412.399 89.8874 410.507 89.3557 408.338 89.3557C406.17 89.3557 404.278 89.8874 402.662 90.9508C401.047 92.0142 399.79 93.5747 398.892 95.6325C398.008 97.6902 397.566 100.217 397.566 103.214C397.566 106.211 398.008 108.738 398.892 110.796C399.79 112.854 401.047 114.415 402.662 115.478C404.278 116.541 406.17 117.073 408.338 117.073C410.507 117.073 412.399 116.541 414.014 115.478C415.63 114.415 416.88 112.854 417.764 110.796C418.662 108.738 419.11 106.211 419.11 103.214ZM461.054 82.0017H470.024V109.553C470.024 112.647 469.285 115.354 467.807 117.674C466.344 119.994 464.293 121.803 461.655 123.101C459.017 124.386 455.944 125.028 452.437 125.028C448.915 125.028 445.835 124.386 443.197 123.101C440.56 121.803 438.509 119.994 437.045 117.674C435.581 115.354 434.849 112.647 434.849 109.553V82.0017H443.819V108.787C443.819 110.403 444.171 111.839 444.875 113.096C445.593 114.352 446.602 115.34 447.9 116.058C449.198 116.776 450.71 117.135 452.437 117.135C454.177 117.135 455.689 116.776 456.973 116.058C458.271 115.34 459.273 114.352 459.977 113.096C460.695 111.839 461.054 110.403 461.054 108.787V82.0017ZM514.837 96.8547H505.763C505.598 95.6808 505.259 94.6381 504.748 93.7266C504.237 92.8013 503.581 92.0141 502.78 91.3651C501.979 90.716 501.054 90.2188 500.004 89.8735C498.969 89.5283 497.843 89.3557 496.628 89.3557C494.432 89.3557 492.519 89.9012 490.89 90.9922C489.26 92.0694 487.996 93.6438 487.099 95.7153C486.201 97.7731 485.752 100.273 485.752 103.214C485.752 106.239 486.201 108.78 487.099 110.838C488.01 112.895 489.281 114.449 490.91 115.499C492.54 116.548 494.425 117.073 496.566 117.073C497.767 117.073 498.879 116.914 499.901 116.597C500.937 116.279 501.855 115.816 502.656 115.209C503.457 114.587 504.12 113.834 504.645 112.951C505.183 112.067 505.556 111.059 505.763 109.926L514.837 109.968C514.602 111.915 514.015 113.793 513.076 115.602C512.151 117.398 510.901 119.006 509.326 120.429C507.766 121.838 505.902 122.956 503.733 123.785C501.579 124.6 499.141 125.007 496.421 125.007C492.637 125.007 489.253 124.151 486.27 122.438C483.301 120.726 480.953 118.247 479.227 115.001C477.514 111.756 476.658 107.827 476.658 103.214C476.658 98.5879 477.528 94.6519 479.268 91.4065C481.008 88.1611 483.37 85.689 486.353 83.9903C489.336 82.2779 492.692 81.4216 496.421 81.4216C498.879 81.4216 501.158 81.7669 503.257 82.4574C505.37 83.1479 507.241 84.1561 508.871 85.4819C510.5 86.7938 511.826 88.4027 512.848 90.3086C513.884 92.2144 514.547 94.3964 514.837 96.8547ZM521.269 124.427V82.0017H530.239V99.5063H548.448V82.0017H557.397V124.427H548.448V106.902H530.239V124.427H521.269Z" fill="black"/>
<path d="M148.017 82.0017V81.0017H147.017V82.0017H148.017ZM159.079 82.0017L160.004 81.6224L159.75 81.0017H159.079V82.0017ZM170.763 110.506L169.837 110.885L170.092 111.506H170.763V110.506ZM171.26 110.506V111.506H171.931L172.185 110.885L171.26 110.506ZM182.943 82.0017V81.0017H182.273L182.018 81.6224L182.943 82.0017ZM194.005 82.0017H195.005V81.0017H194.005V82.0017ZM194.005 124.427V125.427H195.005V124.427H194.005ZM185.305 124.427H184.305V125.427H185.305V124.427ZM185.305 96.8132H186.305V95.8132H185.305V96.8132ZM184.953 96.8132V95.8132H184.276L184.025 96.4414L184.953 96.8132ZM173.974 124.22V125.22H174.65L174.902 124.592L173.974 124.22ZM168.049 124.22L167.12 124.591L167.371 125.22H168.049V124.22ZM157.07 96.7097L157.999 96.339L157.747 95.7097H157.07V96.7097ZM156.718 96.7097V95.7097H155.718V96.7097H156.718ZM156.718 124.427V125.427H157.718V124.427H156.718ZM148.017 124.427H147.017V125.427H148.017V124.427ZM148.017 82.0017V83.0017H159.079V82.0017V81.0017H148.017V82.0017ZM159.079 82.0017L158.154 82.3809L169.837 110.885L170.763 110.506L171.688 110.127L160.004 81.6224L159.079 82.0017ZM170.763 110.506V111.506H171.26V110.506V109.506H170.763V110.506ZM171.26 110.506L172.185 110.885L183.869 82.3809L182.943 82.0017L182.018 81.6224L170.335 110.127L171.26 110.506ZM182.943 82.0017V83.0017H194.005V82.0017V81.0017H182.943V82.0017ZM194.005 82.0017H193.005V124.427H194.005H195.005V82.0017H194.005ZM194.005 124.427V123.427H185.305V124.427V125.427H194.005V124.427ZM185.305 124.427H186.305V96.8132H185.305H184.305V124.427H185.305ZM185.305 96.8132V95.8132H184.953V96.8132V97.8132H185.305V96.8132ZM184.953 96.8132L184.025 96.4414L173.045 123.848L173.974 124.22L174.902 124.592L185.881 97.1851L184.953 96.8132ZM173.974 124.22V123.22H168.049V124.22V125.22H173.974V124.22ZM168.049 124.22L168.978 123.849L157.999 96.339L157.07 96.7097L156.141 97.0803L167.12 124.591L168.049 124.22ZM157.07 96.7097V95.7097H156.718V96.7097V97.7097H157.07V96.7097ZM156.718 96.7097H155.718V124.427H156.718H157.718V96.7097H156.718ZM156.718 124.427V123.427H148.017V124.427V125.427H156.718V124.427ZM148.017 124.427H149.017V82.0017H148.017H147.017V124.427H148.017ZM210.366 82.0017H211.366V81.0017H210.366V82.0017ZM210.366 124.427V125.427H211.366V124.427H210.366ZM201.396 124.427H200.396V125.427H201.396V124.427ZM201.396 82.0017V81.0017H200.396V82.0017H201.396ZM210.366 82.0017H209.366V124.427H210.366H211.366V82.0017H210.366ZM210.366 124.427V123.427H201.396V124.427V125.427H210.366V124.427ZM201.396 124.427H202.396V82.0017H201.396H200.396V124.427H201.396ZM201.396 82.0017V83.0017H210.366V82.0017V81.0017H201.396V82.0017ZM217.745 124.427H216.745V125.427H217.745V124.427ZM217.745 82.0017V81.0017H216.745V82.0017H217.745ZM243.93 84.5497L243.447 85.4253L243.45 85.427L243.93 84.5497ZM251.035 91.8208L250.149 92.285L250.151 92.288L251.035 91.8208ZM251.035 114.566L250.15 114.101L250.149 114.104L251.035 114.566ZM243.888 121.879L243.409 121.002L243.407 121.002L243.888 121.879ZM226.715 116.742H225.715V117.742H226.715V116.742ZM239.103 115.333L239.564 116.22L239.566 116.219L239.103 115.333ZM243.205 110.92L242.297 110.501L242.296 110.504L243.205 110.92ZM243.205 95.4874L242.296 95.9041L242.298 95.9093L243.205 95.4874ZM239.124 91.0958L239.585 90.2082V90.2082L239.124 91.0958ZM226.715 89.6871V88.6871H225.715V89.6871H226.715ZM232.785 124.427V123.427H217.745V124.427V125.427H232.785V124.427ZM217.745 124.427H218.745V82.0017H217.745H216.745V124.427H217.745ZM217.745 82.0017V83.0017H232.909V82.0017V81.0017H217.745V82.0017ZM232.909 82.0017V83.0017C237.043 83.0017 240.544 83.8239 243.447 85.4253L243.93 84.5497L244.413 83.674C241.157 81.8781 237.31 81.0017 232.909 81.0017V82.0017ZM243.93 84.5497L243.45 85.427C246.353 87.0154 248.582 89.2939 250.149 92.285L251.035 91.8208L251.921 91.3567C250.174 88.0225 247.666 85.4536 244.41 83.6724L243.93 84.5497ZM251.035 91.8208L250.151 92.288C251.73 95.2769 252.542 98.8931 252.542 103.173H253.542H254.542C254.542 98.6417 253.682 94.6898 251.919 91.3536L251.035 91.8208ZM253.542 103.173H252.542C252.542 107.467 251.73 111.098 250.15 114.101L251.035 114.566L251.92 115.032C253.682 111.683 254.542 107.717 254.542 103.173H253.542ZM251.035 114.566L250.149 114.104C248.582 117.107 246.34 119.399 243.409 121.002L243.888 121.879L244.368 122.756C247.651 120.962 250.174 118.379 251.922 115.029L251.035 114.566ZM243.888 121.879L243.407 121.002C240.49 122.604 236.962 123.427 232.785 123.427V124.427V125.427C237.225 125.427 241.099 124.551 244.37 122.756L243.888 121.879ZM226.715 116.742V117.742H232.412V116.742V115.742H226.715V116.742ZM232.412 116.742V117.742C235.177 117.742 237.576 117.252 239.564 116.22L239.103 115.333L238.642 114.445C237.012 115.292 234.95 115.742 232.412 115.742V116.742ZM239.103 115.333L239.566 116.219C241.599 115.157 243.116 113.514 244.114 111.337L243.205 110.92L242.296 110.504C241.47 112.305 240.253 113.603 238.64 114.447L239.103 115.333ZM243.205 110.92L244.113 111.34C245.119 109.162 245.593 106.422 245.593 103.173H244.593H243.593C243.593 106.249 243.141 108.674 242.297 110.501L243.205 110.92ZM244.593 103.173H245.593C245.593 99.9503 245.119 97.2305 244.111 95.0656L243.205 95.4874L242.298 95.9093C243.141 97.7218 243.593 100.126 243.593 103.173H244.593ZM243.205 95.4874L244.114 95.0708C243.117 92.8954 241.606 91.2577 239.585 90.2082L239.124 91.0958L238.663 91.9833C240.26 92.812 241.47 94.1021 242.296 95.9041L243.205 95.4874ZM239.124 91.0958L239.585 90.2082C237.597 89.1764 235.198 88.6871 232.433 88.6871V89.6871V90.6871C234.971 90.6871 237.033 91.1369 238.663 91.9833L239.124 91.0958ZM232.433 89.6871V88.6871H226.715V89.6871V90.6871H232.433V89.6871ZM226.715 89.6871H225.715V116.742H226.715H227.715V89.6871H226.715ZM265.106 124.427V125.427H265.833L266.057 124.736L265.106 124.427ZM255.494 124.427L254.549 124.101L254.091 125.427H255.494V124.427ZM270.14 82.0017V81.0017H269.427L269.195 81.6753L270.14 82.0017ZM281.699 82.0017L282.645 81.6758L282.412 81.0017H281.699V82.0017ZM296.325 124.427V125.427H297.727L297.27 124.101L296.325 124.427ZM286.713 124.427L285.761 124.736L285.986 125.427H286.713V124.427ZM276.085 91.6965L277.037 91.3877L276.812 90.6965H276.085V91.6965ZM275.754 91.6965V90.6965H275.028L274.803 91.3872L275.754 91.6965ZM264.506 107.751V106.751H263.506V107.751H264.506ZM287.21 107.751H288.21V106.751H287.21V107.751ZM287.21 114.753V115.753H288.21V114.753H287.21ZM264.506 114.753H263.506V115.753H264.506V114.753ZM265.106 124.427V123.427H255.494V124.427V125.427H265.106V124.427ZM255.494 124.427L256.44 124.753L271.085 82.328L270.14 82.0017L269.195 81.6753L254.549 124.101L255.494 124.427ZM270.14 82.0017V83.0017H281.699V82.0017V81.0017H270.14V82.0017ZM281.699 82.0017L280.754 82.3276L295.379 124.753L296.325 124.427L297.27 124.101L282.645 81.6758L281.699 82.0017ZM296.325 124.427V123.427H286.713V124.427V125.427H296.325V124.427ZM286.713 124.427L287.664 124.118L277.037 91.3877L276.085 91.6965L275.134 92.0053L285.761 124.736L286.713 124.427ZM276.085 91.6965V90.6965H275.754V91.6965V92.6965H276.085V91.6965ZM275.754 91.6965L274.803 91.3872L264.155 124.118L265.106 124.427L266.057 124.736L276.705 92.0059L275.754 91.6965ZM264.506 107.751V108.751H287.21V107.751V106.751H264.506V107.751ZM287.21 107.751H286.21V114.753H287.21H288.21V107.751H287.21ZM287.21 114.753V113.753H264.506V114.753V115.753H287.21V114.753ZM264.506 114.753H265.506V107.751H264.506H263.506V114.753H264.506ZM323.477 94.2031L322.482 94.3018L322.572 95.2031H323.477V94.2031ZM312.519 89.5421L312.888 90.4715L312.899 90.467L312.519 89.5421ZM310.199 91.2201L309.399 90.62L309.391 90.63L310.199 91.2201ZM309.412 93.6645L310.411 93.7008L310.412 93.6827V93.6645H309.412ZM309.888 95.6532L309.034 96.1738L309.039 96.1813L309.043 96.1887L309.888 95.6532ZM311.359 97.124L310.804 97.956L310.811 97.9603L310.817 97.9645L311.359 97.124ZM313.513 98.1805L313.164 99.1174L313.171 99.1201L313.178 99.1226L313.513 98.1805ZM316.123 98.9262L316.356 97.9536L316.349 97.952L316.342 97.9504L316.123 98.9262ZM319.935 99.8377L319.702 100.81L319.709 100.812L319.717 100.814L319.935 99.8377ZM325.031 101.495L324.623 102.408H324.623L325.031 101.495ZM329.05 104.043L329.715 103.296V103.296L329.05 104.043ZM331.681 107.606L330.77 108.02L330.774 108.027L331.681 107.606ZM332.654 112.308L333.654 112.314L333.654 112.301L332.654 112.308ZM330.666 119.062L329.842 118.495L329.841 118.496L330.666 119.062ZM325.031 123.474L325.421 124.395L325.424 124.394L325.031 123.474ZM307.236 123.453L306.853 124.377L306.855 124.378L307.236 123.453ZM301.312 118.792L300.485 119.355L300.489 119.361L301.312 118.792ZM299.095 111.107V110.107H298.072L298.095 111.13L299.095 111.107ZM307.775 111.107L308.773 111.039L308.709 110.107H307.775V111.107ZM308.997 114.67L308.199 115.272L308.203 115.278L308.208 115.285L308.997 114.67ZM311.918 116.804L311.548 117.733L311.561 117.738L311.918 116.804ZM320.039 116.845L319.675 115.914L319.671 115.915L320.039 116.845ZM322.669 115.001L323.454 115.621V115.621L322.669 115.001ZM322.752 109.885L321.991 110.533L321.999 110.542L322.752 109.885ZM320.308 108.227L319.914 109.147L319.918 109.148L320.308 108.227ZM316.393 106.985L316.149 107.954L316.158 107.957L316.393 106.985ZM311.773 105.824L312.017 104.855L312.009 104.853L311.773 105.824ZM303.3 101.744L302.634 102.489V102.489L303.3 101.744ZM300.214 94.2652L301.214 94.2696L301.214 94.2599L300.214 94.2652ZM302.265 87.5327L301.456 86.9449L301.453 86.9487L302.265 87.5327ZM324.534 83.0374L324.117 83.9463L324.119 83.9473L324.534 83.0374ZM330.044 87.5327L329.219 88.097V88.097L330.044 87.5327ZM332.074 94.2031V95.2031H333.091L333.074 94.1867L332.074 94.2031ZM323.477 94.2031L324.472 94.1044C324.281 92.1756 323.44 90.6104 321.937 89.5033L321.344 90.3086L320.751 91.1138C321.761 91.8574 322.342 92.8885 322.482 94.3018L323.477 94.2031ZM321.344 90.3086L321.937 89.5033C320.453 88.4114 318.515 87.9206 316.227 87.9206V88.9206V89.9206C318.247 89.9206 319.72 90.3552 320.751 91.1138L321.344 90.3086ZM316.227 88.9206V87.9206C314.675 87.9206 313.301 88.1395 312.139 88.6172L312.519 89.5421L312.899 90.467C313.753 90.1161 314.851 89.9206 316.227 89.9206V88.9206ZM312.519 89.5421L312.15 88.6127C311.006 89.067 310.069 89.7265 309.399 90.6201L310.199 91.2201L310.999 91.8201C311.406 91.2774 312.015 90.8182 312.888 90.4715L312.519 89.5421ZM310.199 91.2201L309.391 90.63C308.738 91.5239 308.412 92.5465 308.412 93.6645H309.412H310.412C310.412 92.9595 310.61 92.3524 311.006 91.8101L310.199 91.2201ZM309.412 93.6645L308.412 93.6281C308.379 94.5542 308.573 95.4167 309.034 96.1738L309.888 95.6532L310.742 95.1326C310.513 94.7572 310.389 94.2939 310.411 93.7008L309.412 93.6645ZM309.888 95.6532L309.043 96.1887C309.485 96.8857 310.08 97.4731 310.804 97.956L311.359 97.124L311.913 96.2919C311.395 95.9462 311.009 95.5531 310.732 95.1176L309.888 95.6532ZM311.359 97.124L310.817 97.9645C311.508 98.4101 312.293 98.7928 313.164 99.1174L313.513 98.1805L313.863 97.2435C313.104 96.9605 312.452 96.6388 311.9 96.2834L311.359 97.124ZM313.513 98.1805L313.178 99.1226C314.034 99.4274 314.944 99.6869 315.905 99.9021L316.123 98.9262L316.342 97.9504C315.452 97.7513 314.622 97.5135 313.849 97.2384L313.513 98.1805ZM316.123 98.9262L315.891 99.8988L319.702 100.81L319.935 99.8377L320.168 98.8651L316.356 97.9536L316.123 98.9262ZM319.935 99.8377L319.717 100.814C321.51 101.215 323.144 101.748 324.623 102.408L325.031 101.495L325.439 100.582C323.824 99.8611 322.061 99.289 320.153 98.8619L319.935 99.8377ZM325.031 101.495L324.623 102.408C326.087 103.062 327.338 103.857 328.385 104.79L329.05 104.043L329.715 103.296C328.497 102.212 327.068 101.309 325.439 100.582L325.031 101.495ZM329.05 104.043L328.385 104.79C329.414 105.706 330.207 106.781 330.77 108.02L331.681 107.606L332.591 107.192C331.911 105.697 330.95 104.396 329.715 103.296L329.05 104.043ZM331.681 107.606L330.774 108.027C331.339 109.245 331.641 110.667 331.654 112.316L332.654 112.308L333.654 112.301C333.64 110.414 333.293 108.702 332.588 107.185L331.681 107.606ZM332.654 112.308L331.654 112.303C331.641 114.724 331.027 116.774 329.842 118.495L330.666 119.062L331.489 119.629C332.929 117.538 333.64 115.085 333.654 112.314L332.654 112.308ZM330.666 119.062L329.841 118.496C328.667 120.207 326.951 121.567 324.638 122.554L325.031 123.474L325.424 124.394C328.027 123.282 330.068 121.7 331.49 119.627L330.666 119.062ZM325.031 123.474L324.641 122.553C322.351 123.524 319.542 124.028 316.186 124.028V125.028V126.028C319.734 126.028 322.822 125.496 325.421 124.395L325.031 123.474ZM316.186 125.028V124.028C312.86 124.028 310.012 123.518 307.618 122.529L307.236 123.453L306.855 124.378C309.543 125.488 312.661 126.028 316.186 126.028V125.028ZM307.236 123.453L307.62 122.53C305.253 121.547 303.437 120.109 302.134 118.224L301.312 118.792L300.489 119.361C302.031 121.592 304.165 123.261 306.853 124.377L307.236 123.453ZM301.312 118.792L302.139 118.23C300.86 116.35 300.161 113.986 300.095 111.084L299.095 111.107L298.095 111.13C298.168 114.332 298.946 117.092 300.485 119.355L301.312 118.792ZM299.095 111.107V112.107H307.775V111.107V110.107H299.095V111.107ZM307.775 111.107L306.777 111.175C306.885 112.753 307.343 114.136 308.199 115.272L308.997 114.67L309.796 114.068C309.216 113.298 308.859 112.306 308.773 111.039L307.775 111.107ZM308.997 114.67L308.208 115.285C309.06 116.378 310.185 117.19 311.549 117.733L311.918 116.804L312.288 115.874C311.221 115.45 310.398 114.841 309.786 114.055L308.997 114.67ZM311.918 116.804L311.561 117.738C312.922 118.258 314.434 118.508 316.082 118.508V117.508V116.508C314.636 116.508 313.372 116.289 312.275 115.87L311.918 116.804ZM316.082 117.508V118.508C317.695 118.508 319.144 118.274 320.406 117.775L320.039 116.845L319.671 115.915C318.696 116.3 317.507 116.508 316.082 116.508V117.508ZM320.039 116.845L320.402 117.777C321.665 117.284 322.701 116.575 323.454 115.621L322.669 115.001L321.885 114.382C321.395 115.003 320.677 115.523 319.675 115.914L320.039 116.845ZM322.669 115.001L323.454 115.621C324.218 114.654 324.602 113.53 324.602 112.288H323.602H322.602C322.602 113.089 322.364 113.775 321.885 114.382L322.669 115.001ZM323.602 112.288H324.602C324.602 111.121 324.248 110.078 323.506 109.227L322.752 109.885L321.999 110.542C322.389 110.989 322.602 111.549 322.602 112.288H323.602ZM322.752 109.885L323.514 109.237C322.83 108.433 321.868 107.802 320.698 107.307L320.308 108.227L319.918 109.148C320.902 109.565 321.57 110.038 321.991 110.533L322.752 109.885ZM320.308 108.227L320.702 107.308C319.572 106.824 318.21 106.394 316.627 106.012L316.393 106.985L316.158 107.957C317.669 108.321 318.917 108.719 319.914 109.147L320.308 108.227ZM316.393 106.985L316.636 106.015L312.017 104.855L311.773 105.824L311.53 106.794L316.149 107.954L316.393 106.985ZM311.773 105.824L312.009 104.853C308.542 104.009 305.882 102.709 303.967 100.998L303.3 101.744L302.634 102.489C304.862 104.479 307.85 105.899 311.537 106.796L311.773 105.824ZM303.3 101.744L303.967 100.998C302.137 99.3636 301.201 97.1592 301.214 94.2696L300.214 94.2652L299.214 94.2608C299.199 97.6411 300.32 100.422 302.634 102.489L303.3 101.744ZM300.214 94.2652L301.214 94.2599C301.201 91.8833 301.83 89.8497 303.076 88.1167L302.265 87.5327L301.453 86.9487C299.938 89.0549 299.199 91.5097 299.214 94.2706L300.214 94.2652ZM302.265 87.5327L303.074 88.1205C304.353 86.3599 306.119 84.9663 308.408 83.9517L308.003 83.0374L307.598 82.1232C305.026 83.263 302.966 84.8662 301.456 86.9449L302.265 87.5327ZM308.003 83.0374L308.408 83.9517C310.692 82.9395 313.312 82.4216 316.289 82.4216V81.4216V80.4216C313.079 80.4216 310.175 80.9809 307.598 82.1232L308.003 83.0374ZM316.289 81.4216V82.4216C319.325 82.4216 321.925 82.9408 324.117 83.9463L324.534 83.0374L324.951 82.1285C322.447 80.9796 319.551 80.4216 316.289 80.4216V81.4216ZM324.534 83.0374L324.119 83.9473C326.334 84.9579 328.021 86.3448 329.219 88.097L330.044 87.5327L330.87 86.9684C329.443 84.8813 327.456 83.2714 324.949 82.1276L324.534 83.0374ZM330.044 87.5327L329.219 88.097C330.41 89.8409 331.036 91.8701 331.074 94.2195L332.074 94.2031L333.074 94.1867C333.03 91.4815 332.302 89.0638 330.87 86.9684L330.044 87.5327ZM332.074 94.2031V93.2031H323.477V94.2031V95.2031H332.074V94.2031ZM350.573 89.3971H349.573V90.3971H350.573V89.3971ZM350.573 82.0017V81.0017H349.573V82.0017H350.573ZM385.417 82.0017H386.417V81.0017H385.417V82.0017ZM385.417 89.3971V90.3971H386.417V89.3971H385.417ZM372.428 89.3971V88.3971H371.428V89.3971H372.428ZM372.428 124.427V125.427H373.428V124.427H372.428ZM363.562 124.427H362.562V125.427H363.562V124.427ZM363.562 89.3971H364.562V88.3971H363.562V89.3971ZM350.573 89.3971H351.573V82.0017H350.573H349.573V89.3971H350.573ZM350.573 82.0017V83.0017H385.417V82.0017V81.0017H350.573V82.0017ZM385.417 82.0017H384.417V89.3971H385.417H386.417V82.0017H385.417ZM385.417 89.3971V88.3971H372.428V89.3971V90.3971H385.417V89.3971ZM372.428 89.3971H371.428V124.427H372.428H373.428V89.3971H372.428ZM372.428 124.427V123.427H363.562V124.427V125.427H372.428V124.427ZM363.562 124.427H364.562V89.3971H363.562H362.562V124.427H363.562ZM363.562 89.3971V88.3971H350.573V89.3971V90.3971H363.562V89.3971ZM425.574 115.022L424.694 114.547L424.692 114.55L425.574 115.022ZM418.448 122.459L418.941 123.329L418.942 123.328L418.448 122.459ZM398.188 122.438L398.684 121.57V121.57L398.188 122.438ZM391.082 115.001L390.201 115.474V115.474L391.082 115.001ZM391.082 91.4065L391.964 91.879V91.879L391.082 91.4065ZM398.188 83.9903L398.681 84.8603L398.684 84.8586L398.188 83.9903ZM418.448 83.9903L417.951 84.8586L417.956 84.8613L418.448 83.9903ZM425.574 91.4065L424.692 91.879L424.694 91.8819L425.574 91.4065ZM417.764 95.6325L416.845 96.0271L416.847 96.0323L417.764 95.6325ZM414.014 90.9508L413.465 91.7861V91.7861L414.014 90.9508ZM402.662 90.9508L403.212 91.7861V91.7861L402.662 90.9508ZM398.892 95.6325L397.976 95.2326L397.973 95.2378L398.892 95.6325ZM398.892 110.796L397.973 111.191L397.976 111.196L398.892 110.796ZM402.662 115.478L403.212 114.643V114.643L402.662 115.478ZM414.014 115.478L413.465 114.643V114.643L414.014 115.478ZM417.764 110.796L416.847 110.396L416.845 110.402L417.764 110.796ZM428.205 103.214H427.205C427.205 107.716 426.351 111.48 424.694 114.547L425.574 115.022L426.453 115.498C428.304 112.074 429.205 107.965 429.205 103.214H428.205ZM425.574 115.022L424.692 114.55C423.035 117.64 420.79 119.976 417.953 121.59L418.448 122.459L418.942 123.328C422.127 121.517 424.632 118.895 426.455 115.495L425.574 115.022ZM418.448 122.459L417.954 121.589C415.121 123.195 411.924 124.007 408.338 124.007V125.007V126.007C412.238 126.007 415.781 125.12 418.941 123.329L418.448 122.459ZM408.338 125.007V124.007C404.726 124.007 401.516 123.188 398.684 121.57L398.188 122.438L397.692 123.307C400.853 125.113 404.411 126.007 408.338 126.007V125.007ZM398.188 122.438L398.684 121.57C395.861 119.957 393.621 117.62 391.964 114.529L391.082 115.001L390.201 115.474C392.024 118.873 394.521 121.495 397.692 123.307L398.188 122.438ZM391.082 115.001L391.964 114.529C390.319 111.461 389.472 107.703 389.472 103.214H388.472H387.472C387.472 107.951 388.366 112.051 390.201 115.474L391.082 115.001ZM388.472 103.214H389.472C389.472 98.7113 390.319 94.9465 391.964 91.879L391.082 91.4065L390.201 90.934C388.366 94.3573 387.472 98.4644 387.472 103.214H388.472ZM391.082 91.4065L391.964 91.879C393.621 88.7881 395.86 86.4593 398.681 84.8603L398.188 83.9903L397.695 83.1204C394.522 84.9187 392.024 87.534 390.201 90.934L391.082 91.4065ZM398.188 83.9903L398.684 84.8586C401.516 83.2403 404.726 82.4216 408.338 82.4216V81.4216V80.4216C404.411 80.4216 400.853 81.3154 397.692 83.1221L398.188 83.9903ZM408.338 81.4216V82.4216C411.922 82.4216 415.118 83.2397 417.951 84.8586L418.448 83.9903L418.944 83.1221C415.783 81.3161 412.24 80.4216 408.338 80.4216V81.4216ZM418.448 83.9903L417.956 84.8613C420.791 86.4606 423.036 88.7893 424.692 91.879L425.574 91.4065L426.455 90.934C424.631 87.5329 422.126 84.9174 418.939 83.1194L418.448 83.9903ZM425.574 91.4065L424.694 91.8819C426.351 94.9488 427.205 98.7125 427.205 103.214H428.205H429.205C429.205 98.4633 428.304 94.3551 426.453 90.9311L425.574 91.4065ZM419.11 103.214H420.11C420.11 100.124 419.648 97.4511 418.681 95.2326L417.764 95.6325L416.847 96.0323C417.675 97.9293 418.11 100.311 418.11 103.214H419.11ZM417.764 95.6325L418.683 95.2378C417.734 93.0293 416.368 91.3026 414.564 90.1154L414.014 90.9508L413.465 91.7861C414.892 92.7257 416.026 94.1201 416.845 96.0271L417.764 95.6325ZM414.014 90.9508L414.564 90.1154C412.766 88.9319 410.678 88.3557 408.338 88.3557V89.3557V90.3557C410.336 90.3557 412.031 90.8428 413.465 91.7861L414.014 90.9508ZM408.338 89.3557V88.3557C405.999 88.3557 403.911 88.9319 402.113 90.1154L402.662 90.9508L403.212 91.7861C404.645 90.8428 406.341 90.3557 408.338 90.3557V89.3557ZM402.662 90.9508L402.113 90.1154C400.31 91.3016 398.938 93.0264 397.976 95.2326L398.892 95.6325L399.809 96.0323C400.642 94.123 401.783 92.7267 403.212 91.7861L402.662 90.9508ZM398.892 95.6325L397.973 95.2378C397.021 97.4547 396.566 100.125 396.566 103.214H397.566H398.566C398.566 100.31 398.995 97.9257 399.811 96.0271L398.892 95.6325ZM397.566 103.214H396.566C396.566 106.303 397.021 108.974 397.973 111.191L398.892 110.796L399.811 110.402C398.995 108.503 398.566 106.119 398.566 103.214H397.566ZM398.892 110.796L397.976 111.196C398.938 113.402 400.31 115.127 402.113 116.313L402.662 115.478L403.212 114.643C401.783 113.702 400.642 112.306 399.809 110.396L398.892 110.796ZM402.662 115.478L402.113 116.313C403.911 117.497 405.999 118.073 408.338 118.073V117.073V116.073C406.341 116.073 404.645 115.586 403.212 114.643L402.662 115.478ZM408.338 117.073V118.073C410.678 118.073 412.766 117.497 414.564 116.313L414.014 115.478L413.465 114.643C412.031 115.586 410.336 116.073 408.338 116.073V117.073ZM414.014 115.478L414.564 116.313C416.368 115.126 417.734 113.399 418.683 111.191L417.764 110.796L416.845 110.402C416.026 112.309 414.892 113.703 413.465 114.643L414.014 115.478ZM417.764 110.796L418.681 111.196C419.648 108.978 420.11 106.305 420.11 103.214H419.11H418.11C418.11 106.117 417.675 108.499 416.847 110.396L417.764 110.796ZM461.054 82.0017V81.0017H460.054V82.0017H461.054ZM470.024 82.0017H471.024V81.0017H470.024V82.0017ZM467.807 117.674L466.964 117.137L466.962 117.14L467.807 117.674ZM461.655 123.101L462.093 124L462.096 123.998L461.655 123.101ZM443.197 123.101L442.756 123.998L442.76 124L443.197 123.101ZM437.045 117.674L436.199 118.207V118.207L437.045 117.674ZM434.849 82.0017V81.0017H433.849V82.0017H434.849ZM443.819 82.0017H444.819V81.0017H443.819V82.0017ZM444.875 113.096L444.003 113.585L444.007 113.592L444.875 113.096ZM447.9 116.058L447.416 116.933V116.933L447.9 116.058ZM456.973 116.058L456.489 115.183L456.485 115.185L456.973 116.058ZM459.977 113.096L459.109 112.599L459.105 112.607L459.977 113.096ZM461.054 82.0017V83.0017H470.024V82.0017V81.0017H461.054V82.0017ZM470.024 82.0017H469.024V109.553H470.024H471.024V82.0017H470.024ZM470.024 109.553H469.024C469.024 112.481 468.327 114.996 466.964 117.137L467.807 117.674L468.651 118.211C470.243 115.711 471.024 112.813 471.024 109.553H470.024ZM467.807 117.674L466.962 117.14C465.603 119.293 463.698 120.981 461.213 122.204L461.655 123.101L462.096 123.998C464.888 122.625 467.084 120.695 468.653 118.207L467.807 117.674ZM461.655 123.101L461.217 122.202C458.74 123.408 455.822 124.028 452.436 124.028V125.028V126.028C456.067 126.028 459.294 125.363 462.093 124L461.655 123.101ZM452.436 125.028V124.028C449.037 124.028 446.112 123.408 443.635 122.202L443.197 123.101L442.76 124C445.558 125.363 448.793 126.028 452.436 126.028V125.028ZM443.197 123.101L443.639 122.204C441.155 120.981 439.249 119.293 437.891 117.14L437.045 117.674L436.199 118.207C437.769 120.695 439.965 122.625 442.756 123.998L443.197 123.101ZM437.045 117.674L437.891 117.14C436.54 114.999 435.849 112.483 435.849 109.553H434.849H433.849C433.849 112.811 434.622 115.708 436.199 118.207L437.045 117.674ZM434.849 109.553H435.849V82.0017H434.849H433.849V109.553H434.849ZM434.849 82.0017V83.0017H443.819V82.0017V81.0017H434.849V82.0017ZM443.819 82.0017H442.819V108.787H443.819H444.819V82.0017H443.819ZM443.819 108.787H442.819C442.819 110.553 443.205 112.161 444.003 113.585L444.875 113.096L445.748 112.607C445.137 111.517 444.819 110.253 444.819 108.787H443.819ZM444.875 113.096L444.007 113.592C444.819 115.012 445.961 116.128 447.416 116.933L447.9 116.058L448.384 115.183C447.242 114.551 446.368 113.693 445.744 112.599L444.875 113.096ZM447.9 116.058L447.416 116.933C448.885 117.746 450.569 118.135 452.436 118.135V117.135V116.135C450.852 116.135 449.511 115.807 448.384 115.183L447.9 116.058ZM452.436 117.135V118.135C454.316 118.135 456.003 117.746 457.461 116.931L456.973 116.058L456.485 115.185C455.375 115.806 454.037 116.135 452.436 116.135V117.135ZM456.973 116.058L457.457 116.933C458.913 116.128 460.051 115.009 460.849 113.585L459.977 113.096L459.105 112.607C458.494 113.696 457.63 114.552 456.489 115.183L456.973 116.058ZM459.977 113.096L460.845 113.592C461.659 112.167 462.054 110.556 462.054 108.787H461.054H460.054C460.054 110.249 459.731 111.511 459.109 112.599L459.977 113.096ZM461.054 108.787H462.054V82.0017H461.054H460.054V108.787H461.054ZM514.837 96.8547V97.8547H515.962L515.83 96.7375L514.837 96.8547ZM505.763 96.8547L504.773 96.9945L504.895 97.8547H505.763V96.8547ZM504.748 93.7266L503.873 94.2101L503.876 94.2156L504.748 93.7266ZM502.78 91.3651L502.151 92.142V92.142L502.78 91.3651ZM500.004 89.8735L499.688 90.8222L499.692 90.8235L500.004 89.8735ZM490.89 90.9922L491.441 91.8264L491.446 91.8232L490.89 90.9922ZM487.099 95.7153L488.015 96.1152L488.016 96.1129L487.099 95.7153ZM487.099 110.838L486.182 111.237L486.184 111.243L487.099 110.838ZM490.91 115.499L490.369 116.339V116.339L490.91 115.499ZM499.901 116.597L499.608 115.64L499.604 115.642L499.901 116.597ZM502.656 115.209L503.26 116.005L503.269 115.999L502.656 115.209ZM504.645 112.951L503.791 112.43L503.785 112.44L504.645 112.951ZM505.763 109.926L505.768 108.926L504.93 108.922L504.78 109.746L505.763 109.926ZM514.837 109.968L515.83 110.087L515.964 108.973L514.841 108.968L514.837 109.968ZM513.076 115.602L512.188 115.141L512.187 115.144L513.076 115.602ZM509.326 120.429L509.997 121.171L509.997 121.171L509.326 120.429ZM503.733 123.785L504.087 124.72L504.09 124.719L503.733 123.785ZM486.27 122.438L485.771 123.305L485.772 123.306L486.27 122.438ZM479.227 115.001L478.342 115.468L478.344 115.471L479.227 115.001ZM479.268 91.4065L480.15 91.879V91.879L479.268 91.4065ZM486.353 83.9903L486.848 84.8593L486.851 84.8576L486.353 83.9903ZM503.257 82.4574L502.944 83.4073L502.946 83.4079L503.257 82.4574ZM508.871 85.4819L508.24 86.2576L508.244 86.2608L508.871 85.4819ZM512.848 90.3086L511.967 90.7812L511.969 90.7861L512.848 90.3086ZM514.837 96.8547V95.8547H505.763V96.8547V97.8547H514.837V96.8547ZM505.763 96.8547L506.754 96.7149C506.573 95.4347 506.2 94.2707 505.621 93.2376L504.748 93.7266L503.876 94.2156C504.319 95.0055 504.622 95.9269 504.773 96.9945L505.763 96.8547ZM504.748 93.7266L505.624 93.2432C505.052 92.2081 504.314 91.3204 503.41 90.5881L502.78 91.3651L502.151 92.142C502.849 92.7079 503.423 93.3946 503.873 94.2101L504.748 93.7266ZM502.78 91.3651L503.41 90.5881C502.508 89.8573 501.474 89.3041 500.317 88.9236L500.004 89.8735L499.692 90.8235C500.635 91.1335 501.451 91.5747 502.151 92.142L502.78 91.3651ZM500.004 89.8735L500.321 88.9249C499.172 88.542 497.939 88.3557 496.628 88.3557V89.3557V90.3557C497.748 90.3557 498.765 90.5146 499.688 90.8222L500.004 89.8735ZM496.628 89.3557V88.3557C494.259 88.3557 492.147 88.9471 490.333 90.1612L490.89 90.9922L491.446 91.8232C492.892 90.8553 494.606 90.3557 496.628 90.3557V89.3557ZM490.89 90.9922L490.338 90.158C488.523 91.358 487.144 93.0966 486.181 95.3177L487.099 95.7153L488.016 96.1129C488.849 94.191 489.997 92.7808 491.441 91.8264L490.89 90.9922ZM487.099 95.7153L486.182 95.3155C485.215 97.532 484.752 100.176 484.752 103.214H485.752H486.752C486.752 100.37 487.187 98.0142 488.015 96.1152L487.099 95.7153ZM485.752 103.214H484.752C484.752 106.331 485.214 109.018 486.182 111.237L487.099 110.838L488.015 110.438C487.188 108.542 486.752 106.146 486.752 103.214H485.752ZM487.099 110.838L486.184 111.243C487.162 113.449 488.55 115.168 490.369 116.339L490.91 115.499L491.452 114.658C490.012 113.73 488.858 112.341 488.013 110.433L487.099 110.838ZM490.91 115.499L490.369 116.339C492.177 117.504 494.254 118.073 496.566 118.073V117.073V116.073C494.596 116.073 492.903 115.593 491.452 114.658L490.91 115.499ZM496.566 117.073V118.073C497.856 118.073 499.069 117.902 500.198 117.551L499.901 116.597L499.604 115.642C498.689 115.926 497.679 116.073 496.566 116.073V117.073ZM499.901 116.597L500.194 117.553C501.333 117.203 502.359 116.689 503.26 116.005L502.656 115.209L502.052 114.412C501.351 114.943 500.54 115.355 499.608 115.64L499.901 116.597ZM502.656 115.209L503.269 115.999C504.171 115.299 504.917 114.451 505.505 113.461L504.645 112.951L503.785 112.44C503.323 113.218 502.744 113.875 502.043 114.419L502.656 115.209ZM504.645 112.951L505.499 113.471C506.108 112.471 506.52 111.346 506.747 110.106L505.763 109.926L504.78 109.746C504.592 110.772 504.259 111.662 503.791 112.43L504.645 112.951ZM505.763 109.926L505.759 110.926L514.832 110.968L514.837 109.968L514.841 108.968L505.768 108.926L505.763 109.926ZM514.837 109.968L513.844 109.848C513.624 111.671 513.074 113.435 512.188 115.141L513.076 115.602L513.964 116.063C514.956 114.152 515.58 112.158 515.83 110.087L514.837 109.968ZM513.076 115.602L512.187 115.144C511.32 116.827 510.146 118.341 508.656 119.687L509.326 120.429L509.997 121.171C511.656 119.672 512.982 117.968 513.965 116.06L513.076 115.602ZM509.326 120.429L508.656 119.687C507.197 121.004 505.441 122.062 503.376 122.851L503.733 123.785L504.09 124.719C506.362 123.851 508.335 122.671 509.997 121.171L509.326 120.429ZM503.733 123.785L503.38 122.849C501.357 123.615 499.042 124.007 496.421 124.007V125.007V126.007C499.241 126.007 501.801 125.585 504.087 124.72L503.733 123.785ZM496.421 125.007V124.007C492.793 124.007 489.585 123.188 486.768 121.571L486.27 122.438L485.772 123.306C488.922 125.114 492.48 126.007 496.421 126.007V125.007ZM486.27 122.438L486.77 121.572C483.975 119.96 481.755 117.624 480.11 114.532L479.227 115.001L478.344 115.471C480.152 118.87 482.627 121.492 485.771 123.305L486.27 122.438ZM479.227 115.001L480.111 114.535C478.492 111.465 477.658 107.705 477.658 103.214H476.658H475.658C475.658 107.949 476.537 112.047 478.342 115.468L479.227 115.001ZM476.658 103.214H477.658C477.658 98.7113 478.505 94.9465 480.15 91.879L479.268 91.4065L478.387 90.934C476.551 94.3573 475.658 98.4644 475.658 103.214H476.658ZM479.268 91.4065L480.15 91.879C481.807 88.7869 484.04 86.458 486.848 84.8593L486.353 83.9903L485.858 83.1214C482.7 84.92 480.209 87.5352 478.387 90.934L479.268 91.4065ZM486.353 83.9903L486.851 84.8576C489.67 83.2393 492.851 82.4216 496.421 82.4216V81.4216V80.4216C492.532 80.4216 489.002 81.3164 485.855 83.1231L486.353 83.9903ZM496.421 81.4216V82.4216C498.785 82.4216 500.957 82.7535 502.944 83.4073L503.257 82.4574L503.569 81.5075C501.359 80.7803 498.973 80.4216 496.421 80.4216V81.4216ZM503.257 82.4574L502.946 83.4079C504.949 84.0626 506.711 85.0136 508.24 86.2576L508.871 85.4819L509.502 84.7061C507.772 83.2985 505.79 82.2333 503.567 81.5069L503.257 82.4574ZM508.871 85.4819L508.244 86.2608C509.765 87.4859 511.006 88.9894 511.967 90.7811L512.848 90.3086L513.729 89.836C512.646 87.8161 511.235 86.1018 509.498 84.7029L508.871 85.4819ZM512.848 90.3086L511.969 90.7861C512.937 92.5655 513.566 94.6222 513.844 96.9718L514.837 96.8547L515.83 96.7375C515.527 94.1706 514.831 91.8633 513.727 89.8311L512.848 90.3086ZM521.269 124.427H520.269V125.427H521.269V124.427ZM521.269 82.0017V81.0017H520.269V82.0017H521.269ZM530.239 82.0017H531.239V81.0017H530.239V82.0017ZM530.239 99.5063H529.239V100.506H530.239V99.5063ZM548.448 99.5063V100.506H549.448V99.5063H548.448ZM548.448 82.0017V81.0017H547.448V82.0017H548.448ZM557.397 82.0017H558.397V81.0017H557.397V82.0017ZM557.397 124.427V125.427H558.397V124.427H557.397ZM548.448 124.427H547.448V125.427H548.448V124.427ZM548.448 106.902H549.448V105.902H548.448V106.902ZM530.239 106.902V105.902H529.239V106.902H530.239ZM530.239 124.427V125.427H531.239V124.427H530.239ZM521.269 124.427H522.269V82.0017H521.269H520.269V124.427H521.269ZM521.269 82.0017V83.0017H530.239V82.0017V81.0017H521.269V82.0017ZM530.239 82.0017H529.239V99.5063H530.239H531.239V82.0017H530.239ZM530.239 99.5063V100.506H548.448V99.5063V98.5063H530.239V99.5063ZM548.448 99.5063H549.448V82.0017H548.448H547.448V99.5063H548.448ZM548.448 82.0017V83.0017H557.397V82.0017V81.0017H548.448V82.0017ZM557.397 82.0017H556.397V124.427H557.397H558.397V82.0017H557.397ZM557.397 124.427V123.427H548.448V124.427V125.427H557.397V124.427ZM548.448 124.427H549.448V106.902H548.448H547.448V124.427H548.448ZM548.448 106.902V105.902H530.239V106.902V107.902H548.448V106.902ZM530.239 106.902H529.239V124.427H530.239H531.239V106.902H530.239ZM530.239 124.427V123.427H521.269V124.427V125.427H530.239V124.427Z" fill="black" mask="url(#path-5-outside-1_50_2)"/>
</svg>
