<svg width="437" height="91" viewBox="0 0 437 91" fill="none" xmlns="http://www.w3.org/2000/svg">
<mask id="path-1-outside-1_52_10" maskUnits="userSpaceOnUse" x="12" y="22" width="413" height="47" fill="black">
<rect fill="white" x="12" y="22" width="413" height="47"/>
<path d="M13.6874 24.5747H24.7494L36.433 53.0792H36.9302L48.6137 24.5747H59.6758V67H50.9753V39.3862H50.6231L39.6439 66.7928H33.7192L22.74 39.2827H22.3879V67H13.6874V24.5747ZM76.0358 24.5747V67H67.066V24.5747H76.0358ZM98.4552 67H83.4157V24.5747H98.5795C102.847 24.5747 106.52 25.424 109.6 27.1227C112.68 28.8075 115.048 31.2312 116.706 34.3938C118.377 37.5564 119.212 41.3404 119.212 45.7459C119.212 50.1652 118.377 53.963 116.706 57.1394C115.048 60.3158 112.666 62.7533 109.559 64.452C106.465 66.1507 102.764 67 98.4552 67ZM92.3855 59.3145H98.0823C100.734 59.3145 102.964 58.845 104.773 57.9059C106.596 56.953 107.964 55.4822 108.875 53.4935C109.8 51.491 110.263 48.9085 110.263 45.7459C110.263 42.611 109.8 40.0491 108.875 38.0604C107.964 36.0718 106.603 34.6079 104.794 33.6688C102.985 32.7297 100.755 32.2601 98.103 32.2601H92.3855V59.3145ZM130.777 67H121.165L135.81 24.5747H147.37L161.995 67H152.383L141.756 34.2695H141.424L130.777 67ZM130.176 50.324H152.88V57.3259H130.176V50.324ZM189.148 36.7761C188.982 35.105 188.271 33.8069 187.014 32.8816C185.757 31.9563 184.052 31.4936 181.897 31.4936C180.433 31.4936 179.197 31.7008 178.189 32.1151C177.181 32.5156 176.408 33.0749 175.869 33.7931C175.344 34.5112 175.082 35.326 175.082 36.2375C175.054 36.9971 175.213 37.6599 175.558 38.2262C175.917 38.7924 176.408 39.2827 177.029 39.697C177.651 40.0975 178.369 40.4496 179.183 40.7535C179.998 41.0435 180.868 41.2921 181.794 41.4992L185.605 42.4107C187.456 42.825 189.155 43.3774 190.701 44.0679C192.248 44.7585 193.588 45.6078 194.72 46.6159C195.853 47.6241 196.73 48.8118 197.351 50.179C197.986 51.5462 198.311 53.1137 198.325 54.8814C198.311 57.4778 197.648 59.7289 196.336 61.6347C195.038 63.5267 193.16 64.9975 190.701 66.0471C188.257 67.0829 185.308 67.6007 181.856 67.6007C178.431 67.6007 175.448 67.076 172.907 66.0264C170.379 64.9768 168.405 63.4231 166.982 61.3654C165.573 59.2938 164.835 56.732 164.765 53.6799H173.445C173.542 55.1024 173.949 56.2901 174.668 57.243C175.399 58.1821 176.373 58.8933 177.588 59.3767C178.818 59.8462 180.205 60.081 181.752 60.081C183.271 60.081 184.59 59.8601 185.709 59.4181C186.841 58.9762 187.718 58.3616 188.34 57.5744C188.961 56.7873 189.272 55.8827 189.272 54.8607C189.272 53.9078 188.989 53.1068 188.423 52.4577C187.87 51.8086 187.055 51.2562 185.978 50.8005C184.915 50.3447 183.61 49.9304 182.063 49.5575L177.443 48.3975C173.867 47.5274 171.042 46.1671 168.971 44.3165C166.899 42.4659 165.87 39.9732 165.884 36.8382C165.87 34.2695 166.554 32.0253 167.935 30.1057C169.33 28.1861 171.243 26.6876 173.673 25.6104C176.104 24.5332 178.866 23.9946 181.959 23.9946C185.108 23.9946 187.856 24.5332 190.204 25.6104C192.566 26.6876 194.402 28.1861 195.714 30.1057C197.026 32.0253 197.703 34.2488 197.745 36.7761H189.148ZM216.244 31.9701V24.5747H251.087V31.9701H238.098V67H229.232V31.9701H216.244ZM293.875 45.7873C293.875 50.4138 292.998 54.3497 291.244 57.5952C289.504 60.8406 287.128 63.3195 284.118 65.032C281.121 66.7307 277.751 67.58 274.009 67.58C270.238 67.58 266.855 66.7238 263.858 65.0113C260.861 63.2988 258.493 60.8199 256.753 57.5744C255.013 54.329 254.143 50.4 254.143 45.7873C254.143 41.1609 255.013 37.2249 256.753 33.9795C258.493 30.7341 260.861 28.262 263.858 26.5633C266.855 24.8509 270.238 23.9946 274.009 23.9946C277.751 23.9946 281.121 24.8509 284.118 26.5633C287.128 28.262 289.504 30.7341 291.244 33.9795C292.998 37.2249 293.875 41.1609 293.875 45.7873ZM284.781 45.7873C284.781 42.7905 284.332 40.2632 283.434 38.2055C282.55 36.1477 281.301 34.5871 279.685 33.5238C278.069 32.4604 276.177 31.9287 274.009 31.9287C271.84 31.9287 269.948 32.4604 268.333 33.5238C266.717 34.5871 265.46 36.1477 264.562 38.2055C263.679 40.2632 263.237 42.7905 263.237 45.7873C263.237 48.7842 263.679 51.3115 264.562 53.3692C265.46 55.4269 266.717 56.9875 268.333 58.0509C269.948 59.1143 271.84 59.646 274.009 59.646C276.177 59.646 278.069 59.1143 279.685 58.0509C281.301 56.9875 282.55 55.4269 283.434 53.3692C284.332 51.3115 284.781 48.7842 284.781 45.7873ZM326.724 24.5747H335.694V52.1263C335.694 55.2198 334.955 57.9266 333.478 60.2467C332.014 62.5669 329.963 64.376 327.325 65.6742C324.687 66.9586 321.615 67.6007 318.107 67.6007C314.585 67.6007 311.505 66.9586 308.868 65.6742C306.23 64.376 304.179 62.5669 302.715 60.2467C301.251 57.9266 300.519 55.2198 300.519 52.1263V24.5747H309.489V51.3598C309.489 52.9756 309.841 54.4119 310.546 55.6686C311.264 56.9254 312.272 57.9128 313.57 58.6309C314.868 59.3491 316.38 59.7081 318.107 59.7081C319.847 59.7081 321.359 59.3491 322.643 58.6309C323.942 57.9128 324.943 56.9254 325.647 55.6686C326.365 54.4119 326.724 52.9756 326.724 51.3598V24.5747ZM380.507 39.4277H371.434C371.268 38.2538 370.93 37.2111 370.419 36.2996C369.908 35.3743 369.252 34.5871 368.451 33.9381C367.65 33.289 366.724 32.7918 365.675 32.4465C364.639 32.1013 363.513 31.9287 362.298 31.9287C360.102 31.9287 358.19 32.4742 356.56 33.5652C354.93 34.6424 353.667 36.2168 352.769 38.2883C351.871 40.3461 351.423 42.8457 351.423 45.7873C351.423 48.8118 351.871 51.3529 352.769 53.4106C353.681 55.4684 354.951 57.022 356.581 58.0716C358.21 59.1212 360.095 59.646 362.236 59.646C363.438 59.646 364.549 59.4872 365.571 59.1695C366.607 58.8519 367.525 58.3893 368.326 57.7816C369.127 57.1601 369.79 56.4075 370.315 55.5236C370.854 54.6398 371.227 53.6316 371.434 52.4992L380.507 52.5406C380.272 54.4878 379.685 56.366 378.746 58.1752C377.821 59.9705 376.571 61.5794 374.997 63.0019C373.436 64.4106 371.572 65.5292 369.404 66.3578C367.249 67.1726 364.812 67.58 362.091 67.58C358.307 67.58 354.923 66.7238 351.94 65.0113C348.971 63.2988 346.623 60.8199 344.897 57.5744C343.185 54.329 342.328 50.4 342.328 45.7873C342.328 41.1609 343.198 37.2249 344.939 33.9795C346.679 30.7341 349.04 28.262 352.023 26.5633C355.006 24.8509 358.362 23.9946 362.091 23.9946C364.549 23.9946 366.828 24.3399 368.927 25.0304C371.04 25.7209 372.911 26.7291 374.541 28.0549C376.171 29.3668 377.496 30.9757 378.518 32.8816C379.554 34.7874 380.217 36.9694 380.507 39.4277ZM386.939 67V24.5747H395.909V42.0793H414.118V24.5747H423.067V67H414.118V49.4747H395.909V67H386.939Z"/>
</mask>
<path d="M13.6874 24.5747H24.7494L36.433 53.0792H36.9302L48.6137 24.5747H59.6758V67H50.9753V39.3862H50.6231L39.6439 66.7928H33.7192L22.74 39.2827H22.3879V67H13.6874V24.5747ZM76.0358 24.5747V67H67.066V24.5747H76.0358ZM98.4552 67H83.4157V24.5747H98.5795C102.847 24.5747 106.52 25.424 109.6 27.1227C112.68 28.8075 115.048 31.2312 116.706 34.3938C118.377 37.5564 119.212 41.3404 119.212 45.7459C119.212 50.1652 118.377 53.963 116.706 57.1394C115.048 60.3158 112.666 62.7533 109.559 64.452C106.465 66.1507 102.764 67 98.4552 67ZM92.3855 59.3145H98.0823C100.734 59.3145 102.964 58.845 104.773 57.9059C106.596 56.953 107.964 55.4822 108.875 53.4935C109.8 51.491 110.263 48.9085 110.263 45.7459C110.263 42.611 109.8 40.0491 108.875 38.0604C107.964 36.0718 106.603 34.6079 104.794 33.6688C102.985 32.7297 100.755 32.2601 98.103 32.2601H92.3855V59.3145ZM130.777 67H121.165L135.81 24.5747H147.37L161.995 67H152.383L141.756 34.2695H141.424L130.777 67ZM130.176 50.324H152.88V57.3259H130.176V50.324ZM189.148 36.7761C188.982 35.105 188.271 33.8069 187.014 32.8816C185.757 31.9563 184.052 31.4936 181.897 31.4936C180.433 31.4936 179.197 31.7008 178.189 32.1151C177.181 32.5156 176.408 33.0749 175.869 33.7931C175.344 34.5112 175.082 35.326 175.082 36.2375C175.054 36.9971 175.213 37.6599 175.558 38.2262C175.917 38.7924 176.408 39.2827 177.029 39.697C177.651 40.0975 178.369 40.4496 179.183 40.7535C179.998 41.0435 180.868 41.2921 181.794 41.4992L185.605 42.4107C187.456 42.825 189.155 43.3774 190.701 44.0679C192.248 44.7585 193.588 45.6078 194.72 46.6159C195.853 47.6241 196.73 48.8118 197.351 50.179C197.986 51.5462 198.311 53.1137 198.325 54.8814C198.311 57.4778 197.648 59.7289 196.336 61.6347C195.038 63.5267 193.16 64.9975 190.701 66.0471C188.257 67.0829 185.308 67.6007 181.856 67.6007C178.431 67.6007 175.448 67.076 172.907 66.0264C170.379 64.9768 168.405 63.4231 166.982 61.3654C165.573 59.2938 164.835 56.732 164.765 53.6799H173.445C173.542 55.1024 173.949 56.2901 174.668 57.243C175.399 58.1821 176.373 58.8933 177.588 59.3767C178.818 59.8462 180.205 60.081 181.752 60.081C183.271 60.081 184.59 59.8601 185.709 59.4181C186.841 58.9762 187.718 58.3616 188.34 57.5744C188.961 56.7873 189.272 55.8827 189.272 54.8607C189.272 53.9078 188.989 53.1068 188.423 52.4577C187.87 51.8086 187.055 51.2562 185.978 50.8005C184.915 50.3447 183.61 49.9304 182.063 49.5575L177.443 48.3975C173.867 47.5274 171.042 46.1671 168.971 44.3165C166.899 42.4659 165.87 39.9732 165.884 36.8382C165.87 34.2695 166.554 32.0253 167.935 30.1057C169.33 28.1861 171.243 26.6876 173.673 25.6104C176.104 24.5332 178.866 23.9946 181.959 23.9946C185.108 23.9946 187.856 24.5332 190.204 25.6104C192.566 26.6876 194.402 28.1861 195.714 30.1057C197.026 32.0253 197.703 34.2488 197.745 36.7761H189.148ZM216.244 31.9701V24.5747H251.087V31.9701H238.098V67H229.232V31.9701H216.244ZM293.875 45.7873C293.875 50.4138 292.998 54.3497 291.244 57.5952C289.504 60.8406 287.128 63.3195 284.118 65.032C281.121 66.7307 277.751 67.58 274.009 67.58C270.238 67.58 266.855 66.7238 263.858 65.0113C260.861 63.2988 258.493 60.8199 256.753 57.5744C255.013 54.329 254.143 50.4 254.143 45.7873C254.143 41.1609 255.013 37.2249 256.753 33.9795C258.493 30.7341 260.861 28.262 263.858 26.5633C266.855 24.8509 270.238 23.9946 274.009 23.9946C277.751 23.9946 281.121 24.8509 284.118 26.5633C287.128 28.262 289.504 30.7341 291.244 33.9795C292.998 37.2249 293.875 41.1609 293.875 45.7873ZM284.781 45.7873C284.781 42.7905 284.332 40.2632 283.434 38.2055C282.55 36.1477 281.301 34.5871 279.685 33.5238C278.069 32.4604 276.177 31.9287 274.009 31.9287C271.84 31.9287 269.948 32.4604 268.333 33.5238C266.717 34.5871 265.46 36.1477 264.562 38.2055C263.679 40.2632 263.237 42.7905 263.237 45.7873C263.237 48.7842 263.679 51.3115 264.562 53.3692C265.46 55.4269 266.717 56.9875 268.333 58.0509C269.948 59.1143 271.84 59.646 274.009 59.646C276.177 59.646 278.069 59.1143 279.685 58.0509C281.301 56.9875 282.55 55.4269 283.434 53.3692C284.332 51.3115 284.781 48.7842 284.781 45.7873ZM326.724 24.5747H335.694V52.1263C335.694 55.2198 334.955 57.9266 333.478 60.2467C332.014 62.5669 329.963 64.376 327.325 65.6742C324.687 66.9586 321.615 67.6007 318.107 67.6007C314.585 67.6007 311.505 66.9586 308.868 65.6742C306.23 64.376 304.179 62.5669 302.715 60.2467C301.251 57.9266 300.519 55.2198 300.519 52.1263V24.5747H309.489V51.3598C309.489 52.9756 309.841 54.4119 310.546 55.6686C311.264 56.9254 312.272 57.9128 313.57 58.6309C314.868 59.3491 316.38 59.7081 318.107 59.7081C319.847 59.7081 321.359 59.3491 322.643 58.6309C323.942 57.9128 324.943 56.9254 325.647 55.6686C326.365 54.4119 326.724 52.9756 326.724 51.3598V24.5747ZM380.507 39.4277H371.434C371.268 38.2538 370.93 37.2111 370.419 36.2996C369.908 35.3743 369.252 34.5871 368.451 33.9381C367.65 33.289 366.724 32.7918 365.675 32.4465C364.639 32.1013 363.513 31.9287 362.298 31.9287C360.102 31.9287 358.19 32.4742 356.56 33.5652C354.93 34.6424 353.667 36.2168 352.769 38.2883C351.871 40.3461 351.423 42.8457 351.423 45.7873C351.423 48.8118 351.871 51.3529 352.769 53.4106C353.681 55.4684 354.951 57.022 356.581 58.0716C358.21 59.1212 360.095 59.646 362.236 59.646C363.438 59.646 364.549 59.4872 365.571 59.1695C366.607 58.8519 367.525 58.3893 368.326 57.7816C369.127 57.1601 369.79 56.4075 370.315 55.5236C370.854 54.6398 371.227 53.6316 371.434 52.4992L380.507 52.5406C380.272 54.4878 379.685 56.366 378.746 58.1752C377.821 59.9705 376.571 61.5794 374.997 63.0019C373.436 64.4106 371.572 65.5292 369.404 66.3578C367.249 67.1726 364.812 67.58 362.091 67.58C358.307 67.58 354.923 66.7238 351.94 65.0113C348.971 63.2988 346.623 60.8199 344.897 57.5744C343.185 54.329 342.328 50.4 342.328 45.7873C342.328 41.1609 343.198 37.2249 344.939 33.9795C346.679 30.7341 349.04 28.262 352.023 26.5633C355.006 24.8509 358.362 23.9946 362.091 23.9946C364.549 23.9946 366.828 24.3399 368.927 25.0304C371.04 25.7209 372.911 26.7291 374.541 28.0549C376.171 29.3668 377.496 30.9757 378.518 32.8816C379.554 34.7874 380.217 36.9694 380.507 39.4277ZM386.939 67V24.5747H395.909V42.0793H414.118V24.5747H423.067V67H414.118V49.4747H395.909V67H386.939Z" fill="black"/>
<path d="M13.6874 24.5747V23.5747H12.6874V24.5747H13.6874ZM24.7494 24.5747L25.6747 24.1954L25.4203 23.5747H24.7494V24.5747ZM36.433 53.0792L35.5077 53.4584L35.7621 54.0792H36.433V53.0792ZM36.9302 53.0792V54.0792H37.601L37.8554 53.4584L36.9302 53.0792ZM48.6137 24.5747V23.5747H47.9428L47.6884 24.1954L48.6137 24.5747ZM59.6758 24.5747H60.6758V23.5747H59.6758V24.5747ZM59.6758 67V68H60.6758V67H59.6758ZM50.9753 67H49.9753V68H50.9753V67ZM50.9753 39.3862H51.9753V38.3862H50.9753V39.3862ZM50.6231 39.3862V38.3862H49.9464L49.6948 39.0144L50.6231 39.3862ZM39.6439 66.7928V67.7928H40.3205L40.5722 67.1647L39.6439 66.7928ZM33.7192 66.7928L32.7905 67.1635L33.0416 67.7928H33.7192V66.7928ZM22.74 39.2827L23.6688 38.912L23.4176 38.2827H22.74V39.2827ZM22.3879 39.2827V38.2827H21.3879V39.2827H22.3879ZM22.3879 67V68H23.3879V67H22.3879ZM13.6874 67H12.6874V68H13.6874V67ZM13.6874 24.5747V25.5747H24.7494V24.5747V23.5747H13.6874V24.5747ZM24.7494 24.5747L23.8241 24.9539L35.5077 53.4584L36.433 53.0792L37.3583 52.6999L25.6747 24.1954L24.7494 24.5747ZM36.433 53.0792V54.0792H36.9302V53.0792V52.0792H36.433V53.0792ZM36.9302 53.0792L37.8554 53.4584L49.539 24.9539L48.6137 24.5747L47.6884 24.1954L36.0049 52.6999L36.9302 53.0792ZM48.6137 24.5747V25.5747H59.6758V24.5747V23.5747H48.6137V24.5747ZM59.6758 24.5747H58.6758V67H59.6758H60.6758V24.5747H59.6758ZM59.6758 67V66H50.9753V67V68H59.6758V67ZM50.9753 67H51.9753V39.3862H50.9753H49.9753V67H50.9753ZM50.9753 39.3862V38.3862H50.6231V39.3862V40.3862H50.9753V39.3862ZM50.6231 39.3862L49.6948 39.0144L38.7156 66.421L39.6439 66.7928L40.5722 67.1647L51.5514 39.7581L50.6231 39.3862ZM39.6439 66.7928V65.7928H33.7192V66.7928V67.7928H39.6439V66.7928ZM33.7192 66.7928L34.648 66.4222L23.6688 38.912L22.74 39.2827L21.8113 39.6533L32.7905 67.1635L33.7192 66.7928ZM22.74 39.2827V38.2827H22.3879V39.2827V40.2827H22.74V39.2827ZM22.3879 39.2827H21.3879V67H22.3879H23.3879V39.2827H22.3879ZM22.3879 67V66H13.6874V67V68H22.3879V67ZM13.6874 67H14.6874V24.5747H13.6874H12.6874V67H13.6874ZM76.0358 24.5747H77.0358V23.5747H76.0358V24.5747ZM76.0358 67V68H77.0358V67H76.0358ZM67.066 67H66.066V68H67.066V67ZM67.066 24.5747V23.5747H66.066V24.5747H67.066ZM76.0358 24.5747H75.0358V67H76.0358H77.0358V24.5747H76.0358ZM76.0358 67V66H67.066V67V68H76.0358V67ZM67.066 67H68.066V24.5747H67.066H66.066V67H67.066ZM67.066 24.5747V25.5747H76.0358V24.5747V23.5747H67.066V24.5747ZM83.4157 67H82.4157V68H83.4157V67ZM83.4157 24.5747V23.5747H82.4157V24.5747H83.4157ZM109.6 27.1227L109.117 27.9983L109.12 28L109.6 27.1227ZM116.706 34.3938L115.82 34.858L115.821 34.861L116.706 34.3938ZM116.706 57.1394L115.821 56.6738L115.819 56.6769L116.706 57.1394ZM109.559 64.452L109.079 63.5745L109.077 63.5754L109.559 64.452ZM92.3855 59.3145H91.3855V60.3145H92.3855V59.3145ZM104.773 57.9059L105.234 58.7934L105.237 58.7921L104.773 57.9059ZM108.875 53.4935L107.967 53.074L107.966 53.0768L108.875 53.4935ZM108.875 38.0604L107.966 38.4771L107.968 38.4823L108.875 38.0604ZM104.794 33.6688L105.255 32.7812V32.7812L104.794 33.6688ZM92.3855 32.2601V31.2601H91.3855V32.2601H92.3855ZM98.4552 67V66H83.4157V67V68H98.4552V67ZM83.4157 67H84.4157V24.5747H83.4157H82.4157V67H83.4157ZM83.4157 24.5747V25.5747H98.5795V24.5747V23.5747H83.4157V24.5747ZM98.5795 24.5747V25.5747C102.714 25.5747 106.214 26.3969 109.117 27.9983L109.6 27.1227L110.083 26.247C106.827 24.4511 102.98 23.5747 98.5795 23.5747V24.5747ZM109.6 27.1227L109.12 28C112.024 29.5884 114.252 31.8669 115.82 34.858L116.706 34.3938L117.591 33.9297C115.844 30.5955 113.336 28.0266 110.08 26.2454L109.6 27.1227ZM116.706 34.3938L115.821 34.861C117.401 37.8499 118.212 41.4661 118.212 45.7459H119.212H120.212C120.212 41.2147 119.352 37.2628 117.59 33.9266L116.706 34.3938ZM119.212 45.7459H118.212C118.212 50.04 117.401 53.6705 115.821 56.6738L116.706 57.1394L117.591 57.605C119.353 54.2556 120.212 50.2905 120.212 45.7459H119.212ZM116.706 57.1394L115.819 56.6769C114.252 59.6799 112.01 61.972 109.079 63.5745L109.559 64.452L110.038 65.3294C113.322 63.5346 115.844 60.9517 117.592 57.602L116.706 57.1394ZM109.559 64.452L109.077 63.5754C106.161 65.1771 102.633 66 98.4552 66V67V68C102.895 68 106.77 67.1243 110.04 65.3285L109.559 64.452ZM92.3855 59.3145V60.3145H98.0823V59.3145V58.3145H92.3855V59.3145ZM98.0823 59.3145V60.3145C100.848 60.3145 103.246 59.8253 105.234 58.7934L104.773 57.9059L104.313 57.0183C102.682 57.8647 100.62 58.3145 98.0823 58.3145V59.3145ZM104.773 57.9059L105.237 58.7921C107.269 57.7297 108.787 56.0868 109.784 53.9101L108.875 53.4935L107.966 53.0768C107.141 54.8776 105.924 56.1763 104.31 57.0197L104.773 57.9059ZM108.875 53.4935L109.783 53.9129C110.789 51.7348 111.263 48.9951 111.263 45.7459H110.263H109.263C109.263 48.8218 108.811 51.2472 107.967 53.074L108.875 53.4935ZM110.263 45.7459H111.263C111.263 42.5233 110.789 39.8035 109.782 37.6386L108.875 38.0604L107.968 38.4823C108.812 40.2948 109.263 42.6986 109.263 45.7459H110.263ZM108.875 38.0604L109.784 37.6438C108.787 35.4684 107.277 33.8307 105.255 32.7812L104.794 33.6688L104.333 34.5563C105.93 35.385 107.14 36.6751 107.966 38.4771L108.875 38.0604ZM104.794 33.6688L105.255 32.7812C103.267 31.7494 100.868 31.2601 98.103 31.2601V32.2601V33.2601C100.641 33.2601 102.703 33.7099 104.333 34.5563L104.794 33.6688ZM98.103 32.2601V31.2601H92.3855V32.2601V33.2601H98.103V32.2601ZM92.3855 32.2601H91.3855V59.3145H92.3855H93.3855V32.2601H92.3855ZM130.777 67V68H131.503L131.727 67.3094L130.777 67ZM121.165 67L120.219 66.6737L119.761 68H121.165V67ZM135.81 24.5747V23.5747H135.098L134.865 24.2483L135.81 24.5747ZM147.37 24.5747L148.315 24.2487L148.083 23.5747H147.37V24.5747ZM161.995 67V68H163.397L162.94 66.6741L161.995 67ZM152.383 67L151.432 67.3088L151.656 68H152.383V67ZM141.756 34.2695L142.707 33.9607L142.482 33.2695H141.756V34.2695ZM141.424 34.2695V33.2695H140.698L140.473 33.9602L141.424 34.2695ZM130.176 50.324V49.324H129.176V50.324H130.176ZM152.88 50.324H153.88V49.324H152.88V50.324ZM152.88 57.3259V58.3259H153.88V57.3259H152.88ZM130.176 57.3259H129.176V58.3259H130.176V57.3259ZM130.777 67V66H121.165V67V68H130.777V67ZM121.165 67L122.11 67.3263L136.756 24.901L135.81 24.5747L134.865 24.2483L120.219 66.6737L121.165 67ZM135.81 24.5747V25.5747H147.37V24.5747V23.5747H135.81V24.5747ZM147.37 24.5747L146.424 24.9006L161.049 67.3259L161.995 67L162.94 66.6741L148.315 24.2487L147.37 24.5747ZM161.995 67V66H152.383V67V68H161.995V67ZM152.383 67L153.334 66.6912L142.707 33.9607L141.756 34.2695L140.805 34.5783L151.432 67.3088L152.383 67ZM141.756 34.2695V33.2695H141.424V34.2695V35.2695H141.756V34.2695ZM141.424 34.2695L140.473 33.9602L129.826 66.6906L130.777 67L131.727 67.3094L142.375 34.5789L141.424 34.2695ZM130.176 50.324V51.324H152.88V50.324V49.324H130.176V50.324ZM152.88 50.324H151.88V57.3259H152.88H153.88V50.324H152.88ZM152.88 57.3259V56.3259H130.176V57.3259V58.3259H152.88V57.3259ZM130.176 57.3259H131.176V50.324H130.176H129.176V57.3259H130.176ZM189.148 36.7761L188.153 36.8748L188.242 37.7761H189.148V36.7761ZM178.189 32.1151L178.558 33.0445L178.569 33.04L178.189 32.1151ZM175.869 33.7931L175.069 33.193L175.062 33.203L175.869 33.7931ZM175.082 36.2375L176.081 36.2738L176.082 36.2557V36.2375H175.082ZM175.558 38.2262L174.704 38.7468L174.709 38.7543L174.714 38.7617L175.558 38.2262ZM177.029 39.697L176.474 40.529L176.481 40.5333L176.487 40.5375L177.029 39.697ZM179.183 40.7535L178.834 41.6904L178.841 41.6931L178.848 41.6956L179.183 40.7535ZM181.794 41.4992L182.026 40.5266L182.019 40.525L182.012 40.5234L181.794 41.4992ZM185.605 42.4107L185.373 43.3833L185.38 43.385L185.387 43.3865L185.605 42.4107ZM190.701 44.0679L190.294 44.9811H190.294L190.701 44.0679ZM194.72 46.6159L195.385 45.869V45.869L194.72 46.6159ZM197.351 50.179L196.441 50.5928L196.444 50.6004L197.351 50.179ZM198.325 54.8814L199.325 54.8867L199.325 54.8736L198.325 54.8814ZM196.336 61.6347L195.512 61.0676L195.511 61.0689L196.336 61.6347ZM190.701 66.0471L191.091 66.9678L191.094 66.9668L190.701 66.0471ZM172.907 66.0264L172.523 66.9499L172.525 66.9506L172.907 66.0264ZM166.982 61.3654L166.155 61.9277L166.159 61.934L166.982 61.3654ZM164.765 53.6799V52.6799H163.743L163.766 53.7026L164.765 53.6799ZM173.445 53.6799L174.443 53.6121L174.38 52.6799H173.445V53.6799ZM174.668 57.243L173.869 57.8448L173.874 57.8513L173.879 57.8577L174.668 57.243ZM177.588 59.3767L177.219 60.306L177.232 60.3109L177.588 59.3767ZM185.709 59.4181L185.345 58.4865L185.341 58.4881L185.709 59.4181ZM188.34 57.5744L189.125 58.1941V58.1941L188.34 57.5744ZM188.423 52.4577L187.661 53.1059L187.669 53.1151L188.423 52.4577ZM185.978 50.8005L185.584 51.7196L185.589 51.7214L185.978 50.8005ZM182.063 49.5575L181.819 50.5275L181.829 50.5297L182.063 49.5575ZM177.443 48.3975L177.687 47.4276L177.68 47.4258L177.443 48.3975ZM168.971 44.3165L168.305 45.0623V45.0623L168.971 44.3165ZM165.884 36.8382L166.884 36.8426L166.884 36.8329L165.884 36.8382ZM167.935 30.1057L167.126 29.5179L167.123 29.5217L167.935 30.1057ZM190.204 25.6104L189.787 26.5193L189.789 26.5202L190.204 25.6104ZM195.714 30.1057L194.889 30.67V30.67L195.714 30.1057ZM197.745 36.7761V37.7761H198.761L198.744 36.7597L197.745 36.7761ZM189.148 36.7761L190.143 36.6774C189.951 34.7486 189.11 33.1834 187.607 32.0763L187.014 32.8816L186.421 33.6868C187.431 34.4304 188.012 35.4615 188.153 36.8748L189.148 36.7761ZM187.014 32.8816L187.607 32.0763C186.124 30.9844 184.186 30.4936 181.897 30.4936V31.4936V32.4936C183.918 32.4936 185.391 32.9282 186.421 33.6868L187.014 32.8816ZM181.897 31.4936V30.4936C180.345 30.4936 178.971 30.7124 177.809 31.1902L178.189 32.1151L178.569 33.04C179.423 32.6891 180.522 32.4936 181.897 32.4936V31.4936ZM178.189 32.1151L177.82 31.1857C176.676 31.64 175.739 32.2995 175.069 33.1931L175.869 33.7931L176.669 34.3931C177.076 33.8503 177.686 33.3912 178.558 33.0444L178.189 32.1151ZM175.869 33.7931L175.062 33.203C174.408 34.0969 174.082 35.1195 174.082 36.2375H175.082H176.082C176.082 35.5325 176.28 34.9254 176.676 34.3831L175.869 33.7931ZM175.082 36.2375L174.082 36.2011C174.049 37.1272 174.243 37.9897 174.704 38.7468L175.558 38.2262L176.412 37.7056C176.183 37.3302 176.06 36.8669 176.081 36.2738L175.082 36.2375ZM175.558 38.2262L174.714 38.7617C175.156 39.4587 175.75 40.0461 176.474 40.529L177.029 39.697L177.584 38.8649C177.065 38.5192 176.679 38.1261 176.403 37.6906L175.558 38.2262ZM177.029 39.697L176.487 40.5375C177.179 40.9831 177.963 41.3658 178.834 41.6904L179.183 40.7535L179.533 39.8165C178.774 39.5335 178.122 39.2118 177.571 38.8564L177.029 39.697ZM179.183 40.7535L178.848 41.6956C179.705 42.0004 180.614 42.2599 181.575 42.4751L181.794 41.4992L182.012 40.5234C181.123 40.3243 180.292 40.0865 179.519 39.8114L179.183 40.7535ZM181.794 41.4992L181.561 42.4718L185.373 43.3833L185.605 42.4107L185.838 41.4381L182.026 40.5266L181.794 41.4992ZM185.605 42.4107L185.387 43.3865C187.18 43.788 188.814 44.3207 190.294 44.9811L190.701 44.0679L191.109 43.1548C189.495 42.4341 187.732 41.862 185.824 41.4349L185.605 42.4107ZM190.701 44.0679L190.294 44.9811C191.757 45.6346 193.008 46.4305 194.055 47.3629L194.72 46.6159L195.385 45.869C194.167 44.7851 192.739 43.8823 191.109 43.1548L190.701 44.0679ZM194.72 46.6159L194.055 47.3629C195.085 48.2792 195.877 49.3538 196.441 50.5928L197.351 50.179L198.261 49.7652C197.582 48.2698 196.621 46.969 195.385 45.869L194.72 46.6159ZM197.351 50.179L196.444 50.6004C197.01 51.8175 197.312 53.24 197.325 54.8892L198.325 54.8814L199.325 54.8736C199.31 52.9874 198.963 51.2749 198.258 49.7576L197.351 50.179ZM198.325 54.8814L197.325 54.8761C197.312 57.2972 196.697 59.3469 195.512 61.0676L196.336 61.6347L197.16 62.2017C198.599 60.1108 199.31 57.6583 199.325 54.8867L198.325 54.8814ZM196.336 61.6347L195.511 61.0689C194.337 62.78 192.622 64.1399 190.309 65.1274L190.701 66.0471L191.094 66.9668C193.698 65.8551 195.738 64.2734 197.16 62.2004L196.336 61.6347ZM190.701 66.0471L190.311 65.1263C188.021 66.0967 185.213 66.6007 181.856 66.6007V67.6007V68.6007C185.404 68.6007 188.493 68.0691 191.091 66.9678L190.701 66.0471ZM181.856 67.6007V66.6007C178.531 66.6007 175.683 66.091 173.288 65.1021L172.907 66.0264L172.525 66.9506C175.213 68.0609 178.331 68.6007 181.856 68.6007V67.6007ZM172.907 66.0264L173.29 65.1028C170.923 64.1197 169.108 62.6817 167.805 60.7967L166.982 61.3654L166.159 61.934C167.701 64.1645 169.836 65.8338 172.523 66.9499L172.907 66.0264ZM166.982 61.3654L167.809 60.8031C166.53 58.9228 165.831 56.559 165.765 53.6573L164.765 53.6799L163.766 53.7026C163.838 56.905 164.616 59.6649 166.155 61.9277L166.982 61.3654ZM164.765 53.6799V54.6799H173.445V53.6799V52.6799H164.765V53.6799ZM173.445 53.6799L172.448 53.7477C172.555 55.3255 173.013 56.709 173.869 57.8448L174.668 57.243L175.466 56.6412C174.886 55.8712 174.529 54.8793 174.443 53.6121L173.445 53.6799ZM174.668 57.243L173.879 57.8577C174.731 58.9506 175.855 59.7635 177.219 60.3059L177.588 59.3767L177.958 58.4475C176.891 58.0232 176.068 57.4136 175.456 56.6283L174.668 57.243ZM177.588 59.3767L177.232 60.3109C178.593 60.8308 180.104 61.081 181.752 61.081V60.081V59.081C180.306 59.081 179.042 58.8616 177.945 58.4425L177.588 59.3767ZM181.752 60.081V61.081C183.365 61.081 184.814 60.8467 186.076 60.3482L185.709 59.4181L185.341 58.4881C184.366 58.8734 183.177 59.081 181.752 59.081V60.081ZM185.709 59.4181L186.072 60.3497C187.335 59.8568 188.372 59.1478 189.125 58.1941L188.34 57.5744L187.555 56.9548C187.065 57.5755 186.347 58.0956 185.345 58.4865L185.709 59.4181ZM188.34 57.5744L189.125 58.1941C189.888 57.2268 190.272 56.1029 190.272 54.8607H189.272H188.272C188.272 55.6624 188.034 56.3477 187.555 56.9548L188.34 57.5744ZM189.272 54.8607H190.272C190.272 53.6937 189.919 52.6514 189.176 51.8004L188.423 52.4577L187.669 53.1151C188.059 53.5622 188.272 54.1219 188.272 54.8607H189.272ZM188.423 52.4577L189.184 51.8096C188.5 51.0061 187.538 50.3746 186.368 49.8795L185.978 50.8005L185.589 51.7214C186.573 52.1379 187.24 52.6112 187.661 53.1058L188.423 52.4577ZM185.978 50.8005L186.372 49.8813C185.242 49.397 183.88 48.9669 182.297 48.5854L182.063 49.5575L181.829 50.5297C183.339 50.8939 184.588 51.2925 185.584 51.7196L185.978 50.8005ZM182.063 49.5575L182.306 48.5877L177.687 47.4276L177.443 48.3975L177.2 49.3674L181.819 50.5274L182.063 49.5575ZM177.443 48.3975L177.68 47.4258C174.213 46.5824 171.553 45.2821 169.637 43.5708L168.971 44.3165L168.305 45.0623C170.532 47.0521 173.52 48.4724 177.207 49.3691L177.443 48.3975ZM168.971 44.3165L169.637 43.5708C167.808 41.9366 166.871 39.7322 166.884 36.8426L165.884 36.8382L164.884 36.8338C164.869 40.2141 165.991 42.9953 168.305 45.0623L168.971 44.3165ZM165.884 36.8382L166.884 36.8329C166.871 34.4563 167.5 32.4227 168.747 30.6897L167.935 30.1057L167.123 29.5217C165.608 31.6279 164.869 34.0827 164.884 36.8436L165.884 36.8382ZM167.935 30.1057L168.744 30.6935C170.023 28.9329 171.789 27.5393 174.078 26.5247L173.673 25.6104L173.268 24.6962C170.696 25.836 168.636 27.4392 167.126 29.5179L167.935 30.1057ZM173.673 25.6104L174.078 26.5247C176.362 25.5125 178.983 24.9946 181.959 24.9946V23.9946V22.9946C178.749 22.9946 175.845 23.5539 173.268 24.6962L173.673 25.6104ZM181.959 23.9946V24.9946C184.995 24.9946 187.596 25.5138 189.787 26.5193L190.204 25.6104L190.621 24.7015C188.117 23.5526 185.221 22.9946 181.959 22.9946V23.9946ZM190.204 25.6104L189.789 26.5202C192.005 27.5309 193.691 28.9178 194.889 30.67L195.714 30.1057L196.54 29.5414C195.114 27.4543 193.127 25.8444 190.619 24.7006L190.204 25.6104ZM195.714 30.1057L194.889 30.67C196.081 32.4139 196.706 34.4431 196.745 36.7925L197.745 36.7761L198.744 36.7597C198.7 34.0545 197.972 31.6368 196.54 29.5414L195.714 30.1057ZM197.745 36.7761V35.7761H189.148V36.7761V37.7761H197.745V36.7761ZM216.244 31.9701H215.244V32.9701H216.244V31.9701ZM216.244 24.5747V23.5747H215.244V24.5747H216.244ZM251.087 24.5747H252.087V23.5747H251.087V24.5747ZM251.087 31.9701V32.9701H252.087V31.9701H251.087ZM238.098 31.9701V30.9701H237.098V31.9701H238.098ZM238.098 67V68H239.098V67H238.098ZM229.232 67H228.232V68H229.232V67ZM229.232 31.9701H230.232V30.9701H229.232V31.9701ZM216.244 31.9701H217.244V24.5747H216.244H215.244V31.9701H216.244ZM216.244 24.5747V25.5747H251.087V24.5747V23.5747H216.244V24.5747ZM251.087 24.5747H250.087V31.9701H251.087H252.087V24.5747H251.087ZM251.087 31.9701V30.9701H238.098V31.9701V32.9701H251.087V31.9701ZM238.098 31.9701H237.098V67H238.098H239.098V31.9701H238.098ZM238.098 67V66H229.232V67V68H238.098V67ZM229.232 67H230.232V31.9701H229.232H228.232V67H229.232ZM229.232 31.9701V30.9701H216.244V31.9701V32.9701H229.232V31.9701ZM291.244 57.5952L290.364 57.1197L290.363 57.1226L291.244 57.5952ZM284.118 65.032L284.611 65.902L284.612 65.9012L284.118 65.032ZM263.858 65.0113L264.354 64.1431V64.1431L263.858 65.0113ZM256.753 57.5744L255.871 58.047V58.047L256.753 57.5744ZM256.753 33.9795L257.634 34.452V34.452L256.753 33.9795ZM263.858 26.5633L264.351 27.4333L264.354 27.4316L263.858 26.5633ZM284.118 26.5633L283.622 27.4316L283.626 27.4343L284.118 26.5633ZM291.244 33.9795L290.363 34.452L290.364 34.4549L291.244 33.9795ZM283.434 38.2055L282.515 38.6001L282.518 38.6053L283.434 38.2055ZM279.685 33.5238L279.135 34.3591V34.3591L279.685 33.5238ZM268.333 33.5238L268.882 34.3591V34.3591L268.333 33.5238ZM264.562 38.2055L263.646 37.8056L263.644 37.8108L264.562 38.2055ZM264.562 53.3692L263.644 53.7639L263.646 53.7691L264.562 53.3692ZM268.333 58.0509L268.882 57.2156V57.2156L268.333 58.0509ZM279.685 58.0509L279.135 57.2156V57.2156L279.685 58.0509ZM283.434 53.3692L282.518 52.9693L282.515 52.9745L283.434 53.3692ZM293.875 45.7873H292.875C292.875 50.2892 292.022 54.0529 290.364 57.1197L291.244 57.5952L292.124 58.0706C293.974 54.6466 294.875 50.5384 294.875 45.7873H293.875ZM291.244 57.5952L290.363 57.1226C288.706 60.213 286.46 62.5494 283.623 64.1628L284.118 65.032L284.612 65.9012C287.797 64.0897 290.302 61.4682 292.125 58.0677L291.244 57.5952ZM284.118 65.032L283.625 64.1621C280.791 65.7682 277.594 66.58 274.009 66.58V67.58V68.58C277.909 68.58 281.451 67.6932 284.611 65.902L284.118 65.032ZM274.009 67.58V66.58C270.396 66.58 267.186 65.7614 264.354 64.1431L263.858 65.0113L263.362 65.8796C266.524 67.6862 270.081 68.58 274.009 68.58V67.58ZM263.858 65.0113L264.354 64.1431C261.531 62.53 259.292 60.1935 257.634 57.1019L256.753 57.5744L255.871 58.047C257.694 61.4463 260.191 64.0676 263.362 65.8796L263.858 65.0113ZM256.753 57.5744L257.634 57.1019C255.989 54.034 255.143 50.276 255.143 45.7873H254.143H253.143C253.143 50.524 254.036 54.624 255.871 58.047L256.753 57.5744ZM254.143 45.7873H255.143C255.143 41.2843 255.989 37.5195 257.634 34.452L256.753 33.9795L255.871 33.507C254.036 36.9303 253.143 41.0374 253.143 45.7873H254.143ZM256.753 33.9795L257.634 34.452C259.291 31.3611 261.53 29.0323 264.351 27.4333L263.858 26.5633L263.365 25.6934C260.192 27.4917 257.694 30.107 255.871 33.507L256.753 33.9795ZM263.858 26.5633L264.354 27.4316C267.186 25.8133 270.396 24.9946 274.009 24.9946V23.9946V22.9946C270.081 22.9946 266.524 23.8884 263.362 25.6951L263.858 26.5633ZM274.009 23.9946V24.9946C277.592 24.9946 280.789 25.8126 283.622 27.4316L284.118 26.5633L284.614 25.6951C281.453 23.8891 277.91 22.9946 274.009 22.9946V23.9946ZM284.118 26.5633L283.626 27.4343C286.461 29.0336 288.706 31.3623 290.363 34.452L291.244 33.9795L292.125 33.507C290.302 30.1059 287.796 27.4904 284.609 25.6924L284.118 26.5633ZM291.244 33.9795L290.364 34.4549C292.022 37.5218 292.875 41.2855 292.875 45.7873H293.875H294.875C294.875 41.0363 293.974 36.9281 292.124 33.5041L291.244 33.9795ZM284.781 45.7873H285.781C285.781 42.6965 285.319 40.0241 284.351 37.8056L283.434 38.2055L282.518 38.6053C283.345 40.5023 283.781 42.8844 283.781 45.7873H284.781ZM283.434 38.2055L284.353 37.8108C283.404 35.6023 282.038 33.8756 280.234 32.6884L279.685 33.5238L279.135 34.3591C280.563 35.2987 281.696 36.6931 282.515 38.6001L283.434 38.2055ZM279.685 33.5238L280.234 32.6884C278.436 31.5049 276.348 30.9287 274.009 30.9287V31.9287V32.9287C276.006 32.9287 277.702 33.4158 279.135 34.3591L279.685 33.5238ZM274.009 31.9287V30.9287C271.669 30.9287 269.581 31.5049 267.783 32.6884L268.333 33.5238L268.882 34.3591C270.316 33.4158 272.011 32.9287 274.009 32.9287V31.9287ZM268.333 33.5238L267.783 32.6884C265.98 33.8746 264.608 35.5994 263.646 37.8056L264.562 38.2055L265.479 38.6053C266.312 36.696 267.453 35.2997 268.882 34.3591L268.333 33.5238ZM264.562 38.2055L263.644 37.8108C262.691 40.0277 262.237 42.6982 262.237 45.7873H263.237H264.237C264.237 42.8828 264.666 40.4987 265.481 38.6001L264.562 38.2055ZM263.237 45.7873H262.237C262.237 48.8765 262.691 51.5469 263.644 53.7639L264.562 53.3692L265.481 52.9745C264.666 51.076 264.237 48.6919 264.237 45.7873H263.237ZM264.562 53.3692L263.646 53.7691C264.608 55.9752 265.98 57.7 267.783 58.8862L268.333 58.0509L268.882 57.2156C267.453 56.275 266.312 54.8786 265.479 52.9694L264.562 53.3692ZM268.333 58.0509L267.783 58.8862C269.581 60.0697 271.669 60.646 274.009 60.646V59.646V58.646C272.011 58.646 270.316 58.1589 268.882 57.2156L268.333 58.0509ZM274.009 59.646V60.646C276.348 60.646 278.436 60.0697 280.234 58.8862L279.685 58.0509L279.135 57.2156C277.702 58.1589 276.006 58.646 274.009 58.646V59.646ZM279.685 58.0509L280.234 58.8862C282.038 57.6991 283.404 55.9724 284.353 53.7639L283.434 53.3692L282.515 52.9745C281.696 54.8815 280.563 56.276 279.135 57.2156L279.685 58.0509ZM283.434 53.3692L284.351 53.7691C285.319 51.5505 285.781 48.8781 285.781 45.7873H284.781H283.781C283.781 48.6902 283.345 51.0724 282.518 52.9693L283.434 53.3692ZM326.724 24.5747V23.5747H325.724V24.5747H326.724ZM335.694 24.5747H336.694V23.5747H335.694V24.5747ZM333.478 60.2467L332.634 59.7095L332.632 59.7131L333.478 60.2467ZM327.325 65.6742L327.763 66.5733L327.767 66.5714L327.325 65.6742ZM308.868 65.6742L308.426 66.5714L308.43 66.5733L308.868 65.6742ZM302.715 60.2467L301.869 60.7804V60.7804L302.715 60.2467ZM300.519 24.5747V23.5747H299.519V24.5747H300.519ZM309.489 24.5747H310.489V23.5747H309.489V24.5747ZM310.546 55.6686L309.673 56.1575L309.677 56.1648L310.546 55.6686ZM313.57 58.6309L313.086 59.506V59.506L313.57 58.6309ZM322.643 58.6309L322.159 57.7559L322.155 57.7581L322.643 58.6309ZM325.647 55.6686L324.779 55.1725L324.775 55.1797L325.647 55.6686ZM326.724 24.5747V25.5747H335.694V24.5747V23.5747H326.724V24.5747ZM335.694 24.5747H334.694V52.1263H335.694H336.694V24.5747H335.694ZM335.694 52.1263H334.694C334.694 55.0539 333.997 57.5694 332.634 59.7095L333.478 60.2467L334.321 60.7839C335.913 58.2839 336.694 55.3857 336.694 52.1263H335.694ZM333.478 60.2467L332.632 59.7131C331.274 61.8658 329.368 63.5543 326.884 64.777L327.325 65.6742L327.767 66.5714C330.558 65.1978 332.754 63.2679 334.323 60.7804L333.478 60.2467ZM327.325 65.6742L326.887 64.7751C324.41 65.9813 321.492 66.6007 318.107 66.6007V67.6007V68.6007C321.737 68.6007 324.965 67.9358 327.763 66.5733L327.325 65.6742ZM318.107 67.6007V66.6007C314.707 66.6007 311.782 65.9811 309.305 64.7751L308.868 65.6742L308.43 66.5733C311.229 67.9361 314.464 68.6007 318.107 68.6007V67.6007ZM308.868 65.6742L309.309 64.777C306.825 63.5543 304.919 61.8658 303.561 59.7131L302.715 60.2467L301.869 60.7804C303.439 63.2679 305.635 65.1978 308.426 66.5714L308.868 65.6742ZM302.715 60.2467L303.561 59.7131C302.21 57.5725 301.519 55.0557 301.519 52.1263H300.519H299.519C299.519 55.3839 300.292 58.2807 301.869 60.7804L302.715 60.2467ZM300.519 52.1263H301.519V24.5747H300.519H299.519V52.1263H300.519ZM300.519 24.5747V25.5747H309.489V24.5747V23.5747H300.519V24.5747ZM309.489 24.5747H308.489V51.3598H309.489H310.489V24.5747H309.489ZM309.489 51.3598H308.489C308.489 53.1256 308.875 54.734 309.673 56.1575L310.546 55.6686L311.418 55.1797C310.807 54.0898 310.489 52.8256 310.489 51.3598H309.489ZM310.546 55.6686L309.677 56.1648C310.489 57.5847 311.632 58.7015 313.086 59.506L313.57 58.6309L314.054 57.7559C312.912 57.1241 312.039 56.266 311.414 55.1725L310.546 55.6686ZM313.57 58.6309L313.086 59.506C314.555 60.3186 316.239 60.7081 318.107 60.7081V59.7081V58.7081C316.522 58.7081 315.182 58.3796 314.054 57.7559L313.57 58.6309ZM318.107 59.7081V60.7081C319.986 60.7081 321.673 60.3193 323.132 59.5038L322.643 58.6309L322.155 57.7581C321.045 58.3788 319.707 58.7081 318.107 58.7081V59.7081ZM322.643 58.6309L323.128 59.506C324.583 58.7006 325.721 57.5816 326.52 56.1575L325.647 55.6686L324.775 55.1797C324.164 56.2691 323.3 57.125 322.159 57.7559L322.643 58.6309ZM325.647 55.6686L326.515 56.1648C327.33 54.7399 327.724 53.1289 327.724 51.3598H326.724H325.724C325.724 52.8223 325.401 54.0838 324.779 55.1725L325.647 55.6686ZM326.724 51.3598H327.724V24.5747H326.724H325.724V51.3598H326.724ZM380.507 39.4277V40.4277H381.632L381.5 39.3105L380.507 39.4277ZM371.434 39.4277L370.444 39.5675L370.565 40.4277H371.434V39.4277ZM370.419 36.2996L369.543 36.7831L369.546 36.7886L370.419 36.2996ZM368.451 33.9381L367.821 34.715V34.715L368.451 33.9381ZM365.675 32.4465L365.359 33.3952L365.362 33.3965L365.675 32.4465ZM356.56 33.5652L357.111 34.3994L357.116 34.3961L356.56 33.5652ZM352.769 38.2883L353.686 38.6882L353.687 38.6859L352.769 38.2883ZM352.769 53.4106L351.852 53.8105L351.855 53.8156L352.769 53.4106ZM356.581 58.0716L356.039 58.9123V58.9123L356.581 58.0716ZM365.571 59.1695L365.278 58.2135L365.274 58.2146L365.571 59.1695ZM368.326 57.7816L368.931 58.5783L368.939 58.5717L368.326 57.7816ZM370.315 55.5236L369.461 55.0032L369.455 55.0131L370.315 55.5236ZM371.434 52.4991L371.438 51.4992L370.601 51.4953L370.45 52.3192L371.434 52.4991ZM380.507 52.5406L381.5 52.6603L381.634 51.5457L380.512 51.5406L380.507 52.5406ZM378.746 58.1752L377.859 57.7145L377.857 57.7171L378.746 58.1752ZM374.997 63.0019L375.667 63.7442L375.667 63.7439L374.997 63.0019ZM369.404 66.3578L369.757 67.2932L369.761 67.2919L369.404 66.3578ZM351.94 65.0113L351.441 65.8776L351.443 65.8786L351.94 65.0113ZM344.897 57.5744L344.013 58.0411L344.014 58.0441L344.897 57.5744ZM344.939 33.9795L345.82 34.452V34.452L344.939 33.9795ZM352.023 26.5633L352.518 27.4323L352.521 27.4306L352.023 26.5633ZM368.927 25.0304L368.615 25.9803L368.616 25.9809L368.927 25.0304ZM374.541 28.0549L373.91 28.8306L373.914 28.8338L374.541 28.0549ZM378.518 32.8816L377.637 33.3542L377.64 33.3591L378.518 32.8816ZM380.507 39.4277V38.4277H371.434V39.4277V40.4277H380.507V39.4277ZM371.434 39.4277L372.424 39.2879C372.243 38.0077 371.87 36.8437 371.291 35.8106L370.419 36.2996L369.546 36.7886C369.989 37.5785 370.293 38.4999 370.444 39.5675L371.434 39.4277ZM370.419 36.2996L371.294 35.8162C370.722 34.7811 369.984 33.8934 369.08 33.1611L368.451 33.9381L367.821 34.715C368.519 35.2809 369.093 35.9676 369.543 36.7831L370.419 36.2996ZM368.451 33.9381L369.08 33.1611C368.178 32.4303 367.144 31.8771 365.987 31.4966L365.675 32.4465L365.362 33.3965C366.305 33.7065 367.121 34.1477 367.821 34.715L368.451 33.9381ZM365.675 32.4465L365.991 31.4979C364.842 31.115 363.609 30.9287 362.298 30.9287V31.9287V32.9287C363.418 32.9287 364.436 33.0876 365.359 33.3952L365.675 32.4465ZM362.298 31.9287V30.9287C359.929 30.9287 357.817 31.5201 356.004 32.7342L356.56 33.5652L357.116 34.3961C358.562 33.4283 360.276 32.9287 362.298 32.9287V31.9287ZM356.56 33.5652L356.009 32.731C354.193 33.931 352.814 35.6696 351.851 37.8907L352.769 38.2883L353.687 38.6859C354.519 36.764 355.668 35.3538 357.111 34.3994L356.56 33.5652ZM352.769 38.2883L351.852 37.8885C350.886 40.1049 350.423 42.7488 350.423 45.7873H351.423H352.423C352.423 42.9426 352.857 40.5872 353.686 38.6882L352.769 38.2883ZM351.423 45.7873H350.423C350.423 48.9043 350.884 51.591 351.852 53.8105L352.769 53.4106L353.686 53.0108C352.859 51.1148 352.423 48.7193 352.423 45.7873H351.423ZM352.769 53.4106L351.855 53.8156C352.832 56.0225 354.22 57.7408 356.039 58.9123L356.581 58.0716L357.122 57.2309C355.682 56.3032 354.529 54.9143 353.683 53.0056L352.769 53.4106ZM356.581 58.0716L356.039 58.9123C357.847 60.0766 359.924 60.646 362.236 60.646V59.646V58.646C360.267 58.646 358.574 58.1658 357.122 57.2309L356.581 58.0716ZM362.236 59.646V60.646C363.526 60.646 364.739 60.4754 365.868 60.1245L365.571 59.1695L365.274 58.2146C364.359 58.499 363.349 58.646 362.236 58.646V59.646ZM365.571 59.1695L365.864 60.1256C367.004 59.7762 368.029 59.2623 368.931 58.5783L368.326 57.7816L367.722 56.9849C367.022 57.5163 366.21 57.9276 365.278 58.2135L365.571 59.1695ZM368.326 57.7816L368.939 58.5717C369.841 57.8723 370.587 57.0243 371.175 56.0342L370.315 55.5236L369.455 55.0131C368.994 55.7906 368.414 56.448 367.713 56.9915L368.326 57.7816ZM370.315 55.5236L371.169 56.044C371.778 55.0444 372.191 53.9185 372.417 52.6791L371.434 52.4991L370.45 52.3192C370.262 53.3447 369.929 54.2351 369.461 55.0032L370.315 55.5236ZM371.434 52.4991L371.429 53.4991L380.503 53.5406L380.507 52.5406L380.512 51.5406L371.438 51.4992L371.434 52.4991ZM380.507 52.5406L379.514 52.4209C379.294 54.2444 378.745 56.0075 377.859 57.7145L378.746 58.1752L379.634 58.6359C380.626 56.7246 381.25 54.7313 381.5 52.6603L380.507 52.5406ZM378.746 58.1752L377.857 57.7171C376.99 59.4001 375.816 60.914 374.326 62.2599L374.997 63.0019L375.667 63.7439C377.326 62.2449 378.652 60.541 379.635 58.6333L378.746 58.1752ZM374.997 63.0019L374.327 62.2596C372.867 63.5774 371.112 64.6346 369.047 65.4237L369.404 66.3578L369.761 67.2919C372.032 66.4238 374.006 65.2438 375.667 63.7442L374.997 63.0019ZM369.404 66.3578L369.05 65.4225C367.027 66.1876 364.712 66.58 362.091 66.58V67.58V68.58C364.911 68.58 367.471 68.1577 369.757 67.2932L369.404 66.3578ZM362.091 67.58V66.58C358.464 66.58 355.255 65.761 352.438 64.1441L351.94 65.0113L351.443 65.8786C354.592 67.6866 358.15 68.58 362.091 68.58V67.58ZM351.94 65.0113L352.44 64.1451C349.645 62.5331 347.425 60.1972 345.78 57.1048L344.897 57.5744L344.014 58.0441C345.822 61.4425 348.297 64.0646 351.441 65.8776L351.94 65.0113ZM344.897 57.5744L345.782 57.1078C344.162 54.0385 343.328 50.2783 343.328 45.7873H342.328H341.328C341.328 50.5217 342.207 54.6196 344.013 58.0411L344.897 57.5744ZM342.328 45.7873H343.328C343.328 41.2843 344.175 37.5195 345.82 34.452L344.939 33.9795L344.057 33.507C342.222 36.9303 341.328 41.0374 341.328 45.7873H342.328ZM344.939 33.9795L345.82 34.452C347.478 31.3599 349.711 29.031 352.518 27.4323L352.023 26.5633L351.528 25.6944C348.37 27.493 345.88 30.1082 344.057 33.507L344.939 33.9795ZM352.023 26.5633L352.521 27.4306C355.34 25.8123 358.522 24.9946 362.091 24.9946V23.9946V22.9946C358.203 22.9946 354.673 23.8894 351.525 25.6961L352.023 26.5633ZM362.091 23.9946V24.9946C364.455 24.9946 366.627 25.3265 368.615 25.9803L368.927 25.0304L369.24 24.0805C367.029 23.3533 364.644 22.9946 362.091 22.9946V23.9946ZM368.927 25.0304L368.616 25.9809C370.62 26.6356 372.381 27.5866 373.91 28.8306L374.541 28.0549L375.172 27.2791C373.442 25.8715 371.461 24.8063 369.238 24.0799L368.927 25.0304ZM374.541 28.0549L373.914 28.8338C375.436 30.0589 376.676 31.5624 377.637 33.3541L378.518 32.8816L379.4 32.409C378.317 30.3891 376.906 28.6748 375.168 27.2759L374.541 28.0549ZM378.518 32.8816L377.64 33.3591C378.607 35.1385 379.237 37.1952 379.514 39.5448L380.507 39.4277L381.5 39.3105C381.197 36.7436 380.501 34.4363 379.397 32.4041L378.518 32.8816ZM386.939 67H385.939V68H386.939V67ZM386.939 24.5747V23.5747H385.939V24.5747H386.939ZM395.909 24.5747H396.909V23.5747H395.909V24.5747ZM395.909 42.0793H394.909V43.0793H395.909V42.0793ZM414.118 42.0793V43.0793H415.118V42.0793H414.118ZM414.118 24.5747V23.5747H413.118V24.5747H414.118ZM423.067 24.5747H424.067V23.5747H423.067V24.5747ZM423.067 67V68H424.067V67H423.067ZM414.118 67H413.118V68H414.118V67ZM414.118 49.4747H415.118V48.4747H414.118V49.4747ZM395.909 49.4747V48.4747H394.909V49.4747H395.909ZM395.909 67V68H396.909V67H395.909ZM386.939 67H387.939V24.5747H386.939H385.939V67H386.939ZM386.939 24.5747V25.5747H395.909V24.5747V23.5747H386.939V24.5747ZM395.909 24.5747H394.909V42.0793H395.909H396.909V24.5747H395.909ZM395.909 42.0793V43.0793H414.118V42.0793V41.0793H395.909V42.0793ZM414.118 42.0793H415.118V24.5747H414.118H413.118V42.0793H414.118ZM414.118 24.5747V25.5747H423.067V24.5747V23.5747H414.118V24.5747ZM423.067 24.5747H422.067V67H423.067H424.067V24.5747H423.067ZM423.067 67V66H414.118V67V68H423.067V67ZM414.118 67H415.118V49.4747H414.118H413.118V67H414.118ZM414.118 49.4747V48.4747H395.909V49.4747V50.4747H414.118V49.4747ZM395.909 49.4747H394.909V67H395.909H396.909V49.4747H395.909ZM395.909 67V66H386.939V67V68H395.909V67Z" fill="black" mask="url(#path-1-outside-1_52_10)"/>
</svg>
