<svg width="153" height="195" viewBox="0 0 153 195" fill="none" xmlns="http://www.w3.org/2000/svg">
<path d="M29.7179 84.5137V176.647C29.7179 176.647 22.4739 180.872 18.2012 184.133C13.9286 187.393 7.83624 193.346 7.83624 193.346L31.4454 181.829C31.4454 181.829 60.268 168.94 75.7845 164.554C91.301 160.169 110.91 159.372 110.91 159.372C110.91 159.372 118.73 160.088 123.003 161.099C127.275 162.111 132.792 164.554 132.792 164.554C132.792 164.554 135.685 165.342 136.247 164.554C136.809 163.767 135.671 161.675 135.671 161.675C135.671 161.675 133.749 157.955 130.489 156.493C127.228 155.031 119.548 153.038 119.548 153.038L118.972 39.0229H110.91V96.0304L100.545 106.395V55.7221H91.9078V117.912L79.2395 133.46V64.3596H69.4503V133.46L59.6612 121.367V74.1487H49.2962V106.395L40.0829 96.0304V84.5137H29.7179Z" fill="#71980E" stroke="black" stroke-width="2.23443"/>
<path d="M4.3767 135.763L3.22955 141.521C66.1268 100.487 96.935 73.1583 142.608 15.4137L147.77 18.8687L149.491 3.32123L135.152 8.50372L138.593 11.9587C91.1505 69.1533 61.8801 96.4869 4.3767 135.763Z" fill="black" stroke="black" stroke-width="4.46886"/>
<path d="M40.507 116.185V171.464C53.3611 165.216 60.6774 162.466 73.9053 158.796L40.507 116.185Z" fill="white" stroke="black" stroke-width="2.23443"/>
<path d="M110.759 115.033L77.9362 157.644C77.9362 157.644 89.9538 155.089 96.3628 154.189C102.772 153.29 110.759 153.038 110.759 153.038V115.033Z" fill="white" stroke="black" stroke-width="2.23443"/>
</svg>
