<svg width="251" height="151" viewBox="0 0 251 151" fill="none" xmlns="http://www.w3.org/2000/svg">
<g clip-path="url(#clip0_10_93)">
<rect width="251" height="150.6" fill="white"/>
<path d="M110.029 38.2892H103.5V64.6122H100.714V38.2892H93.9771V35.503H110.029V38.2892ZM116.802 35.503V48.4358H126.158V35.503H129.069V64.5707H126.158V51.3883H116.802V64.5707H113.933V35.503H116.802ZM147.434 35.503V38.4139H138.244V48.519H145.438V51.4299H138.244V61.6181H147.517V64.5707H135.375V35.503H147.434ZM170.483 53.218L175.889 35.503H179.923V64.6122H177.178V40.8674H177.136L172.354 56.2121H168.404L163.663 40.9506V64.6122H160.918V35.503H164.994L170.316 53.218H170.483ZM186.259 35.503H188.962V64.6122H186.259V35.503ZM194.983 36.7921C196.73 36.0713 198.171 35.6139 199.308 35.4198C200.445 35.198 201.207 35.0871 201.595 35.0871C202.704 35.0871 203.716 35.3228 204.631 35.7941C205.574 36.2376 206.391 36.8614 207.084 37.6654C207.778 38.4416 208.318 39.3426 208.706 40.3684C209.094 41.3941 209.288 42.4892 209.288 43.6536V56.7943C209.288 57.9587 209.067 59.0538 208.623 60.0795C208.18 61.0775 207.583 61.9508 206.835 62.6993C206.086 63.4201 205.213 63.9885 204.215 64.4043C203.245 64.8202 202.219 65.0281 201.138 65.0281C200.916 65.0281 200.653 65.0142 200.348 64.9865C200.043 64.9588 199.641 64.8895 199.142 64.7786C198.67 64.6954 198.088 64.5568 197.395 64.3627C196.73 64.141 195.926 63.836 194.983 63.4479V36.7921ZM206.253 43.6536C206.253 42.4892 205.989 41.4773 205.463 40.6179C204.936 39.7308 204.368 39.0793 203.758 38.6634C203.453 38.4416 203.092 38.2892 202.676 38.206C202.261 38.0951 201.9 38.0396 201.595 38.0396C201.013 38.0396 200.375 38.1644 199.682 38.4139C199.017 38.6357 198.393 38.8713 197.811 39.1208V61.2023C198.781 61.5904 199.53 61.8261 200.057 61.9092C200.611 61.9924 201.027 62.034 201.304 62.034H201.471C202.108 62.034 202.718 61.8815 203.3 61.5766C203.882 61.2716 204.395 60.8558 204.839 60.329C205.31 59.8023 205.671 59.2062 205.92 58.5409C206.197 57.8755 206.336 57.1686 206.336 56.4201L206.253 43.6536ZM221.621 38.705H221.579C221.025 41.2278 220.47 43.7229 219.916 46.1902C219.389 48.6299 218.849 51.1111 218.294 53.6339H224.823L221.621 38.705ZM215.757 64.5707H212.93L219.583 35.4614H223.534L230.187 64.5707H227.401L225.571 56.628H217.546L215.757 64.5707ZM249.603 55.9626C249.603 57.127 249.395 58.2359 248.979 59.2894C248.563 60.3429 247.995 61.2577 247.274 62.034C246.553 62.8102 245.708 63.434 244.737 63.9053C243.767 64.3489 242.714 64.5707 241.577 64.5707C240.496 64.5707 239.428 64.432 238.375 64.1548C237.321 63.8499 236.379 63.5172 235.547 63.1568C234.577 62.7409 233.662 62.2696 232.803 61.7429L233.801 58.9983C234.771 59.4973 235.714 59.927 236.628 60.2874C237.432 60.6201 238.278 60.9251 239.165 61.2023C240.052 61.4518 240.842 61.5766 241.535 61.5766C242.256 61.5766 242.935 61.4379 243.573 61.1607C244.211 60.8558 244.751 60.4538 245.195 59.9548C245.666 59.4557 246.027 58.8736 246.276 58.2082C246.553 57.5429 246.692 56.8221 246.692 56.0458C246.692 55.2696 246.512 54.6181 246.151 54.0913C245.791 53.5646 245.32 53.1349 244.737 52.8022C244.183 52.4418 243.559 52.1646 242.866 51.9705C242.201 51.7764 241.549 51.624 240.912 51.5131C239.858 51.3467 238.874 51.0556 237.959 50.6398C237.044 50.1962 236.24 49.6418 235.547 48.9764C234.882 48.3111 234.341 47.5348 233.925 46.6477C233.537 45.7328 233.343 44.7071 233.343 43.5704C233.343 42.406 233.551 41.311 233.967 40.2852C234.383 39.2595 234.951 38.3723 235.672 37.6238C236.393 36.8476 237.224 36.2376 238.167 35.7941C239.137 35.3228 240.163 35.0871 241.244 35.0871C241.91 35.0871 242.603 35.1703 243.324 35.3366C244.044 35.4753 244.724 35.6416 245.361 35.8357C246.082 36.0574 246.803 36.307 247.524 36.5842L246.609 39.4119C245.971 39.1624 245.333 38.9406 244.696 38.7466C244.141 38.5802 243.545 38.4278 242.908 38.2892C242.298 38.1228 241.716 38.0396 241.161 38.0396C240.468 38.0396 239.817 38.1921 239.207 38.4971C238.597 38.802 238.07 39.204 237.626 39.703C237.183 40.202 236.836 40.7842 236.587 41.4496C236.337 42.0872 236.213 42.7526 236.213 43.4457C236.213 44.2496 236.379 44.9566 236.712 45.5665C237.044 46.1487 237.46 46.6477 237.959 47.0635C238.486 47.4794 239.054 47.812 239.664 48.0615C240.274 48.3111 240.856 48.4913 241.411 48.6021C242.547 48.7962 243.615 49.0734 244.613 49.4338C245.611 49.7942 246.47 50.2655 247.191 50.8477C247.939 51.4299 248.522 52.1368 248.937 52.9685C249.381 53.8002 249.603 54.7983 249.603 55.9626Z" fill="black"/>
<path d="M110.029 72.0973H103.5V98.4204H100.714V72.0973H93.9771V69.3111H110.029V72.0973ZM126.623 76.7964C126.623 75.7706 126.429 74.9528 126.04 74.3429C125.652 73.7053 125.167 73.2201 124.585 72.8874C124.031 72.527 123.448 72.2914 122.838 72.1805C122.229 72.0696 121.716 72.0141 121.3 72.0141C120.884 72.0141 120.371 72.0835 119.761 72.2221C119.151 72.333 118.569 72.5686 118.015 72.929C117.46 73.2617 116.975 73.7468 116.559 74.3845C116.171 74.9944 115.977 75.8122 115.977 76.838V91.1431C115.977 92.1966 116.171 93.0283 116.559 93.6382C116.975 94.2204 117.46 94.6778 118.015 95.0105C118.569 95.3154 119.151 95.5095 119.761 95.5927C120.371 95.6758 120.884 95.7174 121.3 95.7174C121.716 95.7174 122.229 95.6758 122.838 95.5927C123.448 95.4818 124.031 95.2738 124.585 94.9689C125.167 94.6362 125.652 94.1788 126.04 93.5966C126.429 92.9867 126.623 92.1688 126.623 91.1431V76.7964ZM129.409 91.1431C129.409 91.753 129.284 92.5015 129.035 93.3887C128.813 94.2481 128.383 95.0798 127.745 95.8837C127.136 96.6877 126.304 97.3808 125.25 97.963C124.197 98.5174 122.866 98.7947 121.258 98.7947C119.678 98.7947 118.375 98.5174 117.349 97.963C116.324 97.3808 115.492 96.6877 114.854 95.8837C114.244 95.0798 113.815 94.2481 113.565 93.3887C113.316 92.5015 113.191 91.753 113.191 91.1431V76.838C113.191 76.2281 113.302 75.4795 113.524 74.5924C113.773 73.6775 114.203 72.8043 114.813 71.9726C115.423 71.1409 116.254 70.4339 117.308 69.8517C118.361 69.2418 119.692 68.9369 121.3 68.9369C122.88 68.9369 124.183 69.228 125.209 69.8102C126.262 70.3923 127.094 71.0993 127.704 71.931C128.342 72.7627 128.785 73.636 129.035 74.5508C129.284 75.438 129.409 76.1865 129.409 76.7964V91.1431ZM143.195 96.0917C143.667 96.0917 144.207 96.0224 144.817 95.8837C145.455 95.7451 146.051 95.4956 146.605 95.1352C147.16 94.7471 147.617 94.2342 147.978 93.5966C148.366 92.959 148.56 92.1273 148.56 91.1015V69.2696H151.221V91.1015C151.221 91.9055 151.097 92.7649 150.847 93.6798C150.598 94.5669 150.168 95.3847 149.558 96.1333C148.948 96.8818 148.116 97.5055 147.063 98.0046C146.037 98.4759 144.748 98.7115 143.195 98.7115C141.643 98.7115 140.354 98.4759 139.328 98.0046C138.302 97.5055 137.471 96.8818 136.833 96.1333C136.223 95.3847 135.793 94.5669 135.544 93.6798C135.294 92.7649 135.17 91.9055 135.17 91.1015V69.2696H137.873V91.1015C137.873 92.1273 138.053 92.959 138.413 93.5966C138.774 94.2342 139.217 94.7471 139.744 95.1352C140.271 95.4956 140.839 95.7451 141.449 95.8837C142.087 96.0224 142.669 96.0917 143.195 96.0917ZM159.712 90.4777C159.712 91.3094 159.851 92.058 160.128 92.7233C160.405 93.3887 160.779 93.957 161.251 94.4283C161.722 94.8996 162.263 95.2738 162.872 95.5511C163.51 95.8006 164.162 95.9392 164.827 95.9669C165.021 95.9669 165.215 95.9531 165.409 95.9253C165.603 95.8976 165.839 95.8422 166.116 95.759C166.421 95.6481 166.795 95.5095 167.239 95.3431C167.682 95.1768 168.251 94.955 168.944 94.6778L170.275 94.0956L171.397 96.9649L167.779 98.2541C167.308 98.4204 166.795 98.559 166.241 98.6699C165.686 98.7808 165.215 98.8363 164.827 98.8363C163.773 98.8363 162.762 98.6561 161.791 98.2957C160.849 97.9075 160.017 97.3669 159.296 96.6739C158.575 95.9531 158.007 95.0936 157.591 94.0956C157.175 93.0699 156.967 91.9332 156.967 90.6857V77.5033C156.967 76.3667 157.175 75.2855 157.591 74.2597C158.007 73.2062 158.465 72.4023 158.964 71.8478C159.407 71.3211 159.795 70.9191 160.128 70.6419C160.488 70.3646 160.849 70.1151 161.209 69.8933L161.417 69.8102L161.292 69.8517C161.597 69.6854 162.027 69.4913 162.581 69.2696C163.164 69.0201 163.94 68.8953 164.91 68.8953C165.326 68.8953 165.811 68.9646 166.366 69.1032C166.92 69.2418 167.405 69.3805 167.821 69.5191L171.314 70.8498L170.358 73.5528L166.532 72.0973C166.255 71.9864 165.977 71.8894 165.7 71.8062C165.423 71.7231 165.173 71.6815 164.952 71.6815C164.259 71.6815 163.593 71.8478 162.956 72.1805C162.346 72.5132 161.805 72.9567 161.334 73.5112C160.863 74.0379 160.488 74.6478 160.211 75.3409C159.934 76.034 159.795 76.7548 159.795 77.5033L159.712 90.4777ZM178.692 69.3111V82.244H188.048V69.3111H190.959V98.3788H188.048V85.1965H178.692V98.3788H175.822V69.3111H178.692Z" fill="black"/>
<path d="M102.039 116.486C102.039 116.896 102.107 117.265 102.244 117.593C102.381 117.921 102.565 118.201 102.797 118.433C103.03 118.665 103.296 118.85 103.596 118.986C103.911 119.109 104.232 119.177 104.559 119.191C104.655 119.191 104.751 119.184 104.846 119.171C104.942 119.157 105.058 119.13 105.195 119.089C105.345 119.034 105.529 118.966 105.748 118.884C105.966 118.802 106.246 118.693 106.588 118.556L107.244 118.269L107.797 119.683L106.014 120.318C105.782 120.4 105.529 120.468 105.256 120.523C104.983 120.578 104.751 120.605 104.559 120.605C104.04 120.605 103.542 120.516 103.064 120.339C102.599 120.147 102.189 119.881 101.834 119.539C101.479 119.184 101.199 118.761 100.994 118.269C100.789 117.764 100.687 117.204 100.687 116.589V110.094C100.687 109.534 100.789 109.001 100.994 108.495C101.199 107.976 101.424 107.58 101.67 107.307C101.889 107.047 102.08 106.849 102.244 106.713C102.422 106.576 102.599 106.453 102.777 106.344L102.879 106.303L102.818 106.324C102.968 106.242 103.18 106.146 103.453 106.037C103.74 105.914 104.122 105.852 104.6 105.852C104.805 105.852 105.044 105.886 105.318 105.955C105.591 106.023 105.83 106.091 106.035 106.16L107.756 106.815L107.285 108.147L105.4 107.43C105.263 107.375 105.126 107.328 104.99 107.287C104.853 107.246 104.73 107.225 104.621 107.225C104.279 107.225 103.952 107.307 103.637 107.471C103.337 107.635 103.071 107.853 102.838 108.127C102.606 108.386 102.422 108.687 102.285 109.028C102.148 109.37 102.08 109.725 102.08 110.094L102.039 116.486ZM116.17 109.745C116.17 109.24 116.074 108.837 115.883 108.536C115.692 108.222 115.453 107.983 115.166 107.819C114.893 107.642 114.606 107.526 114.305 107.471C114.005 107.416 113.752 107.389 113.547 107.389C113.342 107.389 113.089 107.423 112.789 107.491C112.488 107.546 112.202 107.662 111.928 107.84C111.655 108.004 111.416 108.243 111.211 108.557C111.02 108.857 110.924 109.26 110.924 109.766V116.814C110.924 117.333 111.02 117.743 111.211 118.044C111.416 118.331 111.655 118.556 111.928 118.72C112.202 118.87 112.488 118.966 112.789 119.007C113.089 119.048 113.342 119.068 113.547 119.068C113.752 119.068 114.005 119.048 114.305 119.007C114.606 118.952 114.893 118.85 115.166 118.699C115.453 118.535 115.692 118.31 115.883 118.023C116.074 117.723 116.17 117.32 116.17 116.814V109.745ZM117.543 116.814C117.543 117.115 117.481 117.484 117.358 117.921C117.249 118.344 117.037 118.754 116.723 119.15C116.422 119.546 116.013 119.888 115.494 120.175C114.975 120.448 114.319 120.584 113.527 120.584C112.748 120.584 112.106 120.448 111.601 120.175C111.095 119.888 110.685 119.546 110.371 119.15C110.071 118.754 109.859 118.344 109.736 117.921C109.613 117.484 109.552 117.115 109.552 116.814V109.766C109.552 109.465 109.606 109.096 109.715 108.659C109.838 108.209 110.05 107.778 110.351 107.368C110.651 106.959 111.061 106.61 111.58 106.324C112.099 106.023 112.755 105.873 113.547 105.873C114.326 105.873 114.968 106.016 115.473 106.303C115.992 106.59 116.402 106.938 116.703 107.348C117.017 107.758 117.235 108.188 117.358 108.639C117.481 109.076 117.543 109.445 117.543 109.745V116.814ZM128.7 106.057V120.4H126.528L121.754 108.7H121.733V120.4H120.422V106.057H122.102L127.327 118.74H127.368V106.057H128.7ZM139.327 116.138C139.327 116.712 139.225 117.258 139.02 117.777C138.815 118.296 138.535 118.747 138.18 119.13C137.825 119.512 137.408 119.819 136.93 120.052C136.452 120.27 135.933 120.38 135.373 120.38C134.84 120.38 134.314 120.311 133.795 120.175C133.276 120.024 132.811 119.86 132.402 119.683C131.924 119.478 131.473 119.246 131.049 118.986L131.541 117.634C132.019 117.88 132.484 118.091 132.934 118.269C133.331 118.433 133.747 118.583 134.184 118.72C134.621 118.843 135.011 118.904 135.352 118.904C135.707 118.904 136.042 118.836 136.356 118.699C136.67 118.549 136.937 118.351 137.155 118.105C137.388 117.859 137.565 117.572 137.688 117.245C137.825 116.917 137.893 116.562 137.893 116.179C137.893 115.797 137.804 115.476 137.627 115.216C137.449 114.957 137.217 114.745 136.93 114.581C136.657 114.403 136.349 114.267 136.008 114.171C135.68 114.075 135.359 114 135.045 113.946C134.526 113.864 134.041 113.72 133.59 113.515C133.139 113.297 132.743 113.024 132.402 112.696C132.074 112.368 131.807 111.986 131.603 111.548C131.411 111.098 131.316 110.592 131.316 110.032C131.316 109.458 131.418 108.919 131.623 108.413C131.828 107.908 132.108 107.471 132.463 107.102C132.818 106.72 133.228 106.419 133.693 106.201C134.171 105.968 134.676 105.852 135.209 105.852C135.537 105.852 135.878 105.893 136.233 105.975C136.588 106.043 136.923 106.125 137.237 106.221C137.592 106.33 137.948 106.453 138.303 106.59L137.852 107.983C137.538 107.86 137.224 107.751 136.909 107.655C136.636 107.573 136.343 107.498 136.028 107.43C135.728 107.348 135.441 107.307 135.168 107.307C134.826 107.307 134.505 107.382 134.205 107.532C133.904 107.683 133.645 107.881 133.426 108.127C133.208 108.372 133.037 108.659 132.914 108.987C132.791 109.301 132.73 109.629 132.73 109.971C132.73 110.367 132.811 110.715 132.975 111.016C133.139 111.303 133.344 111.548 133.59 111.753C133.85 111.958 134.13 112.122 134.43 112.245C134.731 112.368 135.018 112.457 135.291 112.511C135.851 112.607 136.377 112.744 136.868 112.921C137.36 113.099 137.784 113.331 138.139 113.618C138.508 113.905 138.795 114.253 138.999 114.663C139.218 115.073 139.327 115.564 139.327 116.138ZM145.286 119.253C145.518 119.253 145.784 119.218 146.085 119.15C146.399 119.082 146.693 118.959 146.966 118.781C147.239 118.59 147.464 118.337 147.642 118.023C147.833 117.709 147.929 117.299 147.929 116.794V106.037H149.24V116.794C149.24 117.19 149.179 117.613 149.056 118.064C148.933 118.501 148.721 118.904 148.421 119.273C148.12 119.642 147.71 119.949 147.191 120.195C146.686 120.427 146.051 120.543 145.286 120.543C144.521 120.543 143.885 120.427 143.38 120.195C142.875 119.949 142.465 119.642 142.151 119.273C141.85 118.904 141.638 118.501 141.515 118.064C141.393 117.613 141.331 117.19 141.331 116.794V106.037H142.663V116.794C142.663 117.299 142.752 117.709 142.929 118.023C143.107 118.337 143.325 118.59 143.585 118.781C143.845 118.959 144.125 119.082 144.425 119.15C144.739 119.218 145.026 119.253 145.286 119.253ZM152.317 106.057H153.731V118.986H158.198V120.4H152.317V106.057ZM165.681 107.43H162.464V120.4H161.091V107.43H157.772V106.057H165.681V107.43ZM170.041 107.635H170.021C169.747 108.878 169.474 110.107 169.201 111.323C168.942 112.525 168.675 113.748 168.402 114.991H171.619L170.041 107.635ZM167.152 120.38H165.759L169.037 106.037H170.984L174.262 120.38H172.889L171.988 116.466H168.033L167.152 120.38ZM184.587 106.057V120.4H182.415L177.641 108.7H177.62V120.4H176.309V106.057H177.989L183.214 118.74H183.255V106.057H184.587ZM188.801 116.486C188.801 116.896 188.869 117.265 189.006 117.593C189.142 117.921 189.327 118.201 189.559 118.433C189.791 118.665 190.057 118.85 190.358 118.986C190.672 119.109 190.993 119.177 191.321 119.191C191.417 119.191 191.512 119.184 191.608 119.171C191.703 119.157 191.819 119.13 191.956 119.089C192.106 119.034 192.291 118.966 192.509 118.884C192.728 118.802 193.008 118.693 193.349 118.556L194.005 118.269L194.558 119.683L192.776 120.318C192.543 120.4 192.291 120.468 192.018 120.523C191.744 120.578 191.512 120.605 191.321 120.605C190.802 120.605 190.303 120.516 189.825 120.339C189.361 120.147 188.951 119.881 188.596 119.539C188.241 119.184 187.961 118.761 187.756 118.269C187.551 117.764 187.448 117.204 187.448 116.589V110.094C187.448 109.534 187.551 109.001 187.756 108.495C187.961 107.976 188.186 107.58 188.432 107.307C188.65 107.047 188.842 106.849 189.006 106.713C189.183 106.576 189.361 106.453 189.538 106.344L189.641 106.303L189.579 106.324C189.73 106.242 189.941 106.146 190.214 106.037C190.501 105.914 190.884 105.852 191.362 105.852C191.567 105.852 191.806 105.886 192.079 105.955C192.352 106.023 192.591 106.091 192.796 106.16L194.517 106.815L194.046 108.147L192.161 107.43C192.024 107.375 191.888 107.328 191.751 107.287C191.615 107.246 191.492 107.225 191.382 107.225C191.041 107.225 190.713 107.307 190.399 107.471C190.098 107.635 189.832 107.853 189.6 108.127C189.368 108.386 189.183 108.687 189.047 109.028C188.91 109.37 188.842 109.725 188.842 110.094L188.801 116.486ZM200.468 114.007H200.242V120.4H198.91V114.007H198.747L195.427 106.057H196.82L199.587 112.532L202.353 106.057H203.746L200.468 114.007Z" fill="#A9CE4C"/>
<path d="M105.162 130.779V129.562H106.158V130.779H105.162ZM107.491 130.779V129.562H108.487V130.779H107.491ZM109.82 130.779V129.562H110.816V130.779H109.82ZM114.977 127.853C114.977 127.845 114.94 127.825 114.866 127.792C114.801 127.751 114.71 127.71 114.596 127.669C114.481 127.628 114.346 127.591 114.19 127.558C114.034 127.526 113.87 127.509 113.698 127.509C113.444 127.509 113.227 127.603 113.047 127.792C112.875 127.98 112.788 128.202 112.788 128.456V129.218C112.788 129.48 112.875 129.706 113.047 129.894C113.227 130.075 113.44 130.165 113.686 130.165C113.776 130.165 113.895 130.144 114.042 130.103C114.19 130.062 114.333 130.017 114.473 129.968C114.628 129.911 114.796 129.841 114.977 129.759V127.853ZM115.751 130.14L116.022 130.386L115.469 130.939L115.137 130.607C114.883 130.73 114.616 130.82 114.337 130.878C114.059 130.935 113.846 130.964 113.698 130.964C113.461 130.964 113.239 130.919 113.034 130.829C112.829 130.73 112.653 130.599 112.506 130.435C112.358 130.271 112.239 130.083 112.149 129.87C112.067 129.648 112.026 129.415 112.026 129.169V128.493C112.026 128.255 112.067 128.03 112.149 127.817C112.239 127.603 112.358 127.419 112.506 127.263C112.653 127.099 112.829 126.972 113.034 126.882C113.239 126.784 113.461 126.735 113.698 126.735C113.747 126.735 113.821 126.739 113.919 126.747C114.026 126.747 114.141 126.759 114.264 126.784C114.387 126.8 114.51 126.829 114.633 126.87C114.764 126.903 114.883 126.948 114.989 127.005V126.747C114.989 126.575 114.956 126.403 114.891 126.231C114.833 126.059 114.751 125.907 114.645 125.776C114.538 125.645 114.411 125.538 114.264 125.456C114.124 125.374 113.977 125.333 113.821 125.333C113.764 125.333 113.649 125.354 113.477 125.395C113.313 125.436 113.137 125.477 112.948 125.518C112.735 125.575 112.497 125.636 112.235 125.702L112.026 124.964C112.297 124.891 112.551 124.825 112.788 124.768C112.993 124.718 113.194 124.673 113.391 124.632C113.588 124.591 113.731 124.571 113.821 124.571C114.083 124.571 114.329 124.632 114.559 124.755C114.796 124.878 115.001 125.042 115.173 125.247C115.346 125.452 115.481 125.686 115.579 125.948C115.686 126.202 115.739 126.468 115.739 126.747L115.751 130.14ZM120.195 125.444H119.174V124.682H120.195V122.297H120.994V124.682H122.088V125.444H120.994V129.267C120.994 129.562 121.067 129.767 121.215 129.882C121.362 129.988 121.539 130.042 121.744 130.042H122.088V130.853H121.682C121.264 130.853 120.912 130.726 120.625 130.472C120.338 130.21 120.195 129.788 120.195 129.206V125.444ZM126.112 126.44C126.112 126.194 126.067 126.001 125.977 125.862C125.895 125.714 125.789 125.604 125.658 125.53C125.535 125.448 125.403 125.395 125.264 125.37C125.133 125.345 125.018 125.333 124.92 125.333C124.822 125.333 124.703 125.345 124.563 125.37C124.424 125.395 124.289 125.448 124.158 125.53C124.035 125.604 123.928 125.714 123.838 125.862C123.748 126.001 123.703 126.194 123.703 126.44V129.034C123.703 129.279 123.748 129.476 123.838 129.624C123.928 129.771 124.035 129.886 124.158 129.968C124.289 130.042 124.424 130.095 124.563 130.128C124.703 130.152 124.822 130.165 124.92 130.165C125.018 130.165 125.133 130.152 125.264 130.128C125.403 130.095 125.535 130.042 125.658 129.968C125.789 129.886 125.895 129.771 125.977 129.624C126.067 129.476 126.112 129.279 126.112 129.034V126.44ZM126.825 129.12C126.825 129.505 126.756 129.816 126.616 130.054C126.477 130.283 126.305 130.464 126.1 130.595C125.903 130.726 125.694 130.812 125.473 130.853C125.26 130.894 125.076 130.915 124.92 130.915C124.764 130.915 124.576 130.894 124.354 130.853C124.133 130.812 123.92 130.726 123.715 130.595C123.518 130.464 123.35 130.283 123.211 130.054C123.072 129.816 123.002 129.505 123.002 129.12V126.354C123.002 125.968 123.072 125.661 123.211 125.432C123.35 125.194 123.518 125.014 123.715 124.891C123.92 124.759 124.133 124.673 124.354 124.632C124.576 124.591 124.764 124.571 124.92 124.571C125.076 124.571 125.26 124.591 125.473 124.632C125.694 124.673 125.903 124.759 126.1 124.891C126.305 125.014 126.477 125.194 126.616 125.432C126.756 125.661 126.825 125.968 126.825 126.354V129.12ZM128.387 129.906C128.28 129.693 128.219 129.484 128.202 129.279C128.186 129.075 128.178 128.862 128.178 128.64V124.694H128.965V129.009C128.965 129.386 129.067 129.677 129.272 129.882C129.477 130.079 129.702 130.177 129.948 130.177C130.186 130.177 130.423 130.136 130.661 130.054C130.907 129.964 131.1 129.874 131.239 129.784V124.694H132.013V130.128L132.321 130.411L131.768 130.964L131.399 130.595C131.169 130.71 130.923 130.796 130.661 130.853C130.399 130.91 130.165 130.939 129.96 130.939C129.657 130.939 129.358 130.861 129.063 130.706C128.776 130.55 128.551 130.283 128.387 129.906ZM134.161 128.984C134.161 129.353 134.28 129.644 134.517 129.857C134.763 130.07 135.05 130.177 135.378 130.177C135.444 130.177 135.538 130.169 135.661 130.152C135.792 130.128 135.919 130.099 136.042 130.066C136.189 130.034 136.341 129.993 136.497 129.943L136.73 130.656C136.558 130.714 136.394 130.763 136.239 130.804C136.099 130.845 135.952 130.878 135.796 130.902C135.64 130.927 135.501 130.939 135.378 130.939C135.108 130.939 134.849 130.89 134.604 130.792C134.366 130.693 134.157 130.558 133.977 130.386C133.796 130.214 133.653 130.009 133.546 129.771C133.448 129.534 133.399 129.271 133.399 128.984V126.489C133.399 126.21 133.448 125.952 133.546 125.714C133.653 125.477 133.792 125.272 133.964 125.1C134.145 124.927 134.354 124.796 134.591 124.706C134.837 124.608 135.095 124.559 135.366 124.559C135.497 124.559 135.636 124.579 135.784 124.62C135.931 124.653 136.075 124.69 136.214 124.731C136.362 124.78 136.517 124.837 136.681 124.903L136.485 125.579C136.353 125.53 136.218 125.489 136.079 125.456C135.964 125.423 135.841 125.395 135.71 125.37C135.579 125.337 135.464 125.321 135.366 125.321C135.038 125.321 134.755 125.427 134.517 125.641C134.28 125.854 134.161 126.136 134.161 126.489V128.984ZM140.771 130.841V126.304C140.771 126.042 140.68 125.821 140.5 125.641C140.32 125.452 140.107 125.358 139.861 125.358C139.721 125.358 139.529 125.382 139.283 125.432C139.037 125.481 138.799 125.583 138.57 125.739V130.841H137.795V122.297H138.57V124.866C138.881 124.702 139.14 124.612 139.344 124.596C139.558 124.579 139.73 124.571 139.861 124.571C140.09 124.571 140.307 124.62 140.512 124.718C140.717 124.809 140.894 124.936 141.041 125.1C141.197 125.255 141.316 125.44 141.398 125.653C141.488 125.866 141.533 126.095 141.533 126.341V130.841H140.771ZM148.515 126.44C148.515 126.194 148.47 126.001 148.38 125.862C148.298 125.714 148.191 125.604 148.06 125.53C147.937 125.448 147.806 125.395 147.667 125.37C147.536 125.345 147.421 125.333 147.323 125.333C147.224 125.333 147.105 125.345 146.966 125.37C146.827 125.395 146.692 125.448 146.56 125.53C146.437 125.604 146.331 125.714 146.241 125.862C146.151 126.001 146.106 126.194 146.106 126.44V129.034C146.106 129.279 146.151 129.476 146.241 129.624C146.331 129.771 146.437 129.886 146.56 129.968C146.692 130.042 146.827 130.095 146.966 130.128C147.105 130.152 147.224 130.165 147.323 130.165C147.421 130.165 147.536 130.152 147.667 130.128C147.806 130.095 147.937 130.042 148.06 129.968C148.191 129.886 148.298 129.771 148.38 129.624C148.47 129.476 148.515 129.279 148.515 129.034V126.44ZM149.228 129.12C149.228 129.505 149.159 129.816 149.019 130.054C148.88 130.283 148.708 130.464 148.503 130.595C148.306 130.726 148.097 130.812 147.876 130.853C147.663 130.894 147.478 130.915 147.323 130.915C147.167 130.915 146.978 130.894 146.757 130.853C146.536 130.812 146.323 130.726 146.118 130.595C145.921 130.464 145.753 130.283 145.614 130.054C145.474 129.816 145.405 129.505 145.405 129.12V126.354C145.405 125.968 145.474 125.661 145.614 125.432C145.753 125.194 145.921 125.014 146.118 124.891C146.323 124.759 146.536 124.673 146.757 124.632C146.978 124.591 147.167 124.571 147.323 124.571C147.478 124.571 147.663 124.591 147.876 124.632C148.097 124.673 148.306 124.759 148.503 124.891C148.708 125.014 148.88 125.194 149.019 125.432C149.159 125.661 149.228 125.968 149.228 126.354V129.12ZM152.043 130.841H151.232V125.444H150.187V124.694H151.244V123.846C151.244 123.264 151.388 122.846 151.675 122.592C151.961 122.329 152.314 122.198 152.732 122.198H153.027V123.01H152.793C152.597 123.01 152.42 123.063 152.265 123.169C152.109 123.276 152.031 123.473 152.031 123.76V124.694H153.174V125.444H152.043V130.841ZM159.445 124.694H160.232L158.843 130.841H157.687L156.224 124.694H156.999C157.278 125.833 157.499 126.747 157.663 127.435C157.827 128.116 157.954 128.636 158.044 128.997C158.142 129.431 158.212 129.73 158.253 129.894L159.445 124.694ZM163.972 127.853C163.972 127.845 163.935 127.825 163.862 127.792C163.796 127.751 163.706 127.71 163.591 127.669C163.476 127.628 163.341 127.591 163.185 127.558C163.03 127.526 162.866 127.509 162.694 127.509C162.44 127.509 162.222 127.603 162.042 127.792C161.87 127.98 161.784 128.202 161.784 128.456V129.218C161.784 129.48 161.87 129.706 162.042 129.894C162.222 130.075 162.435 130.165 162.681 130.165C162.771 130.165 162.89 130.144 163.038 130.103C163.185 130.062 163.329 130.017 163.468 129.968C163.624 129.911 163.792 129.841 163.972 129.759V127.853ZM164.747 130.14L165.017 130.386L164.464 130.939L164.132 130.607C163.878 130.73 163.612 130.82 163.333 130.878C163.054 130.935 162.841 130.964 162.694 130.964C162.456 130.964 162.235 130.919 162.03 130.829C161.825 130.73 161.649 130.599 161.501 130.435C161.354 130.271 161.235 130.083 161.145 129.87C161.063 129.648 161.022 129.415 161.022 129.169V128.493C161.022 128.255 161.063 128.03 161.145 127.817C161.235 127.603 161.354 127.419 161.501 127.263C161.649 127.099 161.825 126.972 162.03 126.882C162.235 126.784 162.456 126.735 162.694 126.735C162.743 126.735 162.817 126.739 162.915 126.747C163.021 126.747 163.136 126.759 163.259 126.784C163.382 126.8 163.505 126.829 163.628 126.87C163.759 126.903 163.878 126.948 163.984 127.005V126.747C163.984 126.575 163.952 126.403 163.886 126.231C163.829 126.059 163.747 125.907 163.64 125.776C163.534 125.645 163.407 125.538 163.259 125.456C163.12 125.374 162.972 125.333 162.817 125.333C162.759 125.333 162.644 125.354 162.472 125.395C162.308 125.436 162.132 125.477 161.944 125.518C161.731 125.575 161.493 125.636 161.231 125.702L161.022 124.964C161.292 124.891 161.546 124.825 161.784 124.768C161.989 124.718 162.19 124.673 162.386 124.632C162.583 124.591 162.726 124.571 162.817 124.571C163.079 124.571 163.325 124.632 163.554 124.755C163.792 124.878 163.997 125.042 164.169 125.247C164.341 125.452 164.476 125.686 164.575 125.948C164.681 126.202 164.734 126.468 164.734 126.747L164.747 130.14ZM166.263 122.297H167.05V129.243C167.05 129.538 167.123 129.743 167.271 129.857C167.418 129.964 167.595 130.017 167.8 130.017H168.045V130.829H167.738C167.32 130.829 166.968 130.701 166.681 130.447C166.402 130.185 166.263 129.763 166.263 129.181V122.297ZM169.026 129.906C168.92 129.693 168.858 129.484 168.842 129.279C168.825 129.075 168.817 128.862 168.817 128.64V124.694H169.604V129.009C169.604 129.386 169.706 129.677 169.911 129.882C170.116 130.079 170.342 130.177 170.587 130.177C170.825 130.177 171.063 130.136 171.3 130.054C171.546 129.964 171.739 129.874 171.878 129.784V124.694H172.653V130.128L172.96 130.411L172.407 130.964L172.038 130.595C171.809 130.71 171.563 130.796 171.3 130.853C171.038 130.91 170.805 130.939 170.6 130.939C170.296 130.939 169.997 130.861 169.702 130.706C169.415 130.55 169.19 130.283 169.026 129.906ZM176.19 127.792C176.444 127.792 176.657 127.694 176.829 127.497C177.009 127.292 177.099 127.058 177.099 126.796V126.292C177.099 126.12 177.067 125.977 177.001 125.862C176.935 125.739 176.845 125.641 176.731 125.567C176.624 125.493 176.497 125.44 176.349 125.407C176.202 125.374 176.05 125.358 175.895 125.358C175.616 125.358 175.37 125.444 175.157 125.616C174.944 125.78 174.837 126.005 174.837 126.292V127.78L176.19 127.792ZM174.038 126.354C174.038 126.108 174.083 125.878 174.173 125.665C174.264 125.444 174.387 125.255 174.542 125.1C174.698 124.936 174.878 124.809 175.083 124.718C175.296 124.62 175.522 124.571 175.759 124.571H176.165C176.403 124.571 176.624 124.616 176.829 124.706C177.042 124.796 177.226 124.923 177.382 125.087C177.538 125.243 177.661 125.432 177.751 125.653C177.841 125.866 177.886 126.099 177.886 126.354V126.747C177.886 127.099 177.825 127.394 177.702 127.632C177.579 127.87 177.407 128.062 177.185 128.21C176.972 128.357 176.722 128.464 176.435 128.53C176.149 128.595 175.845 128.628 175.526 128.628C175.296 128.628 175.067 128.616 174.837 128.591V129.206C174.895 129.493 175.034 129.726 175.255 129.906C175.485 130.087 175.743 130.177 176.03 130.177C176.046 130.177 176.14 130.161 176.313 130.128C176.493 130.087 176.685 130.042 176.89 129.993C177.128 129.943 177.39 129.882 177.677 129.808L177.874 130.62C177.562 130.685 177.276 130.742 177.013 130.792C176.792 130.833 176.583 130.87 176.386 130.902C176.19 130.935 176.071 130.951 176.03 130.951C175.759 130.951 175.501 130.902 175.255 130.804C175.018 130.706 174.809 130.57 174.628 130.398C174.448 130.226 174.305 130.021 174.198 129.784C174.091 129.546 174.038 129.284 174.038 128.997V126.354ZM184.418 127.853C184.418 127.845 184.381 127.825 184.307 127.792C184.242 127.751 184.152 127.71 184.037 127.669C183.922 127.628 183.787 127.591 183.631 127.558C183.475 127.526 183.312 127.509 183.139 127.509C182.885 127.509 182.668 127.603 182.488 127.792C182.316 127.98 182.23 128.202 182.23 128.456V129.218C182.23 129.48 182.316 129.706 182.488 129.894C182.668 130.075 182.881 130.165 183.127 130.165C183.217 130.165 183.336 130.144 183.484 130.103C183.631 130.062 183.775 130.017 183.914 129.968C184.07 129.911 184.238 129.841 184.418 129.759V127.853ZM185.192 130.14L185.463 130.386L184.91 130.939L184.578 130.607C184.324 130.73 184.057 130.82 183.779 130.878C183.5 130.935 183.287 130.964 183.139 130.964C182.902 130.964 182.68 130.919 182.476 130.829C182.271 130.73 182.094 130.599 181.947 130.435C181.799 130.271 181.681 130.083 181.59 129.87C181.508 129.648 181.467 129.415 181.467 129.169V128.493C181.467 128.255 181.508 128.03 181.59 127.817C181.681 127.603 181.799 127.419 181.947 127.263C182.094 127.099 182.271 126.972 182.476 126.882C182.68 126.784 182.902 126.735 183.139 126.735C183.189 126.735 183.262 126.739 183.361 126.747C183.467 126.747 183.582 126.759 183.705 126.784C183.828 126.8 183.951 126.829 184.074 126.87C184.205 126.903 184.324 126.948 184.43 127.005V126.747C184.43 126.575 184.397 126.403 184.332 126.231C184.275 126.059 184.193 125.907 184.086 125.776C183.979 125.645 183.852 125.538 183.705 125.456C183.566 125.374 183.418 125.333 183.262 125.333C183.205 125.333 183.09 125.354 182.918 125.395C182.754 125.436 182.578 125.477 182.389 125.518C182.176 125.575 181.939 125.636 181.676 125.702L181.467 124.964C181.738 124.891 181.992 124.825 182.23 124.768C182.435 124.718 182.635 124.673 182.832 124.632C183.029 124.591 183.172 124.571 183.262 124.571C183.525 124.571 183.77 124.632 184 124.755C184.238 124.878 184.443 125.042 184.615 125.247C184.787 125.452 184.922 125.686 185.02 125.948C185.127 126.202 185.18 126.468 185.18 126.747L185.192 130.14ZM190.286 125.616C190.384 125.829 190.442 126.038 190.458 126.243C190.475 126.448 190.483 126.661 190.483 126.882V130.841H189.684V126.513C189.684 126.136 189.581 125.85 189.376 125.653C189.18 125.448 188.958 125.345 188.712 125.345C188.573 125.345 188.393 125.366 188.172 125.407C187.958 125.44 187.708 125.55 187.422 125.739V130.841H186.647V125.395L186.352 125.112L186.893 124.559L187.274 124.927C187.7 124.698 188.11 124.583 188.503 124.583C188.872 124.583 189.221 124.661 189.548 124.817C189.876 124.973 190.122 125.239 190.286 125.616ZM194.769 125.751C194.523 125.604 194.277 125.501 194.032 125.444C193.794 125.386 193.614 125.358 193.491 125.358C193.237 125.358 193.019 125.452 192.839 125.641C192.667 125.829 192.581 126.054 192.581 126.317V129.23C192.581 129.493 192.667 129.718 192.839 129.906C193.019 130.087 193.232 130.177 193.478 130.177C193.552 130.177 193.65 130.169 193.773 130.152C193.905 130.128 194.036 130.099 194.167 130.066C194.306 130.034 194.429 129.997 194.536 129.956C194.65 129.906 194.728 129.853 194.769 129.796V125.751ZM194.782 122.309H195.544V130.152L195.851 130.447L195.298 130.988L194.929 130.62C194.683 130.742 194.421 130.829 194.142 130.878C193.872 130.927 193.655 130.951 193.491 130.951C193.253 130.951 193.032 130.906 192.827 130.816C192.63 130.726 192.454 130.603 192.298 130.447C192.151 130.283 192.032 130.095 191.942 129.882C191.86 129.661 191.819 129.427 191.819 129.181V126.354C191.819 126.108 191.86 125.878 191.942 125.665C192.032 125.452 192.151 125.268 192.298 125.112C192.454 124.948 192.63 124.821 192.827 124.731C193.032 124.632 193.253 124.583 193.491 124.583C193.614 124.583 193.786 124.6 194.007 124.632C194.236 124.657 194.495 124.739 194.782 124.878V122.309ZM201.594 127.792C201.848 127.792 202.061 127.694 202.233 127.497C202.413 127.292 202.503 127.058 202.503 126.796V126.292C202.503 126.12 202.471 125.977 202.405 125.862C202.34 125.739 202.249 125.641 202.135 125.567C202.028 125.493 201.901 125.44 201.754 125.407C201.606 125.374 201.454 125.358 201.299 125.358C201.02 125.358 200.774 125.444 200.561 125.616C200.348 125.78 200.241 126.005 200.241 126.292V127.78L201.594 127.792ZM199.442 126.354C199.442 126.108 199.487 125.878 199.578 125.665C199.668 125.444 199.791 125.255 199.946 125.1C200.102 124.936 200.282 124.809 200.487 124.718C200.7 124.62 200.926 124.571 201.163 124.571H201.569C201.807 124.571 202.028 124.616 202.233 124.706C202.446 124.796 202.631 124.923 202.786 125.087C202.942 125.243 203.065 125.432 203.155 125.653C203.245 125.866 203.29 126.099 203.29 126.354V126.747C203.29 127.099 203.229 127.394 203.106 127.632C202.983 127.87 202.811 128.062 202.59 128.21C202.376 128.357 202.126 128.464 201.84 128.53C201.553 128.595 201.25 128.628 200.93 128.628C200.7 128.628 200.471 128.616 200.241 128.591V129.206C200.299 129.493 200.438 129.726 200.659 129.906C200.889 130.087 201.147 130.177 201.434 130.177C201.45 130.177 201.545 130.161 201.717 130.128C201.897 130.087 202.09 130.042 202.295 129.993C202.532 129.943 202.794 129.882 203.081 129.808L203.278 130.62C202.967 130.685 202.68 130.742 202.417 130.792C202.196 130.833 201.987 130.87 201.79 130.902C201.594 130.935 201.475 130.951 201.434 130.951C201.163 130.951 200.905 130.902 200.659 130.804C200.422 130.706 200.213 130.57 200.032 130.398C199.852 130.226 199.709 130.021 199.602 129.784C199.496 129.546 199.442 129.284 199.442 128.997V126.354ZM205.997 128.21L204.866 130.841H204.092L205.395 127.78L204.092 124.694H204.866L206.034 127.325C206.223 126.89 206.407 126.452 206.588 126.009C206.776 125.567 206.965 125.128 207.153 124.694H207.952L206.698 127.78C206.911 128.271 207.124 128.78 207.337 129.304C207.559 129.829 207.776 130.337 207.989 130.829H207.19L206.047 128.21H205.997ZM209.593 128.984C209.593 129.353 209.712 129.644 209.95 129.857C210.195 130.07 210.482 130.177 210.81 130.177C210.876 130.177 210.97 130.169 211.093 130.152C211.224 130.128 211.351 130.099 211.474 130.066C211.622 130.034 211.773 129.993 211.929 129.943L212.162 130.656C211.99 130.714 211.826 130.763 211.671 130.804C211.531 130.845 211.384 130.878 211.228 130.902C211.072 130.927 210.933 130.939 210.81 130.939C210.54 130.939 210.281 130.89 210.036 130.792C209.798 130.693 209.589 130.558 209.409 130.386C209.228 130.214 209.085 130.009 208.978 129.771C208.88 129.534 208.831 129.271 208.831 128.984V126.489C208.831 126.21 208.88 125.952 208.978 125.714C209.085 125.477 209.224 125.272 209.396 125.1C209.577 124.927 209.786 124.796 210.023 124.706C210.269 124.608 210.527 124.559 210.798 124.559C210.929 124.559 211.068 124.579 211.216 124.62C211.363 124.653 211.507 124.69 211.646 124.731C211.794 124.78 211.949 124.837 212.113 124.903L211.917 125.579C211.785 125.53 211.65 125.489 211.511 125.456C211.396 125.423 211.273 125.395 211.142 125.37C211.011 125.337 210.896 125.321 210.798 125.321C210.47 125.321 210.187 125.427 209.95 125.641C209.712 125.854 209.593 126.136 209.593 126.489V128.984ZM215.172 127.792C215.426 127.792 215.639 127.694 215.812 127.497C215.992 127.292 216.082 127.058 216.082 126.796V126.292C216.082 126.12 216.049 125.977 215.984 125.862C215.918 125.739 215.828 125.641 215.713 125.567C215.607 125.493 215.48 125.44 215.332 125.407C215.185 125.374 215.033 125.358 214.877 125.358C214.599 125.358 214.353 125.444 214.14 125.616C213.926 125.78 213.82 126.005 213.82 126.292V127.78L215.172 127.792ZM213.021 126.354C213.021 126.108 213.066 125.878 213.156 125.665C213.246 125.444 213.369 125.255 213.525 125.1C213.681 124.936 213.861 124.809 214.066 124.718C214.279 124.62 214.504 124.571 214.742 124.571H215.148C215.385 124.571 215.607 124.616 215.812 124.706C216.025 124.796 216.209 124.923 216.365 125.087C216.52 125.243 216.643 125.432 216.734 125.653C216.824 125.866 216.869 126.099 216.869 126.354V126.747C216.869 127.099 216.807 127.394 216.684 127.632C216.561 127.87 216.389 128.062 216.168 128.21C215.955 128.357 215.705 128.464 215.418 128.53C215.131 128.595 214.828 128.628 214.508 128.628C214.279 128.628 214.049 128.616 213.82 128.591V129.206C213.877 129.493 214.017 129.726 214.238 129.906C214.467 130.087 214.726 130.177 215.012 130.177C215.029 130.177 215.123 130.161 215.295 130.128C215.475 130.087 215.668 130.042 215.873 129.993C216.111 129.943 216.373 129.882 216.66 129.808L216.857 130.62C216.545 130.685 216.258 130.742 215.996 130.792C215.775 130.833 215.566 130.87 215.369 130.902C215.172 130.935 215.053 130.951 215.012 130.951C214.742 130.951 214.484 130.902 214.238 130.804C214 130.706 213.791 130.57 213.611 130.398C213.431 130.226 213.287 130.021 213.181 129.784C213.074 129.546 213.021 129.284 213.021 128.997V126.354ZM218.224 122.297H219.01V129.243C219.01 129.538 219.084 129.743 219.232 129.857C219.379 129.964 219.555 130.017 219.76 130.017H220.006V130.829H219.699C219.281 130.829 218.928 130.701 218.642 130.447C218.363 130.185 218.224 129.763 218.224 129.181V122.297ZM220.901 122.297H221.688V129.243C221.688 129.538 221.761 129.743 221.909 129.857C222.057 129.964 222.233 130.017 222.438 130.017H222.684V130.829H222.376C221.958 130.829 221.606 130.701 221.319 130.447C221.04 130.185 220.901 129.763 220.901 129.181V122.297ZM225.545 127.792C225.799 127.792 226.012 127.694 226.184 127.497C226.365 127.292 226.455 127.058 226.455 126.796V126.292C226.455 126.12 226.422 125.977 226.357 125.862C226.291 125.739 226.201 125.641 226.086 125.567C225.98 125.493 225.853 125.44 225.705 125.407C225.557 125.374 225.406 125.358 225.25 125.358C224.971 125.358 224.726 125.444 224.513 125.616C224.299 125.78 224.193 126.005 224.193 126.292V127.78L225.545 127.792ZM223.394 126.354C223.394 126.108 223.439 125.878 223.529 125.665C223.619 125.444 223.742 125.255 223.898 125.1C224.054 124.936 224.234 124.809 224.439 124.718C224.652 124.62 224.877 124.571 225.115 124.571H225.521C225.758 124.571 225.98 124.616 226.184 124.706C226.398 124.796 226.582 124.923 226.738 125.087C226.893 125.243 227.016 125.432 227.107 125.653C227.197 125.866 227.242 126.099 227.242 126.354V126.747C227.242 127.099 227.18 127.394 227.057 127.632C226.934 127.87 226.762 128.062 226.541 128.21C226.328 128.357 226.078 128.464 225.791 128.53C225.504 128.595 225.201 128.628 224.881 128.628C224.652 128.628 224.422 128.616 224.193 128.591V129.206C224.25 129.493 224.39 129.726 224.611 129.906C224.84 130.087 225.099 130.177 225.385 130.177C225.402 130.177 225.496 130.161 225.668 130.128C225.848 130.087 226.041 130.042 226.246 129.993C226.484 129.943 226.746 129.882 227.033 129.808L227.229 130.62C226.918 130.685 226.631 130.742 226.369 130.792C226.148 130.833 225.939 130.87 225.742 130.902C225.545 130.935 225.426 130.951 225.385 130.951C225.115 130.951 224.857 130.902 224.611 130.804C224.373 130.706 224.164 130.57 223.984 130.398C223.804 130.226 223.66 130.021 223.554 129.784C223.447 129.546 223.394 129.284 223.394 128.997V126.354ZM232.174 125.616C232.272 125.829 232.33 126.038 232.346 126.243C232.363 126.448 232.371 126.661 232.371 126.882V130.841H231.572V126.513C231.572 126.136 231.469 125.85 231.264 125.653C231.068 125.448 230.846 125.345 230.6 125.345C230.461 125.345 230.281 125.366 230.06 125.407C229.846 125.44 229.596 125.55 229.31 125.739V130.841H228.535V125.395L228.24 125.112L228.781 124.559L229.162 124.927C229.588 124.698 229.998 124.583 230.391 124.583C230.76 124.583 231.109 124.661 231.436 124.817C231.764 124.973 232.01 125.239 232.174 125.616ZM234.469 128.984C234.469 129.353 234.588 129.644 234.825 129.857C235.071 130.07 235.358 130.177 235.686 130.177C235.752 130.177 235.846 130.169 235.969 130.152C236.1 130.128 236.227 130.099 236.35 130.066C236.497 130.034 236.649 129.993 236.805 129.943L237.038 130.656C236.866 130.714 236.702 130.763 236.547 130.804C236.407 130.845 236.26 130.878 236.104 130.902C235.948 130.927 235.809 130.939 235.686 130.939C235.416 130.939 235.157 130.89 234.912 130.792C234.674 130.693 234.465 130.558 234.285 130.386C234.104 130.214 233.961 130.009 233.854 129.771C233.756 129.534 233.707 129.271 233.707 128.984V126.489C233.707 126.21 233.756 125.952 233.854 125.714C233.961 125.477 234.1 125.272 234.272 125.1C234.453 124.927 234.662 124.796 234.899 124.706C235.145 124.608 235.403 124.559 235.674 124.559C235.805 124.559 235.944 124.579 236.092 124.62C236.239 124.653 236.383 124.69 236.522 124.731C236.67 124.78 236.825 124.837 236.989 124.903L236.792 125.579C236.661 125.53 236.526 125.489 236.387 125.456C236.272 125.423 236.149 125.395 236.018 125.37C235.887 125.337 235.772 125.321 235.674 125.321C235.346 125.321 235.063 125.427 234.825 125.641C234.588 125.854 234.469 126.136 234.469 126.489V128.984ZM240.048 127.792C240.302 127.792 240.515 127.694 240.687 127.497C240.868 127.292 240.958 127.058 240.958 126.796V126.292C240.958 126.12 240.925 125.977 240.86 125.862C240.794 125.739 240.704 125.641 240.589 125.567C240.483 125.493 240.355 125.44 240.208 125.407C240.06 125.374 239.909 125.358 239.753 125.358C239.474 125.358 239.229 125.444 239.015 125.616C238.802 125.78 238.696 126.005 238.696 126.292V127.78L240.048 127.792ZM237.897 126.354C237.897 126.108 237.942 125.878 238.032 125.665C238.122 125.444 238.245 125.255 238.401 125.1C238.556 124.936 238.737 124.809 238.942 124.718C239.155 124.62 239.38 124.571 239.618 124.571H240.024C240.261 124.571 240.483 124.616 240.687 124.706C240.901 124.796 241.085 124.923 241.241 125.087C241.396 125.243 241.519 125.432 241.609 125.653C241.7 125.866 241.745 126.099 241.745 126.354V126.747C241.745 127.099 241.683 127.394 241.56 127.632C241.437 127.87 241.265 128.062 241.044 128.21C240.831 128.357 240.581 128.464 240.294 128.53C240.007 128.595 239.704 128.628 239.384 128.628C239.155 128.628 238.925 128.616 238.696 128.591V129.206C238.753 129.493 238.893 129.726 239.114 129.906C239.343 130.087 239.601 130.177 239.888 130.177C239.905 130.177 239.999 130.161 240.171 130.128C240.351 130.087 240.544 130.042 240.749 129.993C240.987 129.943 241.249 129.882 241.536 129.808L241.732 130.62C241.421 130.685 241.134 130.742 240.872 130.792C240.651 130.833 240.442 130.87 240.245 130.902C240.048 130.935 239.929 130.951 239.888 130.951C239.618 130.951 239.36 130.902 239.114 130.804C238.876 130.706 238.667 130.57 238.487 130.398C238.307 130.226 238.163 130.021 238.057 129.784C237.95 129.546 237.897 129.284 237.897 128.997V126.354Z" fill="black"/>
<path d="M22.2419 65.4641V135.802C22.2419 135.802 16.7116 139.028 13.4497 141.517C10.1878 144.007 5.53663 148.551 5.53663 148.551L23.5608 139.759C23.5608 139.759 45.5651 129.918 57.411 126.57C69.2569 123.223 84.2274 122.614 84.2274 122.614C84.2274 122.614 90.1974 123.16 93.4593 123.933C96.7212 124.705 100.933 126.57 100.933 126.57C100.933 126.57 103.141 127.171 103.57 126.57C104 125.969 103.131 124.372 103.131 124.372C103.131 124.372 101.664 121.532 99.1742 120.416C96.6849 119.3 90.8216 117.778 90.8216 117.778L90.382 30.7347H84.2274V74.2564L76.3144 82.1694V43.4835H69.7202V90.9617L60.0487 102.831V50.0777H52.5752V102.831L45.1018 93.5994V57.5511H37.1888V82.1694L30.155 74.2564V65.4641H22.2419Z" fill="#A9CE4C" stroke="black" stroke-width="0.879226"/>
<path d="M30.7347 89.1306V131.523C40.5922 126.731 46.2029 124.623 56.3469 121.808L30.7347 89.1306Z" fill="white" stroke="black" stroke-width="0.883181"/>
<path d="M84.0082 89.1306L59.545 120.89C59.545 120.89 68.502 118.985 73.2787 118.315C78.0554 117.644 84.0082 117.456 84.0082 117.456V89.1306Z" fill="white" stroke="black" stroke-width="0.858356"/>
<path d="M3.32261 103.828L2.44992 108.209C50.299 76.9926 73.7363 56.2021 108.482 12.2728L112.409 14.9012L113.718 3.07347L102.81 7.01605L105.428 9.64444C69.3358 53.1553 47.0683 73.9493 3.32261 103.828Z" fill="black" stroke="black" stroke-width="0.87613"/>
</g>
<defs>
<clipPath id="clip0_10_93">
<rect width="251" height="150.6" fill="white"/>
</clipPath>
</defs>
</svg>
