<svg width="106" height="22" viewBox="0 0 106 22" fill="none" xmlns="http://www.w3.org/2000/svg">
<path d="M10.6 0L12.9798 7.32442H20.6812L14.4507 11.8512L16.8305 19.1756L10.6 14.6488L4.36948 19.1756L6.74933 11.8512L0.518801 7.32442H8.22015L10.6 0Z" fill="#F4EC12"/>
<path d="M31.8 0L34.1799 7.32442H41.8812L35.6507 11.8512L38.0305 19.1756L31.8 14.6488L25.5695 19.1756L27.9493 11.8512L21.7188 7.32442H29.4202L31.8 0Z" fill="#F4EC12"/>
<path d="M53 0L55.3799 7.32442H63.0812L56.8507 11.8512L59.2306 19.1756L53 14.6488L46.7695 19.1756L49.1493 11.8512L42.9188 7.32442H50.6202L53 0Z" fill="#F4EC12"/>
<path d="M74.2 0L76.5799 7.32442H84.2812L78.0507 11.8512L80.4306 19.1756L74.2 14.6488L67.9695 19.1756L70.3494 11.8512L64.1188 7.32442H71.8202L74.2 0Z" fill="#F4EC12"/>
<path d="M95.4 0L97.7798 7.32442H105.481L99.2507 11.8512L101.631 19.1756L95.4 14.6488L89.1695 19.1756L91.5493 11.8512L85.3188 7.32442H93.0201L95.4 0Z" fill="#F4EC12"/>
</svg>
